<svg width="23" height="49" viewBox="0 0 23 49" fill="none" xmlns="http://www.w3.org/2000/svg">
<mask id="path-1-inside-1_2107_4683" fill="white">
<path d="M11.6304 -3.93391e-06H22.5504V49H10.6504V17.71C7.99035 19.25 4.42035 20.23 0.220351 20.23V10.92C7.22035 10.57 11.6304 6.65 11.6304 -3.93391e-06Z"/>
</mask>
<path d="M11.6304 -3.93391e-06H22.5504V49H10.6504V17.71C7.99035 19.25 4.42035 20.23 0.220351 20.23V10.92C7.22035 10.57 11.6304 6.65 11.6304 -3.93391e-06Z" fill="#DBDAFD"/>
<path d="M11.6304 -3.93391e-06V-2H9.63035V-3.93391e-06H11.6304ZM22.5504 -3.93391e-06H24.5504V-2H22.5504V-3.93391e-06ZM22.5504 49V51H24.5504V49H22.5504ZM10.6504 49H8.65035V51H10.6504V49ZM10.6504 17.71H12.6504V14.2411L9.64828 15.9791L10.6504 17.71ZM0.220351 20.23H-1.77965V22.23H0.220351V20.23ZM0.220351 10.92L0.120476 8.92249L-1.77965 9.0175V10.92H0.220351ZM11.6304 2H22.5504V-2H11.6304V2ZM20.5504 -3.93391e-06V49H24.5504V-3.93391e-06H20.5504ZM22.5504 47H10.6504V51H22.5504V47ZM12.6504 49V17.71H8.65035V49H12.6504ZM9.64828 15.9791C7.33308 17.3195 4.11812 18.23 0.220351 18.23V22.23C4.72258 22.23 8.64762 21.1805 11.6524 19.4409L9.64828 15.9791ZM2.22035 20.23V10.92H-1.77965V20.23H2.22035ZM0.320226 12.9175C4.15756 12.7256 7.50776 11.5427 9.91866 9.28117C12.3575 6.99339 13.6304 3.79221 13.6304 -3.93391e-06H9.63035C9.63035 2.85779 8.69818 4.94161 7.18204 6.36383C5.63794 7.81227 3.28315 8.76436 0.120476 8.92249L0.320226 12.9175Z" fill="#001452" mask="url(#path-1-inside-1_2107_4683)"/>
</svg>
