<svg width="39" height="51" viewBox="0 0 39 51" fill="none" xmlns="http://www.w3.org/2000/svg">
<mask id="path-1-inside-1_2107_4686" fill="white">
<path d="M1.37398 51V42.53C8.51398 38.47 25.594 26.08 25.594 16.77C25.594 13.62 23.424 11.66 19.994 11.66C16.564 11.66 13.414 13.83 12.714 19.22L0.813984 17.19C2.00398 7.04 9.35398 0.949998 19.644 0.949998C30.144 0.949998 37.774 7.32 37.774 16.35C37.774 26.57 27.834 35.39 19.784 40.5H38.684V51H1.37398Z"/>
</mask>
<path d="M1.37398 51V42.53C8.51398 38.47 25.594 26.08 25.594 16.77C25.594 13.62 23.424 11.66 19.994 11.66C16.564 11.66 13.414 13.83 12.714 19.22L0.813984 17.19C2.00398 7.04 9.35398 0.949998 19.644 0.949998C30.144 0.949998 37.774 7.32 37.774 16.35C37.774 26.57 27.834 35.39 19.784 40.5H38.684V51H1.37398Z" fill="#DBDAFD"/>
<path d="M1.37398 51H-0.626016V53H1.37398V51ZM1.37398 42.53L0.38538 40.7914L-0.626016 41.3665V42.53H1.37398ZM12.714 19.22L12.3777 21.1915L14.4293 21.5415L14.6973 19.4776L12.714 19.22ZM0.813984 17.19L-1.17241 16.9571L-1.39344 18.8423L0.477667 19.1615L0.813984 17.19ZM19.784 40.5L18.7121 38.8115L12.9014 42.5H19.784V40.5ZM38.684 40.5H40.684V38.5H38.684V40.5ZM38.684 51V53H40.684V51H38.684ZM3.37398 51V42.53H-0.626016V51H3.37398ZM2.36259 44.2686C6.04887 42.1725 12.2308 37.9723 17.5186 33.0879C20.1632 30.6449 22.6406 27.9794 24.4707 25.2717C26.2787 22.5967 27.594 19.6768 27.594 16.77H23.594C23.594 18.5182 22.7743 20.6383 21.1566 23.0318C19.5611 25.3925 17.3223 27.8238 14.8044 30.1496C9.76713 34.8027 3.8391 38.8275 0.38538 40.7914L2.36259 44.2686ZM27.594 16.77C27.594 14.7131 26.8706 12.8687 25.4262 11.5545C24.0035 10.2599 22.0814 9.66 19.994 9.66V13.66C21.3366 13.66 22.2145 14.0401 22.7342 14.513C23.2324 14.9663 23.594 15.6769 23.594 16.77H27.594ZM19.994 9.66C17.8482 9.66 15.6919 10.3462 13.9659 11.9563C12.2453 13.5615 11.1255 15.9219 10.7306 18.9624L14.6973 19.4776C15.0025 17.1281 15.8076 15.7085 16.6945 14.8812C17.5761 14.0588 18.7097 13.66 19.994 13.66V9.66ZM13.0503 17.2485L1.1503 15.2185L0.477667 19.1615L12.3777 21.1915L13.0503 17.2485ZM2.80038 17.4229C3.34341 12.7912 5.26778 9.21339 8.11438 6.78542C10.9694 4.35025 14.8963 2.95 19.644 2.95V-1.05C14.1017 -1.05 9.20857 0.594748 5.51859 3.74208C1.82019 6.8966 -0.525439 11.4388 -1.17241 16.9571L2.80038 17.4229ZM19.644 2.95C29.3681 2.95 35.774 8.72682 35.774 16.35H39.774C39.774 5.91317 30.9199 -1.05 19.644 -1.05V2.95ZM35.774 16.35C35.774 20.8013 33.603 25.1161 30.2717 29.0485C26.9529 32.9662 22.6316 36.3234 18.7121 38.8115L20.8558 42.1885C24.9863 39.5666 29.6601 35.9588 33.3238 31.634C36.975 27.3239 39.774 22.1187 39.774 16.35H35.774ZM19.784 42.5H38.684V38.5H19.784V42.5ZM36.684 40.5V51H40.684V40.5H36.684ZM38.684 49H1.37398V53H38.684V49Z" fill="#001452" mask="url(#path-1-inside-1_2107_4686)"/>
</svg>
