<svg width="40" height="50" viewBox="0 0 40 50" fill="none" xmlns="http://www.w3.org/2000/svg">
<mask id="path-1-inside-1_2107_4689" fill="white">
<path d="M19.3919 49.98C9.45188 49.98 2.73188 45.5 0.0718751 36.82L10.9919 34.58C12.5319 37.73 15.1219 39.2 19.1119 39.2C24.0819 39.2 27.3019 36.61 27.3019 32.13C27.3019 28.07 24.6419 25.34 19.3919 25.34C17.1519 25.34 14.9119 26.04 12.6719 27.3L9.03188 20.79L21.4919 10.5H2.45188V-3.33786e-06H36.3319V8.4L24.5019 17.43C24.6419 17.43 24.7819 17.43 24.8519 17.43C33.2519 17.99 39.4819 23.66 39.4819 32.48C39.4819 43.05 31.5719 49.98 19.3919 49.98Z"/>
</mask>
<path d="M19.3919 49.98C9.45188 49.98 2.73188 45.5 0.0718751 36.82L10.9919 34.58C12.5319 37.73 15.1219 39.2 19.1119 39.2C24.0819 39.2 27.3019 36.61 27.3019 32.13C27.3019 28.07 24.6419 25.34 19.3919 25.34C17.1519 25.34 14.9119 26.04 12.6719 27.3L9.03188 20.79L21.4919 10.5H2.45188V-3.33786e-06H36.3319V8.4L24.5019 17.43C24.6419 17.43 24.7819 17.43 24.8519 17.43C33.2519 17.99 39.4819 23.66 39.4819 32.48C39.4819 43.05 31.5719 49.98 19.3919 49.98Z" fill="#DBDAFD"/>
<path d="M0.0718751 36.82L-0.330013 34.8608L-2.48487 35.3028L-1.84035 37.406L0.0718751 36.82ZM10.9919 34.58L12.7886 33.7016L12.108 32.3094L10.59 32.6208L10.9919 34.58ZM12.6719 27.3L10.9262 28.2761L11.9048 30.0262L13.6524 29.0432L12.6719 27.3ZM9.03188 20.79L7.75834 19.2479L6.47213 20.3101L7.28622 21.7661L9.03188 20.79ZM21.4919 10.5L22.7654 12.0421L27.0545 8.5H21.4919V10.5ZM2.45188 10.5H0.451875V12.5H2.45188V10.5ZM2.45188 -3.33786e-06V-2H0.451875V-3.33786e-06H2.45188ZM36.3319 -3.33786e-06H38.3319V-2H36.3319V-3.33786e-06ZM36.3319 8.4L37.5454 9.98978L38.3319 9.38944V8.4H36.3319ZM24.5019 17.43L23.2884 15.8402L18.5855 19.43H24.5019V17.43ZM24.8519 17.43L24.9849 15.4344L24.9185 15.43H24.8519V17.43ZM19.3919 47.98C14.7174 47.98 10.9705 46.9277 8.12357 44.9992C5.29454 43.0827 3.19846 40.1966 1.9841 36.234L-1.84035 37.406C-0.394706 42.1234 2.19921 45.8173 5.88018 48.3108C9.54327 50.7923 14.1264 51.98 19.3919 51.98V47.98ZM0.473763 38.7792L11.3938 36.5392L10.59 32.6208L-0.330013 34.8608L0.473763 38.7792ZM9.19511 35.4584C10.1134 37.3368 11.4037 38.82 13.1445 39.8098C14.8657 40.7886 16.8774 41.2 19.1119 41.2V37.2C17.3564 37.2 16.078 36.8764 15.1217 36.3327C14.1851 35.8 13.4103 34.9732 12.7886 33.7016L9.19511 35.4584ZM19.1119 41.2C21.9239 41.2 24.4777 40.4675 26.3629 38.8714C28.2904 37.2396 29.3019 34.8859 29.3019 32.13H25.3019C25.3019 33.8541 24.7034 35.0354 23.7783 35.8186C22.811 36.6375 21.2699 37.2 19.1119 37.2V41.2ZM29.3019 32.13C29.3019 29.6477 28.4746 27.366 26.6541 25.7264C24.8593 24.1099 22.3467 23.34 19.3919 23.34V27.34C21.687 27.34 23.1294 27.9351 23.9772 28.6986C24.7992 29.439 25.3019 30.5523 25.3019 32.13H29.3019ZM19.3919 23.34C16.7246 23.34 14.1481 24.1749 11.6914 25.5568L13.6524 29.0432C15.6757 27.9051 17.5791 27.34 19.3919 27.34V23.34ZM14.4175 26.3239L10.7775 19.8139L7.28622 21.7661L10.9262 28.2761L14.4175 26.3239ZM10.3054 22.3321L22.7654 12.0421L20.2183 8.95789L7.75834 19.2479L10.3054 22.3321ZM21.4919 8.5H2.45188V12.5H21.4919V8.5ZM4.45188 10.5V-3.33786e-06H0.451875V10.5H4.45188ZM2.45188 2H36.3319V-2H2.45188V2ZM34.3319 -3.33786e-06V8.4H38.3319V-3.33786e-06H34.3319ZM35.1184 6.81021L23.2884 15.8402L25.7154 19.0198L37.5454 9.98978L35.1184 6.81021ZM24.5019 19.43C24.5021 19.43 24.5024 19.43 24.5027 19.43C24.503 19.43 24.5032 19.43 24.5035 19.43C24.5038 19.43 24.5041 19.43 24.5043 19.43C24.5046 19.43 24.5049 19.43 24.5052 19.43C24.5054 19.43 24.5057 19.43 24.506 19.43C24.5063 19.43 24.5065 19.43 24.5068 19.43C24.5071 19.43 24.5073 19.43 24.5076 19.43C24.5079 19.43 24.5082 19.43 24.5084 19.43C24.5087 19.43 24.509 19.43 24.5093 19.43C24.5095 19.43 24.5098 19.43 24.5101 19.43C24.5104 19.43 24.5106 19.43 24.5109 19.43C24.5112 19.43 24.5114 19.43 24.5117 19.43C24.512 19.43 24.5123 19.43 24.5125 19.43C24.5128 19.43 24.5131 19.43 24.5134 19.43C24.5136 19.43 24.5139 19.43 24.5142 19.43C24.5145 19.43 24.5147 19.43 24.515 19.43C24.5153 19.43 24.5155 19.43 24.5158 19.43C24.5161 19.43 24.5164 19.43 24.5166 19.43C24.5169 19.43 24.5172 19.43 24.5175 19.43C24.5177 19.43 24.518 19.43 24.5183 19.43C24.5186 19.43 24.5188 19.43 24.5191 19.43C24.5194 19.43 24.5196 19.43 24.5199 19.43C24.5202 19.43 24.5205 19.43 24.5207 19.43C24.521 19.43 24.5213 19.43 24.5216 19.43C24.5218 19.43 24.5221 19.43 24.5224 19.43C24.5226 19.43 24.5229 19.43 24.5232 19.43C24.5235 19.43 24.5237 19.43 24.524 19.43C24.5243 19.43 24.5246 19.43 24.5248 19.43C24.5251 19.43 24.5254 19.43 24.5257 19.43C24.5259 19.43 24.5262 19.43 24.5265 19.43C24.5267 19.43 24.527 19.43 24.5273 19.43C24.5276 19.43 24.5278 19.43 24.5281 19.43C24.5284 19.43 24.5287 19.43 24.5289 19.43C24.5292 19.43 24.5295 19.43 24.5297 19.43C24.53 19.43 24.5303 19.43 24.5306 19.43C24.5308 19.43 24.5311 19.43 24.5314 19.43C24.5317 19.43 24.5319 19.43 24.5322 19.43C24.5325 19.43 24.5327 19.43 24.533 19.43C24.5333 19.43 24.5336 19.43 24.5338 19.43C24.5341 19.43 24.5344 19.43 24.5347 19.43C24.5349 19.43 24.5352 19.43 24.5355 19.43C24.5357 19.43 24.536 19.43 24.5363 19.43C24.5366 19.43 24.5368 19.43 24.5371 19.43C24.5374 19.43 24.5377 19.43 24.5379 19.43C24.5382 19.43 24.5385 19.43 24.5387 19.43C24.539 19.43 24.5393 19.43 24.5396 19.43C24.5398 19.43 24.5401 19.43 24.5404 19.43C24.5406 19.43 24.5409 19.43 24.5412 19.43C24.5415 19.43 24.5417 19.43 24.542 19.43C24.5423 19.43 24.5426 19.43 24.5428 19.43C24.5431 19.43 24.5434 19.43 24.5436 19.43C24.5439 19.43 24.5442 19.43 24.5445 19.43C24.5447 19.43 24.545 19.43 24.5453 19.43C24.5455 19.43 24.5458 19.43 24.5461 19.43C24.5464 19.43 24.5466 19.43 24.5469 19.43C24.5472 19.43 24.5475 19.43 24.5477 19.43C24.548 19.43 24.5483 19.43 24.5485 19.43C24.5488 19.43 24.5491 19.43 24.5494 19.43C24.5496 19.43 24.5499 19.43 24.5502 19.43C24.5504 19.43 24.5507 19.43 24.551 19.43C24.5513 19.43 24.5515 19.43 24.5518 19.43C24.5521 19.43 24.5523 19.43 24.5526 19.43C24.5529 19.43 24.5532 19.43 24.5534 19.43C24.5537 19.43 24.554 19.43 24.5542 19.43C24.5545 19.43 24.5548 19.43 24.5551 19.43C24.5553 19.43 24.5556 19.43 24.5559 19.43C24.5561 19.43 24.5564 19.43 24.5567 19.43C24.557 19.43 24.5572 19.43 24.5575 19.43C24.5578 19.43 24.558 19.43 24.5583 19.43C24.5586 19.43 24.5588 19.43 24.5591 19.43C24.5594 19.43 24.5597 19.43 24.5599 19.43C24.5602 19.43 24.5605 19.43 24.5607 19.43C24.561 19.43 24.5613 19.43 24.5616 19.43C24.5618 19.43 24.5621 19.43 24.5624 19.43C24.5626 19.43 24.5629 19.43 24.5632 19.43C24.5635 19.43 24.5637 19.43 24.564 19.43C24.5643 19.43 24.5645 19.43 24.5648 19.43C24.5651 19.43 24.5653 19.43 24.5656 19.43C24.5659 19.43 24.5662 19.43 24.5664 19.43C24.5667 19.43 24.567 19.43 24.5672 19.43C24.5675 19.43 24.5678 19.43 24.568 19.43C24.5683 19.43 24.5686 19.43 24.5689 19.43C24.5691 19.43 24.5694 19.43 24.5697 19.43C24.5699 19.43 24.5702 19.43 24.5705 19.43C24.5707 19.43 24.571 19.43 24.5713 19.43C24.5716 19.43 24.5718 19.43 24.5721 19.43C24.5724 19.43 24.5726 19.43 24.5729 19.43C24.5732 19.43 24.5734 19.43 24.5737 19.43C24.574 19.43 24.5742 19.43 24.5745 19.43C24.5748 19.43 24.5751 19.43 24.5753 19.43C24.5756 19.43 24.5759 19.43 24.5761 19.43C24.5764 19.43 24.5767 19.43 24.5769 19.43C24.5772 19.43 24.5775 19.43 24.5777 19.43C24.578 19.43 24.5783 19.43 24.5786 19.43C24.5788 19.43 24.5791 19.43 24.5794 19.43C24.5796 19.43 24.5799 19.43 24.5802 19.43C24.5804 19.43 24.5807 19.43 24.581 19.43C24.5812 19.43 24.5815 19.43 24.5818 19.43C24.582 19.43 24.5823 19.43 24.5826 19.43C24.5828 19.43 24.5831 19.43 24.5834 19.43C24.5837 19.43 24.5839 19.43 24.5842 19.43C24.5845 19.43 24.5847 19.43 24.585 19.43C24.5853 19.43 24.5855 19.43 24.5858 19.43C24.5861 19.43 24.5863 19.43 24.5866 19.43C24.5869 19.43 24.5871 19.43 24.5874 19.43C24.5877 19.43 24.5879 19.43 24.5882 19.43C24.5885 19.43 24.5887 19.43 24.589 19.43C24.5893 19.43 24.5895 19.43 24.5898 19.43C24.5901 19.43 24.5903 19.43 24.5906 19.43C24.5909 19.43 24.5911 19.43 24.5914 19.43C24.5917 19.43 24.592 19.43 24.5922 19.43C24.5925 19.43 24.5928 19.43 24.593 19.43C24.5933 19.43 24.5936 19.43 24.5938 19.43C24.5941 19.43 24.5944 19.43 24.5946 19.43C24.5949 19.43 24.5952 19.43 24.5954 19.43C24.5957 19.43 24.596 19.43 24.5962 19.43C24.5965 19.43 24.5968 19.43 24.597 19.43C24.5973 19.43 24.5976 19.43 24.5978 19.43C24.5981 19.43 24.5983 19.43 24.5986 19.43C24.5989 19.43 24.5991 19.43 24.5994 19.43C24.5997 19.43 24.5999 19.43 24.6002 19.43C24.6005 19.43 24.6007 19.43 24.601 19.43C24.6013 19.43 24.6015 19.43 24.6018 19.43C24.6021 19.43 24.6023 19.43 24.6026 19.43C24.6029 19.43 24.6031 19.43 24.6034 19.43C24.6037 19.43 24.6039 19.43 24.6042 19.43C24.6045 19.43 24.6047 19.43 24.605 19.43C24.6053 19.43 24.6055 19.43 24.6058 19.43C24.606 19.43 24.6063 19.43 24.6066 19.43C24.6068 19.43 24.6071 19.43 24.6074 19.43C24.6076 19.43 24.6079 19.43 24.6082 19.43C24.6084 19.43 24.6087 19.43 24.609 19.43C24.6092 19.43 24.6095 19.43 24.6098 19.43C24.61 19.43 24.6103 19.43 24.6105 19.43C24.6108 19.43 24.6111 19.43 24.6113 19.43C24.6116 19.43 24.6119 19.43 24.6121 19.43C24.6124 19.43 24.6127 19.43 24.6129 19.43C24.6132 19.43 24.6134 19.43 24.6137 19.43C24.614 19.43 24.6142 19.43 24.6145 19.43C24.6148 19.43 24.615 19.43 24.6153 19.43C24.6156 19.43 24.6158 19.43 24.6161 19.43C24.6163 19.43 24.6166 19.43 24.6169 19.43C24.6171 19.43 24.6174 19.43 24.6177 19.43C24.6179 19.43 24.6182 19.43 24.6184 19.43C24.6187 19.43 24.619 19.43 24.6192 19.43C24.6195 19.43 24.6198 19.43 24.62 19.43C24.6203 19.43 24.6205 19.43 24.6208 19.43C24.6211 19.43 24.6213 19.43 24.6216 19.43C24.6219 19.43 24.6221 19.43 24.6224 19.43C24.6226 19.43 24.6229 19.43 24.6232 19.43C24.6234 19.43 24.6237 19.43 24.6239 19.43C24.6242 19.43 24.6245 19.43 24.6247 19.43C24.625 19.43 24.6253 19.43 24.6255 19.43C24.6258 19.43 24.626 19.43 24.6263 19.43C24.6266 19.43 24.6268 19.43 24.6271 19.43C24.6273 19.43 24.6276 19.43 24.6279 19.43C24.6281 19.43 24.6284 19.43 24.6286 19.43C24.6289 19.43 24.6292 19.43 24.6294 19.43C24.6297 19.43 24.6299 19.43 24.6302 19.43C24.6305 19.43 24.6307 19.43 24.631 19.43C24.6313 19.43 24.6315 19.43 24.6318 19.43C24.632 19.43 24.6323 19.43 24.6325 19.43C24.6328 19.43 24.6331 19.43 24.6333 19.43C24.6336 19.43 24.6338 19.43 24.6341 19.43C24.6344 19.43 24.6346 19.43 24.6349 19.43C24.6351 19.43 24.6354 19.43 24.6357 19.43C24.6359 19.43 24.6362 19.43 24.6364 19.43C24.6367 19.43 24.637 19.43 24.6372 19.43C24.6375 19.43 24.6377 19.43 24.638 19.43C24.6383 19.43 24.6385 19.43 24.6388 19.43C24.639 19.43 24.6393 19.43 24.6395 19.43C24.6398 19.43 24.6401 19.43 24.6403 19.43C24.6406 19.43 24.6408 19.43 24.6411 19.43C24.6413 19.43 24.6416 19.43 24.6419 19.43C24.6421 19.43 24.6424 19.43 24.6426 19.43C24.6429 19.43 24.6432 19.43 24.6434 19.43C24.6437 19.43 24.6439 19.43 24.6442 19.43C24.6444 19.43 24.6447 19.43 24.645 19.43C24.6452 19.43 24.6455 19.43 24.6457 19.43C24.646 19.43 24.6462 19.43 24.6465 19.43C24.6467 19.43 24.647 19.43 24.6473 19.43C24.6475 19.43 24.6478 19.43 24.648 19.43C24.6483 19.43 24.6485 19.43 24.6488 19.43C24.6491 19.43 24.6493 19.43 24.6496 19.43C24.6498 19.43 24.6501 19.43 24.6503 19.43C24.6506 19.43 24.6508 19.43 24.6511 19.43C24.6514 19.43 24.6516 19.43 24.6519 19.43C24.6521 19.43 24.6524 19.43 24.6526 19.43C24.6529 19.43 24.6531 19.43 24.6534 19.43C24.6536 19.43 24.6539 19.43 24.6542 19.43C24.6544 19.43 24.6547 19.43 24.6549 19.43C24.6552 19.43 24.6554 19.43 24.6557 19.43C24.6559 19.43 24.6562 19.43 24.6564 19.43C24.6567 19.43 24.657 19.43 24.6572 19.43C24.6575 19.43 24.6577 19.43 24.658 19.43C24.6582 19.43 24.6585 19.43 24.6587 19.43C24.659 19.43 24.6592 19.43 24.6595 19.43C24.6597 19.43 24.66 19.43 24.6602 19.43C24.6605 19.43 24.6608 19.43 24.661 19.43C24.6613 19.43 24.6615 19.43 24.6618 19.43C24.662 19.43 24.6623 19.43 24.6625 19.43C24.6628 19.43 24.663 19.43 24.6633 19.43C24.6635 19.43 24.6638 19.43 24.664 19.43C24.6643 19.43 24.6645 19.43 24.6648 19.43C24.665 19.43 24.6653 19.43 24.6655 19.43C24.6658 19.43 24.6661 19.43 24.6663 19.43C24.6666 19.43 24.6668 19.43 24.6671 19.43C24.6673 19.43 24.6676 19.43 24.6678 19.43C24.6681 19.43 24.6683 19.43 24.6686 19.43C24.6688 19.43 24.6691 19.43 24.6693 19.43C24.6696 19.43 24.6698 19.43 24.6701 19.43C24.6703 19.43 24.6706 19.43 24.6708 19.43C24.6711 19.43 24.6713 19.43 24.6716 19.43C24.6718 19.43 24.6721 19.43 24.6723 19.43C24.6726 19.43 24.6728 19.43 24.6731 19.43C24.6733 19.43 24.6736 19.43 24.6738 19.43C24.6741 19.43 24.6743 19.43 24.6746 19.43C24.6748 19.43 24.6751 19.43 24.6753 19.43C24.6756 19.43 24.6758 19.43 24.676 19.43C24.6763 19.43 24.6765 19.43 24.6768 19.43C24.677 19.43 24.6773 19.43 24.6775 19.43C24.6778 19.43 24.678 19.43 24.6783 19.43C24.6785 19.43 24.6788 19.43 24.679 19.43C24.6793 19.43 24.6795 19.43 24.6798 19.43C24.68 19.43 24.6803 19.43 24.6805 19.43C24.6808 19.43 24.681 19.43 24.6812 19.43C24.6815 19.43 24.6817 19.43 24.682 19.43C24.6822 19.43 24.6825 19.43 24.6827 19.43C24.683 19.43 24.6832 19.43 24.6835 19.43C24.6837 19.43 24.684 19.43 24.6842 19.43C24.6844 19.43 24.6847 19.43 24.6849 19.43C24.6852 19.43 24.6854 19.43 24.6857 19.43C24.6859 19.43 24.6862 19.43 24.6864 19.43C24.6867 19.43 24.6869 19.43 24.6871 19.43C24.6874 19.43 24.6876 19.43 24.6879 19.43C24.6881 19.43 24.6884 19.43 24.6886 19.43C24.6889 19.43 24.6891 19.43 24.6893 19.43C24.6896 19.43 24.6898 19.43 24.6901 19.43C24.6903 19.43 24.6906 19.43 24.6908 19.43C24.6911 19.43 24.6913 19.43 24.6915 19.43C24.6918 19.43 24.692 19.43 24.6923 19.43C24.6925 19.43 24.6928 19.43 24.693 19.43C24.6932 19.43 24.6935 19.43 24.6937 19.43C24.694 19.43 24.6942 19.43 24.6945 19.43C24.6947 19.43 24.6949 19.43 24.6952 19.43C24.6954 19.43 24.6957 19.43 24.6959 19.43C24.6962 19.43 24.6964 19.43 24.6966 19.43C24.6969 19.43 24.6971 19.43 24.6974 19.43C24.6976 19.43 24.6978 19.43 24.6981 19.43C24.6983 19.43 24.6986 19.43 24.6988 19.43C24.699 19.43 24.6993 19.43 24.6995 19.43C24.6998 19.43 24.7 19.43 24.7002 19.43C24.7005 19.43 24.7007 19.43 24.701 19.43C24.7012 19.43 24.7014 19.43 24.7017 19.43C24.7019 19.43 24.7022 19.43 24.7024 19.43C24.7026 19.43 24.7029 19.43 24.7031 19.43C24.7034 19.43 24.7036 19.43 24.7038 19.43C24.7041 19.43 24.7043 19.43 24.7046 19.43C24.7048 19.43 24.705 19.43 24.7053 19.43C24.7055 19.43 24.7058 19.43 24.706 19.43C24.7062 19.43 24.7065 19.43 24.7067 19.43C24.7069 19.43 24.7072 19.43 24.7074 19.43C24.7077 19.43 24.7079 19.43 24.7081 19.43C24.7084 19.43 24.7086 19.43 24.7088 19.43C24.7091 19.43 24.7093 19.43 24.7096 19.43C24.7098 19.43 24.71 19.43 24.7103 19.43C24.7105 19.43 24.7107 19.43 24.711 19.43C24.7112 19.43 24.7114 19.43 24.7117 19.43C24.7119 19.43 24.7122 19.43 24.7124 19.43C24.7126 19.43 24.7129 19.43 24.7131 19.43C24.7133 19.43 24.7136 19.43 24.7138 19.43C24.714 19.43 24.7143 19.43 24.7145 19.43C24.7147 19.43 24.715 19.43 24.7152 19.43C24.7154 19.43 24.7157 19.43 24.7159 19.43C24.7161 19.43 24.7164 19.43 24.7166 19.43C24.7169 19.43 24.7171 19.43 24.7173 19.43C24.7176 19.43 24.7178 19.43 24.718 19.43C24.7183 19.43 24.7185 19.43 24.7187 19.43C24.719 19.43 24.7192 19.43 24.7194 19.43C24.7196 19.43 24.7199 19.43 24.7201 19.43C24.7203 19.43 24.7206 19.43 24.7208 19.43C24.721 19.43 24.7213 19.43 24.7215 19.43C24.7217 19.43 24.722 19.43 24.7222 19.43C24.7224 19.43 24.7227 19.43 24.7229 19.43C24.7231 19.43 24.7234 19.43 24.7236 19.43C24.7238 19.43 24.7241 19.43 24.7243 19.43C24.7245 19.43 24.7247 19.43 24.725 19.43C24.7252 19.43 24.7254 19.43 24.7257 19.43C24.7259 19.43 24.7261 19.43 24.7264 19.43C24.7266 19.43 24.7268 19.43 24.727 19.43C24.7273 19.43 24.7275 19.43 24.7277 19.43C24.728 19.43 24.7282 19.43 24.7284 19.43C24.7287 19.43 24.7289 19.43 24.7291 19.43C24.7293 19.43 24.7296 19.43 24.7298 19.43C24.73 19.43 24.7303 19.43 24.7305 19.43C24.7307 19.43 24.7309 19.43 24.7312 19.43C24.7314 19.43 24.7316 19.43 24.7318 19.43C24.7321 19.43 24.7323 19.43 24.7325 19.43C24.7328 19.43 24.733 19.43 24.7332 19.43C24.7334 19.43 24.7337 19.43 24.7339 19.43C24.7341 19.43 24.7343 19.43 24.7346 19.43C24.7348 19.43 24.735 19.43 24.7352 19.43C24.7355 19.43 24.7357 19.43 24.7359 19.43C24.7361 19.43 24.7364 19.43 24.7366 19.43C24.7368 19.43 24.737 19.43 24.7373 19.43C24.7375 19.43 24.7377 19.43 24.7379 19.43C24.7382 19.43 24.7384 19.43 24.7386 19.43C24.7388 19.43 24.7391 19.43 24.7393 19.43C24.7395 19.43 24.7397 19.43 24.74 19.43C24.7402 19.43 24.7404 19.43 24.7406 19.43C24.7409 19.43 24.7411 19.43 24.7413 19.43C24.7415 19.43 24.7418 19.43 24.742 19.43C24.7422 19.43 24.7424 19.43 24.7426 19.43C24.7429 19.43 24.7431 19.43 24.7433 19.43C24.7435 19.43 24.7438 19.43 24.744 19.43C24.7442 19.43 24.7444 19.43 24.7446 19.43C24.7449 19.43 24.7451 19.43 24.7453 19.43C24.7455 19.43 24.7457 19.43 24.746 19.43C24.7462 19.43 24.7464 19.43 24.7466 19.43C24.7468 19.43 24.7471 19.43 24.7473 19.43C24.7475 19.43 24.7477 19.43 24.7479 19.43C24.7482 19.43 24.7484 19.43 24.7486 19.43C24.7488 19.43 24.749 19.43 24.7493 19.43C24.7495 19.43 24.7497 19.43 24.7499 19.43C24.7501 19.43 24.7504 19.43 24.7506 19.43C24.7508 19.43 24.751 19.43 24.7512 19.43C24.7514 19.43 24.7517 19.43 24.7519 19.43C24.7521 19.43 24.7523 19.43 24.7525 19.43C24.7528 19.43 24.753 19.43 24.7532 19.43C24.7534 19.43 24.7536 19.43 24.7538 19.43C24.7541 19.43 24.7543 19.43 24.7545 19.43C24.7547 19.43 24.7549 19.43 24.7551 19.43C24.7554 19.43 24.7556 19.43 24.7558 19.43C24.756 19.43 24.7562 19.43 24.7564 19.43C24.7566 19.43 24.7569 19.43 24.7571 19.43C24.7573 19.43 24.7575 19.43 24.7577 19.43C24.7579 19.43 24.7581 19.43 24.7584 19.43C24.7586 19.43 24.7588 19.43 24.759 19.43C24.7592 19.43 24.7594 19.43 24.7596 19.43C24.7599 19.43 24.7601 19.43 24.7603 19.43C24.7605 19.43 24.7607 19.43 24.7609 19.43C24.7611 19.43 24.7613 19.43 24.7616 19.43C24.7618 19.43 24.762 19.43 24.7622 19.43C24.7624 19.43 24.7626 19.43 24.7628 19.43C24.763 19.43 24.7633 19.43 24.7635 19.43C24.7637 19.43 24.7639 19.43 24.7641 19.43C24.7643 19.43 24.7645 19.43 24.7647 19.43C24.7649 19.43 24.7652 19.43 24.7654 19.43C24.7656 19.43 24.7658 19.43 24.766 19.43C24.7662 19.43 24.7664 19.43 24.7666 19.43C24.7668 19.43 24.767 19.43 24.7673 19.43C24.7675 19.43 24.7677 19.43 24.7679 19.43C24.7681 19.43 24.7683 19.43 24.7685 19.43C24.7687 19.43 24.7689 19.43 24.7691 19.43C24.7693 19.43 24.7695 19.43 24.7698 19.43C24.77 19.43 24.7702 19.43 24.7704 19.43C24.7706 19.43 24.7708 19.43 24.771 19.43C24.7712 19.43 24.7714 19.43 24.7716 19.43C24.7718 19.43 24.772 19.43 24.7722 19.43C24.7724 19.43 24.7727 19.43 24.7729 19.43C24.7731 19.43 24.7733 19.43 24.7735 19.43C24.7737 19.43 24.7739 19.43 24.7741 19.43C24.7743 19.43 24.7745 19.43 24.7747 19.43C24.7749 19.43 24.7751 19.43 24.7753 19.43C24.7755 19.43 24.7757 19.43 24.7759 19.43C24.7761 19.43 24.7763 19.43 24.7765 19.43C24.7767 19.43 24.7769 19.43 24.7772 19.43C24.7774 19.43 24.7776 19.43 24.7778 19.43C24.778 19.43 24.7782 19.43 24.7784 19.43C24.7786 19.43 24.7788 19.43 24.779 19.43C24.7792 19.43 24.7794 19.43 24.7796 19.43C24.7798 19.43 24.78 19.43 24.7802 19.43C24.7804 19.43 24.7806 19.43 24.7808 19.43C24.781 19.43 24.7812 19.43 24.7814 19.43C24.7816 19.43 24.7818 19.43 24.782 19.43C24.7822 19.43 24.7824 19.43 24.7826 19.43C24.7828 19.43 24.783 19.43 24.7832 19.43C24.7834 19.43 24.7836 19.43 24.7838 19.43C24.784 19.43 24.7842 19.43 24.7844 19.43C24.7846 19.43 24.7848 19.43 24.785 19.43C24.7852 19.43 24.7854 19.43 24.7856 19.43C24.7858 19.43 24.786 19.43 24.7862 19.43C24.7864 19.43 24.7866 19.43 24.7868 19.43C24.787 19.43 24.7871 19.43 24.7873 19.43C24.7875 19.43 24.7877 19.43 24.7879 19.43C24.7881 19.43 24.7883 19.43 24.7885 19.43C24.7887 19.43 24.7889 19.43 24.7891 19.43C24.7893 19.43 24.7895 19.43 24.7897 19.43C24.7899 19.43 24.7901 19.43 24.7903 19.43C24.7905 19.43 24.7907 19.43 24.7909 19.43C24.7911 19.43 24.7912 19.43 24.7914 19.43C24.7916 19.43 24.7918 19.43 24.792 19.43C24.7922 19.43 24.7924 19.43 24.7926 19.43C24.7928 19.43 24.793 19.43 24.7932 19.43C24.7934 19.43 24.7936 19.43 24.7938 19.43C24.7939 19.43 24.7941 19.43 24.7943 19.43C24.7945 19.43 24.7947 19.43 24.7949 19.43C24.7951 19.43 24.7953 19.43 24.7955 19.43C24.7957 19.43 24.7959 19.43 24.7961 19.43C24.7962 19.43 24.7964 19.43 24.7966 19.43C24.7968 19.43 24.797 19.43 24.7972 19.43C24.7974 19.43 24.7976 19.43 24.7978 19.43C24.7979 19.43 24.7981 19.43 24.7983 19.43C24.7985 19.43 24.7987 19.43 24.7989 19.43C24.7991 19.43 24.7993 19.43 24.7995 19.43C24.7996 19.43 24.7998 19.43 24.8 19.43C24.8002 19.43 24.8004 19.43 24.8006 19.43C24.8008 19.43 24.801 19.43 24.8011 19.43C24.8013 19.43 24.8015 19.43 24.8017 19.43C24.8019 19.43 24.8021 19.43 24.8023 19.43C24.8024 19.43 24.8026 19.43 24.8028 19.43C24.803 19.43 24.8032 19.43 24.8034 19.43C24.8036 19.43 24.8037 19.43 24.8039 19.43C24.8041 19.43 24.8043 19.43 24.8045 19.43C24.8047 19.43 24.8048 19.43 24.805 19.43C24.8052 19.43 24.8054 19.43 24.8056 19.43C24.8058 19.43 24.8059 19.43 24.8061 19.43C24.8063 19.43 24.8065 19.43 24.8067 19.43C24.8069 19.43 24.807 19.43 24.8072 19.43C24.8074 19.43 24.8076 19.43 24.8078 19.43C24.8079 19.43 24.8081 19.43 24.8083 19.43C24.8085 19.43 24.8087 19.43 24.8089 19.43C24.809 19.43 24.8092 19.43 24.8094 19.43C24.8096 19.43 24.8098 19.43 24.8099 19.43C24.8101 19.43 24.8103 19.43 24.8105 19.43C24.8107 19.43 24.8108 19.43 24.811 19.43C24.8112 19.43 24.8114 19.43 24.8115 19.43C24.8117 19.43 24.8119 19.43 24.8121 19.43C24.8123 19.43 24.8124 19.43 24.8126 19.43C24.8128 19.43 24.813 19.43 24.8131 19.43C24.8133 19.43 24.8135 19.43 24.8137 19.43C24.8139 19.43 24.814 19.43 24.8142 19.43C24.8144 19.43 24.8146 19.43 24.8147 19.43C24.8149 19.43 24.8151 19.43 24.8153 19.43C24.8154 19.43 24.8156 19.43 24.8158 19.43C24.816 19.43 24.8161 19.43 24.8163 19.43C24.8165 19.43 24.8167 19.43 24.8168 19.43C24.817 19.43 24.8172 19.43 24.8173 19.43C24.8175 19.43 24.8177 19.43 24.8179 19.43C24.818 19.43 24.8182 19.43 24.8184 19.43C24.8186 19.43 24.8187 19.43 24.8189 19.43C24.8191 19.43 24.8192 19.43 24.8194 19.43C24.8196 19.43 24.8198 19.43 24.8199 19.43C24.8201 19.43 24.8203 19.43 24.8204 19.43C24.8206 19.43 24.8208 19.43 24.821 19.43C24.8211 19.43 24.8213 19.43 24.8215 19.43C24.8216 19.43 24.8218 19.43 24.822 19.43C24.8221 19.43 24.8223 19.43 24.8225 19.43C24.8227 19.43 24.8228 19.43 24.823 19.43C24.8232 19.43 24.8233 19.43 24.8235 19.43C24.8237 19.43 24.8238 19.43 24.824 19.43C24.8242 19.43 24.8243 19.43 24.8245 19.43C24.8247 19.43 24.8248 19.43 24.825 19.43C24.8252 19.43 24.8253 19.43 24.8255 19.43C24.8257 19.43 24.8258 19.43 24.826 19.43C24.8262 19.43 24.8263 19.43 24.8265 19.43C24.8267 19.43 24.8268 19.43 24.827 19.43C24.8271 19.43 24.8273 19.43 24.8275 19.43C24.8276 19.43 24.8278 19.43 24.828 19.43C24.8281 19.43 24.8283 19.43 24.8285 19.43C24.8286 19.43 24.8288 19.43 24.8289 19.43C24.8291 19.43 24.8293 19.43 24.8294 19.43C24.8296 19.43 24.8298 19.43 24.8299 19.43C24.8301 19.43 24.8302 19.43 24.8304 19.43C24.8306 19.43 24.8307 19.43 24.8309 19.43C24.831 19.43 24.8312 19.43 24.8314 19.43C24.8315 19.43 24.8317 19.43 24.8318 19.43C24.832 19.43 24.8322 19.43 24.8323 19.43C24.8325 19.43 24.8326 19.43 24.8328 19.43C24.833 19.43 24.8331 19.43 24.8333 19.43C24.8334 19.43 24.8336 19.43 24.8337 19.43C24.8339 19.43 24.8341 19.43 24.8342 19.43C24.8344 19.43 24.8345 19.43 24.8347 19.43C24.8348 19.43 24.835 19.43 24.8352 19.43C24.8353 19.43 24.8355 19.43 24.8356 19.43C24.8358 19.43 24.8359 19.43 24.8361 19.43C24.8363 19.43 24.8364 19.43 24.8366 19.43C24.8367 19.43 24.8369 19.43 24.837 19.43C24.8372 19.43 24.8373 19.43 24.8375 19.43C24.8376 19.43 24.8378 19.43 24.8379 19.43C24.8381 19.43 24.8383 19.43 24.8384 19.43C24.8386 19.43 24.8387 19.43 24.8389 19.43C24.839 19.43 24.8392 19.43 24.8393 19.43C24.8395 19.43 24.8396 19.43 24.8398 19.43C24.8399 19.43 24.8401 19.43 24.8402 19.43C24.8404 19.43 24.8405 19.43 24.8407 19.43C24.8408 19.43 24.841 19.43 24.8411 19.43C24.8413 19.43 24.8414 19.43 24.8416 19.43C24.8417 19.43 24.8419 19.43 24.842 19.43C24.8422 19.43 24.8423 19.43 24.8425 19.43C24.8426 19.43 24.8428 19.43 24.8429 19.43C24.8431 19.43 24.8432 19.43 24.8434 19.43C24.8435 19.43 24.8437 19.43 24.8438 19.43C24.8439 19.43 24.8441 19.43 24.8442 19.43C24.8444 19.43 24.8445 19.43 24.8447 19.43C24.8448 19.43 24.845 19.43 24.8451 19.43C24.8453 19.43 24.8454 19.43 24.8455 19.43C24.8457 19.43 24.8458 19.43 24.846 19.43C24.8461 19.43 24.8463 19.43 24.8464 19.43C24.8466 19.43 24.8467 19.43 24.8468 19.43C24.847 19.43 24.8471 19.43 24.8473 19.43C24.8474 19.43 24.8476 19.43 24.8477 19.43C24.8478 19.43 24.848 19.43 24.8481 19.43C24.8483 19.43 24.8484 19.43 24.8485 19.43C24.8487 19.43 24.8488 19.43 24.849 19.43C24.8491 19.43 24.8492 19.43 24.8494 19.43C24.8495 19.43 24.8497 19.43 24.8498 19.43C24.8499 19.43 24.8501 19.43 24.8502 19.43C24.8504 19.43 24.8505 19.43 24.8506 19.43C24.8508 19.43 24.8509 19.43 24.8511 19.43C24.8512 19.43 24.8513 19.43 24.8515 19.43C24.8516 19.43 24.8517 19.43 24.8519 19.43V15.43C24.8517 15.43 24.8516 15.43 24.8515 15.43C24.8513 15.43 24.8512 15.43 24.8511 15.43C24.8509 15.43 24.8508 15.43 24.8506 15.43C24.8505 15.43 24.8504 15.43 24.8502 15.43C24.8501 15.43 24.8499 15.43 24.8498 15.43C24.8497 15.43 24.8495 15.43 24.8494 15.43C24.8492 15.43 24.8491 15.43 24.849 15.43C24.8488 15.43 24.8487 15.43 24.8485 15.43C24.8484 15.43 24.8483 15.43 24.8481 15.43C24.848 15.43 24.8478 15.43 24.8477 15.43C24.8476 15.43 24.8474 15.43 24.8473 15.43C24.8471 15.43 24.847 15.43 24.8468 15.43C24.8467 15.43 24.8466 15.43 24.8464 15.43C24.8463 15.43 24.8461 15.43 24.846 15.43C24.8458 15.43 24.8457 15.43 24.8455 15.43C24.8454 15.43 24.8453 15.43 24.8451 15.43C24.845 15.43 24.8448 15.43 24.8447 15.43C24.8445 15.43 24.8444 15.43 24.8442 15.43C24.8441 15.43 24.8439 15.43 24.8438 15.43C24.8437 15.43 24.8435 15.43 24.8434 15.43C24.8432 15.43 24.8431 15.43 24.8429 15.43C24.8428 15.43 24.8426 15.43 24.8425 15.43C24.8423 15.43 24.8422 15.43 24.842 15.43C24.8419 15.43 24.8417 15.43 24.8416 15.43C24.8414 15.43 24.8413 15.43 24.8411 15.43C24.841 15.43 24.8408 15.43 24.8407 15.43C24.8405 15.43 24.8404 15.43 24.8402 15.43C24.8401 15.43 24.8399 15.43 24.8398 15.43C24.8396 15.43 24.8395 15.43 24.8393 15.43C24.8392 15.43 24.839 15.43 24.8389 15.43C24.8387 15.43 24.8386 15.43 24.8384 15.43C24.8383 15.43 24.8381 15.43 24.8379 15.43C24.8378 15.43 24.8376 15.43 24.8375 15.43C24.8373 15.43 24.8372 15.43 24.837 15.43C24.8369 15.43 24.8367 15.43 24.8366 15.43C24.8364 15.43 24.8363 15.43 24.8361 15.43C24.8359 15.43 24.8358 15.43 24.8356 15.43C24.8355 15.43 24.8353 15.43 24.8352 15.43C24.835 15.43 24.8348 15.43 24.8347 15.43C24.8345 15.43 24.8344 15.43 24.8342 15.43C24.8341 15.43 24.8339 15.43 24.8337 15.43C24.8336 15.43 24.8334 15.43 24.8333 15.43C24.8331 15.43 24.833 15.43 24.8328 15.43C24.8326 15.43 24.8325 15.43 24.8323 15.43C24.8322 15.43 24.832 15.43 24.8318 15.43C24.8317 15.43 24.8315 15.43 24.8314 15.43C24.8312 15.43 24.831 15.43 24.8309 15.43C24.8307 15.43 24.8306 15.43 24.8304 15.43C24.8302 15.43 24.8301 15.43 24.8299 15.43C24.8298 15.43 24.8296 15.43 24.8294 15.43C24.8293 15.43 24.8291 15.43 24.8289 15.43C24.8288 15.43 24.8286 15.43 24.8285 15.43C24.8283 15.43 24.8281 15.43 24.828 15.43C24.8278 15.43 24.8276 15.43 24.8275 15.43C24.8273 15.43 24.8271 15.43 24.827 15.43C24.8268 15.43 24.8267 15.43 24.8265 15.43C24.8263 15.43 24.8262 15.43 24.826 15.43C24.8258 15.43 24.8257 15.43 24.8255 15.43C24.8253 15.43 24.8252 15.43 24.825 15.43C24.8248 15.43 24.8247 15.43 24.8245 15.43C24.8243 15.43 24.8242 15.43 24.824 15.43C24.8238 15.43 24.8237 15.43 24.8235 15.43C24.8233 15.43 24.8232 15.43 24.823 15.43C24.8228 15.43 24.8227 15.43 24.8225 15.43C24.8223 15.43 24.8221 15.43 24.822 15.43C24.8218 15.43 24.8216 15.43 24.8215 15.43C24.8213 15.43 24.8211 15.43 24.821 15.43C24.8208 15.43 24.8206 15.43 24.8204 15.43C24.8203 15.43 24.8201 15.43 24.8199 15.43C24.8198 15.43 24.8196 15.43 24.8194 15.43C24.8192 15.43 24.8191 15.43 24.8189 15.43C24.8187 15.43 24.8186 15.43 24.8184 15.43C24.8182 15.43 24.818 15.43 24.8179 15.43C24.8177 15.43 24.8175 15.43 24.8173 15.43C24.8172 15.43 24.817 15.43 24.8168 15.43C24.8167 15.43 24.8165 15.43 24.8163 15.43C24.8161 15.43 24.816 15.43 24.8158 15.43C24.8156 15.43 24.8154 15.43 24.8153 15.43C24.8151 15.43 24.8149 15.43 24.8147 15.43C24.8146 15.43 24.8144 15.43 24.8142 15.43C24.814 15.43 24.8139 15.43 24.8137 15.43C24.8135 15.43 24.8133 15.43 24.8131 15.43C24.813 15.43 24.8128 15.43 24.8126 15.43C24.8124 15.43 24.8123 15.43 24.8121 15.43C24.8119 15.43 24.8117 15.43 24.8115 15.43C24.8114 15.43 24.8112 15.43 24.811 15.43C24.8108 15.43 24.8107 15.43 24.8105 15.43C24.8103 15.43 24.8101 15.43 24.8099 15.43C24.8098 15.43 24.8096 15.43 24.8094 15.43C24.8092 15.43 24.809 15.43 24.8089 15.43C24.8087 15.43 24.8085 15.43 24.8083 15.43C24.8081 15.43 24.8079 15.43 24.8078 15.43C24.8076 15.43 24.8074 15.43 24.8072 15.43C24.807 15.43 24.8069 15.43 24.8067 15.43C24.8065 15.43 24.8063 15.43 24.8061 15.43C24.8059 15.43 24.8058 15.43 24.8056 15.43C24.8054 15.43 24.8052 15.43 24.805 15.43C24.8048 15.43 24.8047 15.43 24.8045 15.43C24.8043 15.43 24.8041 15.43 24.8039 15.43C24.8037 15.43 24.8036 15.43 24.8034 15.43C24.8032 15.43 24.803 15.43 24.8028 15.43C24.8026 15.43 24.8024 15.43 24.8023 15.43C24.8021 15.43 24.8019 15.43 24.8017 15.43C24.8015 15.43 24.8013 15.43 24.8011 15.43C24.801 15.43 24.8008 15.43 24.8006 15.43C24.8004 15.43 24.8002 15.43 24.8 15.43C24.7998 15.43 24.7996 15.43 24.7995 15.43C24.7993 15.43 24.7991 15.43 24.7989 15.43C24.7987 15.43 24.7985 15.43 24.7983 15.43C24.7981 15.43 24.7979 15.43 24.7978 15.43C24.7976 15.43 24.7974 15.43 24.7972 15.43C24.797 15.43 24.7968 15.43 24.7966 15.43C24.7964 15.43 24.7962 15.43 24.7961 15.43C24.7959 15.43 24.7957 15.43 24.7955 15.43C24.7953 15.43 24.7951 15.43 24.7949 15.43C24.7947 15.43 24.7945 15.43 24.7943 15.43C24.7941 15.43 24.7939 15.43 24.7938 15.43C24.7936 15.43 24.7934 15.43 24.7932 15.43C24.793 15.43 24.7928 15.43 24.7926 15.43C24.7924 15.43 24.7922 15.43 24.792 15.43C24.7918 15.43 24.7916 15.43 24.7914 15.43C24.7912 15.43 24.7911 15.43 24.7909 15.43C24.7907 15.43 24.7905 15.43 24.7903 15.43C24.7901 15.43 24.7899 15.43 24.7897 15.43C24.7895 15.43 24.7893 15.43 24.7891 15.43C24.7889 15.43 24.7887 15.43 24.7885 15.43C24.7883 15.43 24.7881 15.43 24.7879 15.43C24.7877 15.43 24.7875 15.43 24.7873 15.43C24.7871 15.43 24.787 15.43 24.7868 15.43C24.7866 15.43 24.7864 15.43 24.7862 15.43C24.786 15.43 24.7858 15.43 24.7856 15.43C24.7854 15.43 24.7852 15.43 24.785 15.43C24.7848 15.43 24.7846 15.43 24.7844 15.43C24.7842 15.43 24.784 15.43 24.7838 15.43C24.7836 15.43 24.7834 15.43 24.7832 15.43C24.783 15.43 24.7828 15.43 24.7826 15.43C24.7824 15.43 24.7822 15.43 24.782 15.43C24.7818 15.43 24.7816 15.43 24.7814 15.43C24.7812 15.43 24.781 15.43 24.7808 15.43C24.7806 15.43 24.7804 15.43 24.7802 15.43C24.78 15.43 24.7798 15.43 24.7796 15.43C24.7794 15.43 24.7792 15.43 24.779 15.43C24.7788 15.43 24.7786 15.43 24.7784 15.43C24.7782 15.43 24.778 15.43 24.7778 15.43C24.7776 15.43 24.7774 15.43 24.7772 15.43C24.7769 15.43 24.7767 15.43 24.7765 15.43C24.7763 15.43 24.7761 15.43 24.7759 15.43C24.7757 15.43 24.7755 15.43 24.7753 15.43C24.7751 15.43 24.7749 15.43 24.7747 15.43C24.7745 15.43 24.7743 15.43 24.7741 15.43C24.7739 15.43 24.7737 15.43 24.7735 15.43C24.7733 15.43 24.7731 15.43 24.7729 15.43C24.7727 15.43 24.7724 15.43 24.7722 15.43C24.772 15.43 24.7718 15.43 24.7716 15.43C24.7714 15.43 24.7712 15.43 24.771 15.43C24.7708 15.43 24.7706 15.43 24.7704 15.43C24.7702 15.43 24.77 15.43 24.7698 15.43C24.7695 15.43 24.7693 15.43 24.7691 15.43C24.7689 15.43 24.7687 15.43 24.7685 15.43C24.7683 15.43 24.7681 15.43 24.7679 15.43C24.7677 15.43 24.7675 15.43 24.7673 15.43C24.767 15.43 24.7668 15.43 24.7666 15.43C24.7664 15.43 24.7662 15.43 24.766 15.43C24.7658 15.43 24.7656 15.43 24.7654 15.43C24.7652 15.43 24.7649 15.43 24.7647 15.43C24.7645 15.43 24.7643 15.43 24.7641 15.43C24.7639 15.43 24.7637 15.43 24.7635 15.43C24.7633 15.43 24.763 15.43 24.7628 15.43C24.7626 15.43 24.7624 15.43 24.7622 15.43C24.762 15.43 24.7618 15.43 24.7616 15.43C24.7613 15.43 24.7611 15.43 24.7609 15.43C24.7607 15.43 24.7605 15.43 24.7603 15.43C24.7601 15.43 24.7599 15.43 24.7596 15.43C24.7594 15.43 24.7592 15.43 24.759 15.43C24.7588 15.43 24.7586 15.43 24.7584 15.43C24.7581 15.43 24.7579 15.43 24.7577 15.43C24.7575 15.43 24.7573 15.43 24.7571 15.43C24.7569 15.43 24.7566 15.43 24.7564 15.43C24.7562 15.43 24.756 15.43 24.7558 15.43C24.7556 15.43 24.7554 15.43 24.7551 15.43C24.7549 15.43 24.7547 15.43 24.7545 15.43C24.7543 15.43 24.7541 15.43 24.7538 15.43C24.7536 15.43 24.7534 15.43 24.7532 15.43C24.753 15.43 24.7528 15.43 24.7525 15.43C24.7523 15.43 24.7521 15.43 24.7519 15.43C24.7517 15.43 24.7514 15.43 24.7512 15.43C24.751 15.43 24.7508 15.43 24.7506 15.43C24.7504 15.43 24.7501 15.43 24.7499 15.43C24.7497 15.43 24.7495 15.43 24.7493 15.43C24.749 15.43 24.7488 15.43 24.7486 15.43C24.7484 15.43 24.7482 15.43 24.7479 15.43C24.7477 15.43 24.7475 15.43 24.7473 15.43C24.7471 15.43 24.7468 15.43 24.7466 15.43C24.7464 15.43 24.7462 15.43 24.746 15.43C24.7457 15.43 24.7455 15.43 24.7453 15.43C24.7451 15.43 24.7449 15.43 24.7446 15.43C24.7444 15.43 24.7442 15.43 24.744 15.43C24.7438 15.43 24.7435 15.43 24.7433 15.43C24.7431 15.43 24.7429 15.43 24.7426 15.43C24.7424 15.43 24.7422 15.43 24.742 15.43C24.7418 15.43 24.7415 15.43 24.7413 15.43C24.7411 15.43 24.7409 15.43 24.7406 15.43C24.7404 15.43 24.7402 15.43 24.74 15.43C24.7397 15.43 24.7395 15.43 24.7393 15.43C24.7391 15.43 24.7388 15.43 24.7386 15.43C24.7384 15.43 24.7382 15.43 24.7379 15.43C24.7377 15.43 24.7375 15.43 24.7373 15.43C24.737 15.43 24.7368 15.43 24.7366 15.43C24.7364 15.43 24.7361 15.43 24.7359 15.43C24.7357 15.43 24.7355 15.43 24.7352 15.43C24.735 15.43 24.7348 15.43 24.7346 15.43C24.7343 15.43 24.7341 15.43 24.7339 15.43C24.7337 15.43 24.7334 15.43 24.7332 15.43C24.733 15.43 24.7328 15.43 24.7325 15.43C24.7323 15.43 24.7321 15.43 24.7318 15.43C24.7316 15.43 24.7314 15.43 24.7312 15.43C24.7309 15.43 24.7307 15.43 24.7305 15.43C24.7303 15.43 24.73 15.43 24.7298 15.43C24.7296 15.43 24.7293 15.43 24.7291 15.43C24.7289 15.43 24.7287 15.43 24.7284 15.43C24.7282 15.43 24.728 15.43 24.7277 15.43C24.7275 15.43 24.7273 15.43 24.727 15.43C24.7268 15.43 24.7266 15.43 24.7264 15.43C24.7261 15.43 24.7259 15.43 24.7257 15.43C24.7254 15.43 24.7252 15.43 24.725 15.43C24.7247 15.43 24.7245 15.43 24.7243 15.43C24.7241 15.43 24.7238 15.43 24.7236 15.43C24.7234 15.43 24.7231 15.43 24.7229 15.43C24.7227 15.43 24.7224 15.43 24.7222 15.43C24.722 15.43 24.7217 15.43 24.7215 15.43C24.7213 15.43 24.721 15.43 24.7208 15.43C24.7206 15.43 24.7203 15.43 24.7201 15.43C24.7199 15.43 24.7196 15.43 24.7194 15.43C24.7192 15.43 24.719 15.43 24.7187 15.43C24.7185 15.43 24.7183 15.43 24.718 15.43C24.7178 15.43 24.7176 15.43 24.7173 15.43C24.7171 15.43 24.7169 15.43 24.7166 15.43C24.7164 15.43 24.7161 15.43 24.7159 15.43C24.7157 15.43 24.7154 15.43 24.7152 15.43C24.715 15.43 24.7147 15.43 24.7145 15.43C24.7143 15.43 24.714 15.43 24.7138 15.43C24.7136 15.43 24.7133 15.43 24.7131 15.43C24.7129 15.43 24.7126 15.43 24.7124 15.43C24.7122 15.43 24.7119 15.43 24.7117 15.43C24.7114 15.43 24.7112 15.43 24.711 15.43C24.7107 15.43 24.7105 15.43 24.7103 15.43C24.71 15.43 24.7098 15.43 24.7096 15.43C24.7093 15.43 24.7091 15.43 24.7088 15.43C24.7086 15.43 24.7084 15.43 24.7081 15.43C24.7079 15.43 24.7077 15.43 24.7074 15.43C24.7072 15.43 24.7069 15.43 24.7067 15.43C24.7065 15.43 24.7062 15.43 24.706 15.43C24.7058 15.43 24.7055 15.43 24.7053 15.43C24.705 15.43 24.7048 15.43 24.7046 15.43C24.7043 15.43 24.7041 15.43 24.7038 15.43C24.7036 15.43 24.7034 15.43 24.7031 15.43C24.7029 15.43 24.7026 15.43 24.7024 15.43C24.7022 15.43 24.7019 15.43 24.7017 15.43C24.7014 15.43 24.7012 15.43 24.701 15.43C24.7007 15.43 24.7005 15.43 24.7002 15.43C24.7 15.43 24.6998 15.43 24.6995 15.43C24.6993 15.43 24.699 15.43 24.6988 15.43C24.6986 15.43 24.6983 15.43 24.6981 15.43C24.6978 15.43 24.6976 15.43 24.6974 15.43C24.6971 15.43 24.6969 15.43 24.6966 15.43C24.6964 15.43 24.6962 15.43 24.6959 15.43C24.6957 15.43 24.6954 15.43 24.6952 15.43C24.6949 15.43 24.6947 15.43 24.6945 15.43C24.6942 15.43 24.694 15.43 24.6937 15.43C24.6935 15.43 24.6932 15.43 24.693 15.43C24.6928 15.43 24.6925 15.43 24.6923 15.43C24.692 15.43 24.6918 15.43 24.6915 15.43C24.6913 15.43 24.6911 15.43 24.6908 15.43C24.6906 15.43 24.6903 15.43 24.6901 15.43C24.6898 15.43 24.6896 15.43 24.6893 15.43C24.6891 15.43 24.6889 15.43 24.6886 15.43C24.6884 15.43 24.6881 15.43 24.6879 15.43C24.6876 15.43 24.6874 15.43 24.6871 15.43C24.6869 15.43 24.6867 15.43 24.6864 15.43C24.6862 15.43 24.6859 15.43 24.6857 15.43C24.6854 15.43 24.6852 15.43 24.6849 15.43C24.6847 15.43 24.6844 15.43 24.6842 15.43C24.684 15.43 24.6837 15.43 24.6835 15.43C24.6832 15.43 24.683 15.43 24.6827 15.43C24.6825 15.43 24.6822 15.43 24.682 15.43C24.6817 15.43 24.6815 15.43 24.6812 15.43C24.681 15.43 24.6808 15.43 24.6805 15.43C24.6803 15.43 24.68 15.43 24.6798 15.43C24.6795 15.43 24.6793 15.43 24.679 15.43C24.6788 15.43 24.6785 15.43 24.6783 15.43C24.678 15.43 24.6778 15.43 24.6775 15.43C24.6773 15.43 24.677 15.43 24.6768 15.43C24.6765 15.43 24.6763 15.43 24.676 15.43C24.6758 15.43 24.6756 15.43 24.6753 15.43C24.6751 15.43 24.6748 15.43 24.6746 15.43C24.6743 15.43 24.6741 15.43 24.6738 15.43C24.6736 15.43 24.6733 15.43 24.6731 15.43C24.6728 15.43 24.6726 15.43 24.6723 15.43C24.6721 15.43 24.6718 15.43 24.6716 15.43C24.6713 15.43 24.6711 15.43 24.6708 15.43C24.6706 15.43 24.6703 15.43 24.6701 15.43C24.6698 15.43 24.6696 15.43 24.6693 15.43C24.6691 15.43 24.6688 15.43 24.6686 15.43C24.6683 15.43 24.6681 15.43 24.6678 15.43C24.6676 15.43 24.6673 15.43 24.6671 15.43C24.6668 15.43 24.6666 15.43 24.6663 15.43C24.6661 15.43 24.6658 15.43 24.6655 15.43C24.6653 15.43 24.665 15.43 24.6648 15.43C24.6645 15.43 24.6643 15.43 24.664 15.43C24.6638 15.43 24.6635 15.43 24.6633 15.43C24.663 15.43 24.6628 15.43 24.6625 15.43C24.6623 15.43 24.662 15.43 24.6618 15.43C24.6615 15.43 24.6613 15.43 24.661 15.43C24.6608 15.43 24.6605 15.43 24.6602 15.43C24.66 15.43 24.6597 15.43 24.6595 15.43C24.6592 15.43 24.659 15.43 24.6587 15.43C24.6585 15.43 24.6582 15.43 24.658 15.43C24.6577 15.43 24.6575 15.43 24.6572 15.43C24.657 15.43 24.6567 15.43 24.6564 15.43C24.6562 15.43 24.6559 15.43 24.6557 15.43C24.6554 15.43 24.6552 15.43 24.6549 15.43C24.6547 15.43 24.6544 15.43 24.6542 15.43C24.6539 15.43 24.6536 15.43 24.6534 15.43C24.6531 15.43 24.6529 15.43 24.6526 15.43C24.6524 15.43 24.6521 15.43 24.6519 15.43C24.6516 15.43 24.6514 15.43 24.6511 15.43C24.6508 15.43 24.6506 15.43 24.6503 15.43C24.6501 15.43 24.6498 15.43 24.6496 15.43C24.6493 15.43 24.6491 15.43 24.6488 15.43C24.6485 15.43 24.6483 15.43 24.648 15.43C24.6478 15.43 24.6475 15.43 24.6473 15.43C24.647 15.43 24.6467 15.43 24.6465 15.43C24.6462 15.43 24.646 15.43 24.6457 15.43C24.6455 15.43 24.6452 15.43 24.645 15.43C24.6447 15.43 24.6444 15.43 24.6442 15.43C24.6439 15.43 24.6437 15.43 24.6434 15.43C24.6432 15.43 24.6429 15.43 24.6426 15.43C24.6424 15.43 24.6421 15.43 24.6419 15.43C24.6416 15.43 24.6413 15.43 24.6411 15.43C24.6408 15.43 24.6406 15.43 24.6403 15.43C24.6401 15.43 24.6398 15.43 24.6395 15.43C24.6393 15.43 24.639 15.43 24.6388 15.43C24.6385 15.43 24.6383 15.43 24.638 15.43C24.6377 15.43 24.6375 15.43 24.6372 15.43C24.637 15.43 24.6367 15.43 24.6364 15.43C24.6362 15.43 24.6359 15.43 24.6357 15.43C24.6354 15.43 24.6351 15.43 24.6349 15.43C24.6346 15.43 24.6344 15.43 24.6341 15.43C24.6338 15.43 24.6336 15.43 24.6333 15.43C24.6331 15.43 24.6328 15.43 24.6325 15.43C24.6323 15.43 24.632 15.43 24.6318 15.43C24.6315 15.43 24.6313 15.43 24.631 15.43C24.6307 15.43 24.6305 15.43 24.6302 15.43C24.6299 15.43 24.6297 15.43 24.6294 15.43C24.6292 15.43 24.6289 15.43 24.6286 15.43C24.6284 15.43 24.6281 15.43 24.6279 15.43C24.6276 15.43 24.6273 15.43 24.6271 15.43C24.6268 15.43 24.6266 15.43 24.6263 15.43C24.626 15.43 24.6258 15.43 24.6255 15.43C24.6253 15.43 24.625 15.43 24.6247 15.43C24.6245 15.43 24.6242 15.43 24.6239 15.43C24.6237 15.43 24.6234 15.43 24.6232 15.43C24.6229 15.43 24.6226 15.43 24.6224 15.43C24.6221 15.43 24.6219 15.43 24.6216 15.43C24.6213 15.43 24.6211 15.43 24.6208 15.43C24.6205 15.43 24.6203 15.43 24.62 15.43C24.6198 15.43 24.6195 15.43 24.6192 15.43C24.619 15.43 24.6187 15.43 24.6184 15.43C24.6182 15.43 24.6179 15.43 24.6177 15.43C24.6174 15.43 24.6171 15.43 24.6169 15.43C24.6166 15.43 24.6163 15.43 24.6161 15.43C24.6158 15.43 24.6156 15.43 24.6153 15.43C24.615 15.43 24.6148 15.43 24.6145 15.43C24.6142 15.43 24.614 15.43 24.6137 15.43C24.6134 15.43 24.6132 15.43 24.6129 15.43C24.6127 15.43 24.6124 15.43 24.6121 15.43C24.6119 15.43 24.6116 15.43 24.6113 15.43C24.6111 15.43 24.6108 15.43 24.6105 15.43C24.6103 15.43 24.61 15.43 24.6098 15.43C24.6095 15.43 24.6092 15.43 24.609 15.43C24.6087 15.43 24.6084 15.43 24.6082 15.43C24.6079 15.43 24.6076 15.43 24.6074 15.43C24.6071 15.43 24.6068 15.43 24.6066 15.43C24.6063 15.43 24.606 15.43 24.6058 15.43C24.6055 15.43 24.6053 15.43 24.605 15.43C24.6047 15.43 24.6045 15.43 24.6042 15.43C24.6039 15.43 24.6037 15.43 24.6034 15.43C24.6031 15.43 24.6029 15.43 24.6026 15.43C24.6023 15.43 24.6021 15.43 24.6018 15.43C24.6015 15.43 24.6013 15.43 24.601 15.43C24.6007 15.43 24.6005 15.43 24.6002 15.43C24.5999 15.43 24.5997 15.43 24.5994 15.43C24.5991 15.43 24.5989 15.43 24.5986 15.43C24.5983 15.43 24.5981 15.43 24.5978 15.43C24.5976 15.43 24.5973 15.43 24.597 15.43C24.5968 15.43 24.5965 15.43 24.5962 15.43C24.596 15.43 24.5957 15.43 24.5954 15.43C24.5952 15.43 24.5949 15.43 24.5946 15.43C24.5944 15.43 24.5941 15.43 24.5938 15.43C24.5936 15.43 24.5933 15.43 24.593 15.43C24.5928 15.43 24.5925 15.43 24.5922 15.43C24.592 15.43 24.5917 15.43 24.5914 15.43C24.5911 15.43 24.5909 15.43 24.5906 15.43C24.5903 15.43 24.5901 15.43 24.5898 15.43C24.5895 15.43 24.5893 15.43 24.589 15.43C24.5887 15.43 24.5885 15.43 24.5882 15.43C24.5879 15.43 24.5877 15.43 24.5874 15.43C24.5871 15.43 24.5869 15.43 24.5866 15.43C24.5863 15.43 24.5861 15.43 24.5858 15.43C24.5855 15.43 24.5853 15.43 24.585 15.43C24.5847 15.43 24.5845 15.43 24.5842 15.43C24.5839 15.43 24.5837 15.43 24.5834 15.43C24.5831 15.43 24.5828 15.43 24.5826 15.43C24.5823 15.43 24.582 15.43 24.5818 15.43C24.5815 15.43 24.5812 15.43 24.581 15.43C24.5807 15.43 24.5804 15.43 24.5802 15.43C24.5799 15.43 24.5796 15.43 24.5794 15.43C24.5791 15.43 24.5788 15.43 24.5786 15.43C24.5783 15.43 24.578 15.43 24.5777 15.43C24.5775 15.43 24.5772 15.43 24.5769 15.43C24.5767 15.43 24.5764 15.43 24.5761 15.43C24.5759 15.43 24.5756 15.43 24.5753 15.43C24.5751 15.43 24.5748 15.43 24.5745 15.43C24.5742 15.43 24.574 15.43 24.5737 15.43C24.5734 15.43 24.5732 15.43 24.5729 15.43C24.5726 15.43 24.5724 15.43 24.5721 15.43C24.5718 15.43 24.5716 15.43 24.5713 15.43C24.571 15.43 24.5707 15.43 24.5705 15.43C24.5702 15.43 24.5699 15.43 24.5697 15.43C24.5694 15.43 24.5691 15.43 24.5689 15.43C24.5686 15.43 24.5683 15.43 24.568 15.43C24.5678 15.43 24.5675 15.43 24.5672 15.43C24.567 15.43 24.5667 15.43 24.5664 15.43C24.5662 15.43 24.5659 15.43 24.5656 15.43C24.5653 15.43 24.5651 15.43 24.5648 15.43C24.5645 15.43 24.5643 15.43 24.564 15.43C24.5637 15.43 24.5635 15.43 24.5632 15.43C24.5629 15.43 24.5626 15.43 24.5624 15.43C24.5621 15.43 24.5618 15.43 24.5616 15.43C24.5613 15.43 24.561 15.43 24.5607 15.43C24.5605 15.43 24.5602 15.43 24.5599 15.43C24.5597 15.43 24.5594 15.43 24.5591 15.43C24.5588 15.43 24.5586 15.43 24.5583 15.43C24.558 15.43 24.5578 15.43 24.5575 15.43C24.5572 15.43 24.557 15.43 24.5567 15.43C24.5564 15.43 24.5561 15.43 24.5559 15.43C24.5556 15.43 24.5553 15.43 24.5551 15.43C24.5548 15.43 24.5545 15.43 24.5542 15.43C24.554 15.43 24.5537 15.43 24.5534 15.43C24.5532 15.43 24.5529 15.43 24.5526 15.43C24.5523 15.43 24.5521 15.43 24.5518 15.43C24.5515 15.43 24.5513 15.43 24.551 15.43C24.5507 15.43 24.5504 15.43 24.5502 15.43C24.5499 15.43 24.5496 15.43 24.5494 15.43C24.5491 15.43 24.5488 15.43 24.5485 15.43C24.5483 15.43 24.548 15.43 24.5477 15.43C24.5475 15.43 24.5472 15.43 24.5469 15.43C24.5466 15.43 24.5464 15.43 24.5461 15.43C24.5458 15.43 24.5455 15.43 24.5453 15.43C24.545 15.43 24.5447 15.43 24.5445 15.43C24.5442 15.43 24.5439 15.43 24.5436 15.43C24.5434 15.43 24.5431 15.43 24.5428 15.43C24.5426 15.43 24.5423 15.43 24.542 15.43C24.5417 15.43 24.5415 15.43 24.5412 15.43C24.5409 15.43 24.5406 15.43 24.5404 15.43C24.5401 15.43 24.5398 15.43 24.5396 15.43C24.5393 15.43 24.539 15.43 24.5387 15.43C24.5385 15.43 24.5382 15.43 24.5379 15.43C24.5377 15.43 24.5374 15.43 24.5371 15.43C24.5368 15.43 24.5366 15.43 24.5363 15.43C24.536 15.43 24.5357 15.43 24.5355 15.43C24.5352 15.43 24.5349 15.43 24.5347 15.43C24.5344 15.43 24.5341 15.43 24.5338 15.43C24.5336 15.43 24.5333 15.43 24.533 15.43C24.5327 15.43 24.5325 15.43 24.5322 15.43C24.5319 15.43 24.5317 15.43 24.5314 15.43C24.5311 15.43 24.5308 15.43 24.5306 15.43C24.5303 15.43 24.53 15.43 24.5297 15.43C24.5295 15.43 24.5292 15.43 24.5289 15.43C24.5287 15.43 24.5284 15.43 24.5281 15.43C24.5278 15.43 24.5276 15.43 24.5273 15.43C24.527 15.43 24.5267 15.43 24.5265 15.43C24.5262 15.43 24.5259 15.43 24.5257 15.43C24.5254 15.43 24.5251 15.43 24.5248 15.43C24.5246 15.43 24.5243 15.43 24.524 15.43C24.5237 15.43 24.5235 15.43 24.5232 15.43C24.5229 15.43 24.5226 15.43 24.5224 15.43C24.5221 15.43 24.5218 15.43 24.5216 15.43C24.5213 15.43 24.521 15.43 24.5207 15.43C24.5205 15.43 24.5202 15.43 24.5199 15.43C24.5196 15.43 24.5194 15.43 24.5191 15.43C24.5188 15.43 24.5186 15.43 24.5183 15.43C24.518 15.43 24.5177 15.43 24.5175 15.43C24.5172 15.43 24.5169 15.43 24.5166 15.43C24.5164 15.43 24.5161 15.43 24.5158 15.43C24.5155 15.43 24.5153 15.43 24.515 15.43C24.5147 15.43 24.5145 15.43 24.5142 15.43C24.5139 15.43 24.5136 15.43 24.5134 15.43C24.5131 15.43 24.5128 15.43 24.5125 15.43C24.5123 15.43 24.512 15.43 24.5117 15.43C24.5114 15.43 24.5112 15.43 24.5109 15.43C24.5106 15.43 24.5104 15.43 24.5101 15.43C24.5098 15.43 24.5095 15.43 24.5093 15.43C24.509 15.43 24.5087 15.43 24.5084 15.43C24.5082 15.43 24.5079 15.43 24.5076 15.43C24.5073 15.43 24.5071 15.43 24.5068 15.43C24.5065 15.43 24.5063 15.43 24.506 15.43C24.5057 15.43 24.5054 15.43 24.5052 15.43C24.5049 15.43 24.5046 15.43 24.5043 15.43C24.5041 15.43 24.5038 15.43 24.5035 15.43C24.5032 15.43 24.503 15.43 24.5027 15.43C24.5024 15.43 24.5021 15.43 24.5019 15.43V19.43ZM24.7188 19.4256C28.5065 19.6781 31.6879 21.0718 33.9074 23.2765C36.1119 25.4662 37.4819 28.5664 37.4819 32.48H41.4819C41.4819 27.5736 39.7368 23.4288 36.7263 20.4385C33.7309 17.4632 29.5973 15.7419 24.9849 15.4344L24.7188 19.4256ZM37.4819 32.48C37.4819 37.2329 35.7209 41.0418 32.6895 43.6867C29.6315 46.3548 25.1126 47.98 19.3919 47.98V51.98C25.8512 51.98 31.3772 50.1402 35.3193 46.7008C39.2878 43.2382 41.4819 38.2971 41.4819 32.48H37.4819Z" fill="#001452" mask="url(#path-1-inside-1_2107_4689)"/>
</svg>
