<svg width="41" height="49" viewBox="0 0 41 49" fill="none" xmlns="http://www.w3.org/2000/svg">
<mask id="path-1-inside-1_2107_4692" fill="white">
<path d="M24.4893 49V41.09H0.549336V32.62L20.6393 -3.33786e-06H35.8293V31.36H41.0093V41.09H35.8293V49H24.4893ZM11.8893 31.36H24.4893V11.69H23.5093L11.8893 30.38V31.36Z"/>
</mask>
<path d="M24.4893 49V41.09H0.549336V32.62L20.6393 -3.33786e-06H35.8293V31.36H41.0093V41.09H35.8293V49H24.4893ZM11.8893 31.36H24.4893V11.69H23.5093L11.8893 30.38V31.36Z" fill="#DBDAFD"/>
<path d="M24.4893 49H22.4893V51H24.4893V49ZM24.4893 41.09H26.4893V39.09H24.4893V41.09ZM0.549336 41.09H-1.45066V43.09H0.549336V41.09ZM0.549336 32.62L-1.1536 31.5712L-1.45066 32.0535V32.62H0.549336ZM20.6393 -3.33786e-06V-2H19.5222L18.9364 -1.04881L20.6393 -3.33786e-06ZM35.8293 -3.33786e-06H37.8293V-2H35.8293V-3.33786e-06ZM35.8293 31.36H33.8293V33.36H35.8293V31.36ZM41.0093 31.36H43.0093V29.36H41.0093V31.36ZM41.0093 41.09V43.09H43.0093V41.09H41.0093ZM35.8293 41.09V39.09H33.8293V41.09H35.8293ZM35.8293 49V51H37.8293V49H35.8293ZM11.8893 31.36H9.88934V33.36H11.8893V31.36ZM24.4893 31.36V33.36H26.4893V31.36H24.4893ZM24.4893 11.69H26.4893V9.69H24.4893V11.69ZM23.5093 11.69V9.69H22.3978L21.8108 10.634L23.5093 11.69ZM11.8893 30.38L10.1908 29.324L9.88934 29.809V30.38H11.8893ZM26.4893 49V41.09H22.4893V49H26.4893ZM24.4893 39.09H0.549336V43.09H24.4893V39.09ZM2.54934 41.09V32.62H-1.45066V41.09H2.54934ZM2.25228 33.6688L22.3423 1.0488L18.9364 -1.04881L-1.1536 31.5712L2.25228 33.6688ZM20.6393 2H35.8293V-2H20.6393V2ZM33.8293 -3.33786e-06V31.36H37.8293V-3.33786e-06H33.8293ZM35.8293 33.36H41.0093V29.36H35.8293V33.36ZM39.0093 31.36V41.09H43.0093V31.36H39.0093ZM41.0093 39.09H35.8293V43.09H41.0093V39.09ZM33.8293 41.09V49H37.8293V41.09H33.8293ZM35.8293 47H24.4893V51H35.8293V47ZM11.8893 33.36H24.4893V29.36H11.8893V33.36ZM26.4893 31.36V11.69H22.4893V31.36H26.4893ZM24.4893 9.69H23.5093V13.69H24.4893V9.69ZM21.8108 10.634L10.1908 29.324L13.5878 31.436L25.2078 12.746L21.8108 10.634ZM9.88934 30.38V31.36H13.8893V30.38H9.88934Z" fill="#001452" mask="url(#path-1-inside-1_2107_4692)"/>
</svg>
