<svg width="41" height="50" viewBox="0 0 41 50" fill="none" xmlns="http://www.w3.org/2000/svg">
<mask id="path-1-inside-1_2107_4695" fill="white">
<path d="M20.1201 49.98C10.3201 49.98 3.53008 45.43 0.940078 36.82L12.0001 34.58C13.4701 37.66 16.2001 39.2 20.0501 39.2C25.0901 39.2 28.3101 36.54 28.3101 32.13C28.3101 27.86 25.5101 25.41 20.8201 25.41C17.0401 25.41 14.8001 26.11 12.2101 28.42L3.46008 25.97L6.47008 -3.33786e-06H37.1301V10.57H15.2901L14.3101 18.69C17.2501 16.94 19.8401 16.31 23.4101 16.31C34.2601 16.31 40.3501 22.33 40.3501 31.92C40.3501 42.91 32.3001 49.98 20.1201 49.98Z"/>
</mask>
<path d="M20.1201 49.98C10.3201 49.98 3.53008 45.43 0.940078 36.82L12.0001 34.58C13.4701 37.66 16.2001 39.2 20.0501 39.2C25.0901 39.2 28.3101 36.54 28.3101 32.13C28.3101 27.86 25.5101 25.41 20.8201 25.41C17.0401 25.41 14.8001 26.11 12.2101 28.42L3.46008 25.97L6.47008 -3.33786e-06H37.1301V10.57H15.2901L14.3101 18.69C17.2501 16.94 19.8401 16.31 23.4101 16.31C34.2601 16.31 40.3501 22.33 40.3501 31.92C40.3501 42.91 32.3001 49.98 20.1201 49.98Z" fill="#DBDAFD"/>
<path d="M0.940078 36.82L0.543075 34.8598L-1.60711 35.2953L-0.975145 37.3961L0.940078 36.82ZM12.0001 34.58L13.805 33.7185L13.1328 32.31L11.6031 32.6198L12.0001 34.58ZM12.2101 28.42L11.6708 30.3459L12.7246 30.641L13.5413 29.9126L12.2101 28.42ZM3.46008 25.97L1.47338 25.7397L1.27682 27.4356L2.92082 27.8959L3.46008 25.97ZM6.47008 -3.33786e-06V-2H4.6885L4.48338 -0.230268L6.47008 -3.33786e-06ZM37.1301 -3.33786e-06H39.1301V-2H37.1301V-3.33786e-06ZM37.1301 10.57V12.57H39.1301V10.57H37.1301ZM15.2901 10.57V8.57H13.5169L13.3045 10.3304L15.2901 10.57ZM14.3101 18.69L12.3245 18.4504L11.837 22.4896L15.333 20.4086L14.3101 18.69ZM20.1201 47.98C15.5259 47.98 11.7958 46.9149 8.95314 44.9764C6.12689 43.0491 4.03376 40.1614 2.8553 36.2439L-0.975145 37.3961C0.436398 42.0886 3.03327 45.7809 6.69952 48.2811C10.3493 50.7701 14.9142 51.98 20.1201 51.98V47.98ZM1.33708 38.7802L12.3971 36.5402L11.6031 32.6198L0.543075 34.8598L1.33708 38.7802ZM10.1951 35.4415C11.0899 37.3163 12.4088 38.7921 14.1403 39.7815C15.8558 40.7618 17.8616 41.2 20.0501 41.2V37.2C18.3885 37.2 17.1043 36.8682 16.1249 36.3085C15.1613 35.7579 14.3802 34.9237 13.805 33.7185L10.1951 35.4415ZM20.0501 41.2C22.9035 41.2 25.4727 40.4468 27.3632 38.8445C29.2931 37.2088 30.3101 34.8588 30.3101 32.13H26.3101C26.3101 33.8112 25.717 34.9962 24.7769 35.793C23.7975 36.6232 22.2367 37.2 20.0501 37.2V41.2ZM30.3101 32.13C30.3101 29.5374 29.4441 27.2705 27.6544 25.6756C25.897 24.1095 23.4944 23.41 20.8201 23.41V27.41C22.8358 27.41 24.1782 27.9355 24.9932 28.6619C25.7761 29.3595 26.3101 30.4526 26.3101 32.13H30.3101ZM20.8201 23.41C18.8158 23.41 17.0672 23.5937 15.4217 24.1563C13.7558 24.726 12.3222 25.6401 10.8788 26.9274L13.5413 29.9126C14.688 28.8899 15.6694 28.299 16.7159 27.9412C17.783 27.5763 19.0444 27.41 20.8201 27.41V23.41ZM12.7493 26.4941L3.99934 24.0441L2.92082 27.8959L11.6708 30.3459L12.7493 26.4941ZM5.44678 26.2003L8.45678 0.230261L4.48338 -0.230268L1.47338 25.7397L5.44678 26.2003ZM6.47008 2H37.1301V-2H6.47008V2ZM35.1301 -3.33786e-06V10.57H39.1301V-3.33786e-06H35.1301ZM37.1301 8.57H15.2901V12.57H37.1301V8.57ZM13.3045 10.3304L12.3245 18.4504L16.2957 18.9296L17.2757 10.8096L13.3045 10.3304ZM15.333 20.4086C17.9257 18.8653 20.1533 18.31 23.4101 18.31V14.31C19.5268 14.31 16.5745 15.0147 13.2871 16.9714L15.333 20.4086ZM23.4101 18.31C28.4746 18.31 32.1673 19.7109 34.5796 21.9766C36.9769 24.2281 38.3501 27.5586 38.3501 31.92H42.3501C42.3501 26.6914 40.6782 22.2169 37.318 19.0609C33.9729 15.9191 29.1955 14.31 23.4101 14.31V18.31ZM38.3501 31.92C38.3501 36.8967 36.5438 40.8484 33.4741 43.5762C30.3804 46.3253 25.8314 47.98 20.1201 47.98V51.98C26.5888 51.98 32.1547 50.0997 36.1311 46.5663C40.1313 43.0116 42.3501 37.9333 42.3501 31.92H38.3501Z" fill="#001452" mask="url(#path-1-inside-1_2107_4695)"/>
</svg>
