<svg width="42" height="51" viewBox="0 0 42 51" fill="none" xmlns="http://www.w3.org/2000/svg">
<mask id="path-1-inside-1_2107_4698" fill="white">
<path d="M40.3747 12.13L29.2447 14.65C27.7747 11.5 25.3947 9.75 21.8247 9.75C16.2947 9.75 12.7947 13.81 12.4447 20.67C12.3747 21.16 12.3747 21.72 12.3747 22.28C15.8747 19.48 20.4947 18.22 24.7647 18.22C34.5647 18.22 41.7747 24.24 41.7747 33.69C41.7747 43.77 33.4447 50.98 21.7547 50.98C8.45469 50.98 0.544688 41.74 0.544688 25.92C0.544688 9.89 8.66469 0.0199968 22.1047 0.0199968C31.3447 0.0199968 37.9247 4.64 40.3747 12.13ZM12.7947 32.64C13.7047 37.54 16.9947 40.55 21.7547 40.55C26.5147 40.55 30.0147 37.47 30.0147 33.34C30.0147 29.35 26.5847 26.76 22.0347 26.76C18.1147 26.76 14.5447 28.3 12.6547 30.96C12.6547 31.52 12.7247 32.01 12.7947 32.64Z"/>
</mask>
<path d="M40.3747 12.13L29.2447 14.65C27.7747 11.5 25.3947 9.75 21.8247 9.75C16.2947 9.75 12.7947 13.81 12.4447 20.67C12.3747 21.16 12.3747 21.72 12.3747 22.28C15.8747 19.48 20.4947 18.22 24.7647 18.22C34.5647 18.22 41.7747 24.24 41.7747 33.69C41.7747 43.77 33.4447 50.98 21.7547 50.98C8.45469 50.98 0.544688 41.74 0.544688 25.92C0.544688 9.89 8.66469 0.0199968 22.1047 0.0199968C31.3447 0.0199968 37.9247 4.64 40.3747 12.13ZM12.7947 32.64C13.7047 37.54 16.9947 40.55 21.7547 40.55C26.5147 40.55 30.0147 37.47 30.0147 33.34C30.0147 29.35 26.5847 26.76 22.0347 26.76C18.1147 26.76 14.5447 28.3 12.6547 30.96C12.6547 31.52 12.7247 32.01 12.7947 32.64Z" fill="#DBDAFD"/>
<path d="M40.3747 12.13L40.8163 14.0806L42.9584 13.5956L42.2756 11.5082L40.3747 12.13ZM29.2447 14.65L27.4323 15.4958L28.1141 16.9566L29.6863 16.6006L29.2447 14.65ZM12.4447 20.67L14.4246 20.9528L14.4375 20.8628L14.4421 20.7719L12.4447 20.67ZM12.3747 22.28H10.3747V26.4412L13.6241 23.8417L12.3747 22.28ZM12.7947 32.64L10.8069 32.8609L10.815 32.9334L10.8283 33.0052L12.7947 32.64ZM12.6547 30.96L11.0243 29.8016L10.6547 30.3218V30.96H12.6547ZM39.933 10.1794L28.803 12.6994L29.6863 16.6006L40.8163 14.0806L39.933 10.1794ZM31.0571 13.8042C30.2076 11.984 29.0355 10.4429 27.4452 9.3638C25.8434 8.27684 23.9514 7.75 21.8247 7.75V11.75C23.268 11.75 24.351 12.0982 25.1992 12.6737C26.0589 13.2571 26.8118 14.166 27.4323 15.4958L31.0571 13.8042ZM21.8247 7.75C18.5267 7.75 15.6969 8.98278 13.6757 11.3336C11.6936 13.6388 10.6374 16.8417 10.4473 20.5681L14.4421 20.7719C14.602 17.6383 15.4708 15.3812 16.7087 13.9414C17.9075 12.5472 19.5927 11.75 21.8247 11.75V7.75ZM10.4648 20.3872C10.3708 21.0454 10.3747 21.757 10.3747 22.28H14.3747C14.3747 21.683 14.3786 21.2746 14.4246 20.9528L10.4648 20.3872ZM13.6241 23.8417C16.6976 21.3829 20.8473 20.22 24.7647 20.22V16.22C20.142 16.22 15.0518 17.5771 11.1253 20.7183L13.6241 23.8417ZM24.7647 20.22C29.2619 20.22 33.0156 21.5988 35.6173 23.9073C38.1959 26.1952 39.7747 29.508 39.7747 33.69H43.7747C43.7747 28.422 41.7485 23.9998 38.2721 20.9152C34.8188 17.8512 30.0675 16.22 24.7647 16.22V20.22ZM39.7747 33.69C39.7747 42.4014 32.6241 48.98 21.7547 48.98V52.98C34.2653 52.98 43.7747 45.1386 43.7747 33.69H39.7747ZM21.7547 48.98C15.5993 48.98 10.8908 46.862 7.68683 43.0881C4.44557 39.2703 2.54469 33.5203 2.54469 25.92H-1.45531C-1.45531 34.1397 0.598802 40.9197 4.63754 45.6769C8.71359 50.478 14.61 52.98 21.7547 52.98V48.98ZM2.54469 25.92C2.54469 18.2204 4.49563 12.247 7.82384 8.23585C11.1141 4.27053 15.9144 2.02 22.1047 2.02V-1.98C14.855 -1.98 8.87532 0.704465 4.74553 5.68164C0.653742 10.613 -1.45531 17.5896 -1.45531 25.92H2.54469ZM22.1047 2.02C30.597 2.02 36.3275 6.19021 38.4738 12.7518L42.2756 11.5082C39.5219 3.08979 32.0924 -1.98 22.1047 -1.98V2.02ZM10.8283 33.0052C11.3487 35.8073 12.5794 38.2132 14.5001 39.9254C16.4332 41.6486 18.9336 42.55 21.7547 42.55V38.55C19.8158 38.55 18.2912 37.9464 17.1618 36.9396C16.02 35.9218 15.1507 34.3727 14.7611 32.2748L10.8283 33.0052ZM21.7547 42.55C27.36 42.55 32.0147 38.8171 32.0147 33.34H28.0147C28.0147 36.1229 25.6693 38.55 21.7547 38.55V42.55ZM32.0147 33.34C32.0147 30.7172 30.8651 28.5068 28.9838 26.9948C27.1368 25.5104 24.6734 24.76 22.0347 24.76V28.76C23.9459 28.76 25.4726 29.3046 26.4781 30.1127C27.4492 30.8932 28.0147 31.9728 28.0147 33.34H32.0147ZM22.0347 24.76C17.6551 24.76 13.3866 26.477 11.0243 29.8016L14.285 32.1184C15.7028 30.123 18.5743 28.76 22.0347 28.76V24.76ZM10.6547 30.96C10.6547 31.6628 10.7454 32.3073 10.8069 32.8609L14.7825 32.4191C14.704 31.7127 14.6547 31.3772 14.6547 30.96H10.6547Z" fill="#001452" mask="url(#path-1-inside-1_2107_4698)"/>
</svg>
