<svg width="66" height="70" viewBox="0 0 66 70" fill="none" xmlns="http://www.w3.org/2000/svg">
<g filter="url(#filter0_d_129_380)">
<path d="M34 24C34 23.4477 33.5523 23 33 23C32.4477 23 32 23.4477 32 24H34ZM32.2929 42.7071C32.6834 43.0976 33.3166 43.0976 33.7071 42.7071L40.0711 36.3431C40.4616 35.9526 40.4616 35.3195 40.0711 34.9289C39.6805 34.5384 39.0474 34.5384 38.6569 34.9289L33 40.5858L27.3431 34.9289C26.9526 34.5384 26.3195 34.5384 25.9289 34.9289C25.5384 35.3195 25.5384 35.9526 25.9289 36.3431L32.2929 42.7071ZM32 24V42H34V24H32Z" fill="#4B1CB0"/>
</g>
<defs>
<filter id="filter0_d_129_380" x="-20" y="-18" width="106" height="106" filterUnits="userSpaceOnUse" color-interpolation-filters="sRGB">
<feFlood flood-opacity="0" result="BackgroundImageFix"/>
<feColorMatrix in="SourceAlpha" type="matrix" values="0 0 0 0 0 0 0 0 0 0 0 0 0 0 0 0 0 0 127 0" result="hardAlpha"/>
<feOffset dy="2"/>
<feGaussianBlur stdDeviation="12.5"/>
<feComposite in2="hardAlpha" operator="out"/>
<feColorMatrix type="matrix" values="0 0 0 0 0.06 0 0 0 0 0.0656 0 0 0 0 0.2 0 0 0 0.1 0"/>
<feBlend mode="normal" in2="BackgroundImageFix" result="effect1_dropShadow_129_380"/>
<feBlend mode="normal" in="SourceGraphic" in2="effect1_dropShadow_129_380" result="shape"/>
</filter>
</defs>
</svg>
