<svg width="62" height="62" viewBox="0 0 62 62" fill="none" xmlns="http://www.w3.org/2000/svg">
<g id="1908, Business, Businessman, Conference, Discussion, Meeting">
<g id="Group">
<path id="Vector" d="M31 33.5C37.0186 33.5 42 35 42 26C42 20.8047 37.0186 16.5 31 16.5C24.9815 16.5 20 20.8047 20 26C20 34.5 24.9815 33.5 31 33.5Z" fill="#DBDAFD"/>
<path id="Vector_2" d="M53.1452 25C54.1552 23.9 55.5652 23.4 56.9852 23.4H57.0052C59.8452 23.5 61.9652 25.7 61.9652 28.5V43.4C61.9652 46.2 59.6352 48.5 56.8052 48.5H49.7252L41.3252 60.5C40.9252 61.1 40.1152 61.2 39.5052 60.8C39.4194 60.7429 39.3439 60.6776 39.2786 60.6058L35.6552 57.5C35.0552 57.1 34.9552 56.3 35.3552 55.7C45.5752 41.6 44.9652 42.4 45.0652 42.3C45.7752 41.6 46.7852 41.2 47.7952 41.2H51.6352V34.6C51.2352 34.7 50.7252 34.8 50.3252 34.8H32.3152V60.3C32.3152 61 31.7152 61.6 31.0052 61.6C30.2952 61.6 29.6852 61 29.6852 60.3V34.8H11.6752C11.1652 34.8 10.7552 34.7 10.3552 34.6V41.2H14.1952C15.2052 41.2 16.2152 41.6 16.9252 42.3C17.1252 42.5 16.4152 41.6 26.7352 56C27.1452 56.6 27.0452 57.4 26.4352 57.8L22.6952 61.1C22.0852 61.5 21.2752 61.4 20.8752 60.8L12.4752 48.8H5.19516C2.36516 48.8 0.0351562 46.5 0.0351562 43.7V28.4C0.0351562 25.6 2.16516 23.4 4.99516 23.3C6.51516 23.3 7.93516 23.9 8.94516 24.9L12.6852 27.1H19.3652C21.4852 27.1 23.2052 28.8 23.2052 30.9C23.2052 31.4 23.1052 31.8 23.0052 32.2H38.8852C38.3752 30.8 38.7852 29.1 39.9952 28.1V24.6C39.9952 20.4 35.9452 17 30.9952 17C26.0452 17 21.9952 20.4 21.9952 24.6C21.9952 25.3 21.3952 25.9 20.6852 25.9C19.9752 25.9 19.3652 25.3 19.3652 24.6C19.3652 19 24.5252 14.5 30.9952 14.5C37.4652 14.5 42.6252 19.1 42.6252 24.7V27.2H49.4052L53.1452 25Z" fill="#DBDAFD"/>
<path id="Vector_3" d="M56.9852 23.4C55.5652 23.4 54.1552 23.9 53.1452 25L49.4052 27.2H42.6252V24.7C42.6252 19.1 37.4652 14.5 30.9952 14.5C24.5252 14.5 19.3652 19 19.3652 24.6C19.3652 25.3 19.9752 25.9 20.6852 25.9C21.3952 25.9 21.9952 25.3 21.9952 24.6C21.9952 20.4 26.0452 17 30.9952 17C35.9452 17 39.9952 20.4 39.9952 24.6V28.1C38.7852 29.1 38.3752 30.8 38.8852 32.2H23.0052C23.1052 31.8 23.2052 31.4 23.2052 30.9C23.2052 28.8 21.4852 27.1 19.3652 27.1H12.6852L8.94516 24.9C7.93516 23.9 6.51516 23.3 4.99516 23.3C2.16516 23.4 0.0351562 25.6 0.0351562 28.4V43.7C0.0351562 46.5 2.36516 48.8 5.19516 48.8H12.4752L20.8752 60.8C21.2752 61.4 22.0852 61.5 22.6952 61.1C23.3052 60.7 23.4052 59.9 22.9952 59.3L14.1952 46.8C13.9952 46.5 13.5852 46.3 13.1852 46.3H5.19516C3.77516 46.3 2.66516 45.2 2.66516 43.8V28.5C2.66516 27.1 3.77516 25.9 5.29516 26C6.00516 26 6.71516 26.3 7.11516 26.9C7.21516 27 7.31516 27.1 7.41516 27.2L11.6652 29.7C11.8652 29.8 12.0652 29.9 12.3752 29.9H19.3552C20.0652 29.9 20.6752 30.5 20.6752 31.2C20.6752 31.9 20.0652 32.5 19.3552 32.5H11.6652C11.4652 32.5 11.1552 32.4 10.9552 32.3L9.74516 31.6C9.33516 31.4 8.83516 31.4 8.42516 31.6C8.02516 31.8 7.81516 32.3 7.81516 32.7V42.7C7.81516 43.4 8.42516 44 9.13516 44H14.2952C14.5952 44 14.9052 44.1 15.1052 44.3L24.6152 57.5C25.0152 58.1 25.8252 58.2 26.4352 57.8C27.0452 57.4 27.1452 56.6 26.7352 56C16.4152 41.6 17.1252 42.5 16.9252 42.3C16.2152 41.6 15.2052 41.2 14.1952 41.2H10.3552V34.6C10.7552 34.7 11.1652 34.8 11.6752 34.8H29.6852V60.3C29.6852 61 30.2952 61.6 31.0052 61.6C31.7152 61.6 32.3152 61 32.3152 60.3V34.8H50.3252C50.7252 34.8 51.2352 34.7 51.6352 34.6V41.2H47.7952C46.7852 41.2 45.7752 41.6 45.0652 42.3C44.9652 42.4 45.5752 41.6 35.3552 55.7C34.9552 56.3 35.0552 57.1 35.6552 57.5C36.2652 57.9 37.0752 57.8 37.4752 57.2L46.9852 44C47.1852 43.8 47.4952 43.7 47.7952 43.7H52.9552C53.6652 43.7 54.2752 43.1 54.2752 42.4V32.4C54.2752 31.9 54.0752 31.5 53.6652 31.3C53.2652 31.1 52.7552 31.1 52.3552 31.3L51.1452 32C50.9452 32.1 50.7452 32.2 50.4352 32.2H42.7452C42.0352 32.2 41.4252 31.6 41.4252 30.9C41.4252 30.2 42.0352 29.6 42.7452 29.6H49.7252C49.9252 29.6 50.2352 29.5 50.4352 29.4L54.6852 26.9C54.7852 26.8 54.8852 26.7 54.9852 26.6C55.4952 26 56.1952 25.7 57.0052 25.7C58.4252 25.8 59.5352 26.9 59.5352 28.2V43.5C59.5352 44.9 58.4252 46 57.0052 46H49.0152C48.6152 46 48.2052 46.2 48.0052 46.5L39.2052 59C38.8052 59.6 38.9052 60.4 39.5052 60.8C40.1152 61.2 40.9252 61.1 41.3252 60.5L49.7252 48.5H56.8052C59.6352 48.5 61.9652 46.2 61.9652 43.4V28.5C61.9652 25.7 59.8452 23.5 57.0052 23.4H56.9852Z" fill="#001452"/>
<path id="Vector_4" d="M55.4759 22.0969C59.0159 22.0969 61.9459 19.1969 61.9459 15.6969C61.9459 12.1969 59.0159 9.29688 55.4759 9.29688C51.9359 9.29688 49.0059 12.1969 49.0059 15.6969C49.0059 19.1969 51.9359 22.0969 55.4759 22.0969Z" fill="#DBDAFD"/>
<path id="Vector_5" d="M6.50516 22.0969C10.0452 22.0969 12.9752 19.1969 12.9752 15.6969C12.9752 12.1969 10.0452 9.29688 6.50516 9.29688C2.96516 9.29688 0.0351562 12.1969 0.0351562 15.6969C0.0351562 19.1969 2.96516 22.0969 6.50516 22.0969Z" fill="#DBDAFD"/>
<path id="Vector_6" d="M30.9856 13.1984C34.5256 13.1984 37.4556 10.2984 37.4556 6.79844C37.4556 3.29844 34.5256 0.398438 30.9856 0.398438C27.4456 0.398438 24.5156 3.29844 24.5156 6.79844C24.5156 10.2984 27.4456 13.1984 30.9856 13.1984Z" fill="#DBDAFD"/>
<path id="Vector_7" d="M55.4759 22.0969C59.0159 22.0969 61.9459 19.1969 61.9459 15.6969C61.9459 12.1969 59.0159 9.29688 55.4759 9.29688C51.9359 9.29688 49.0059 12.1969 49.0059 15.6969C49.0059 19.1969 51.9359 22.0969 55.4759 22.0969ZM55.4759 11.8969C57.5959 11.8969 59.3159 13.5969 59.3159 15.6969C59.3159 17.7969 57.5959 19.4969 55.4759 19.4969C53.3559 19.4969 51.6359 17.7969 51.6359 15.6969C51.6359 13.5969 53.3559 11.8969 55.4759 11.8969Z" fill="#001452"/>
<path id="Vector_8" d="M6.50516 22.0969C10.0452 22.0969 12.9752 19.1969 12.9752 15.6969C12.9752 12.1969 10.0452 9.29688 6.50516 9.29688C2.96516 9.29688 0.0351562 12.1969 0.0351562 15.6969C0.0351562 19.1969 2.96516 22.0969 6.50516 22.0969ZM6.50516 11.8969C8.62516 11.8969 10.3452 13.5969 10.3452 15.6969C10.3452 17.7969 8.62516 19.4969 6.50516 19.4969C4.38516 19.4969 2.66516 17.7969 2.66516 15.6969C2.66516 13.5969 4.38516 11.8969 6.50516 11.8969Z" fill="#001452"/>
<path id="Vector_9" d="M30.9856 13.1984C34.5256 13.1984 37.4556 10.2984 37.4556 6.79844C37.4556 3.29844 34.5256 0.398438 30.9856 0.398438C27.4456 0.398438 24.5156 3.29844 24.5156 6.79844C24.5156 10.2984 27.4456 13.1984 30.9856 13.1984ZM30.9856 2.99844C33.1056 2.99844 34.8256 4.69844 34.8256 6.79844C34.8256 8.89844 33.1056 10.5984 30.9856 10.5984C28.8656 10.5984 27.1456 8.89844 27.1456 6.79844C27.1456 4.69844 28.8656 2.99844 30.9856 2.99844Z" fill="#001452"/>
</g>
</g>
</svg>
