<svg width="62" height="62" viewBox="0 0 62 62" fill="none" xmlns="http://www.w3.org/2000/svg">
<g id="1924, Development, Gear, Person, Production, Productivity">
<path id="Vector" d="M53.7096 25.9492H60.6796C61.3796 25.9492 61.9896 26.5492 61.8896 27.2492V34.8492C61.8896 35.5492 61.2896 36.1492 60.5796 36.1492H53.5996C52.9896 38.6492 51.9796 41.0492 50.5596 43.2492L55.5196 48.1492C56.0296 48.6492 56.0296 49.4492 55.5196 49.9492L50.0596 55.3492C49.5596 55.8492 48.7496 55.8492 48.2396 55.3492L43.2796 50.4492C41.0596 51.7492 38.6296 52.7492 36.0996 53.3492V60.2492C36.0996 60.9492 35.4896 61.5492 34.7796 61.5492H27.0896C26.3896 61.5492 25.7796 60.9492 25.7796 60.2492V53.3492C23.2496 52.8492 20.8296 51.8492 18.5996 50.4492L13.6396 55.3492C13.1396 55.8492 12.3296 55.8492 11.8196 55.3492L6.35961 49.9492C5.84961 49.4492 5.84961 48.6492 6.35961 48.1492L11.3196 43.2492C10.0096 41.0492 8.99961 38.6492 8.38961 36.1492H1.40961C0.709609 36.1492 0.0996094 35.5492 0.0996094 34.8492V27.2492C0.0996094 26.5492 0.699609 25.9492 1.40961 25.9492H8.40961C9.00961 23.4492 10.0196 21.0492 11.4396 18.8492L6.47961 13.9492C5.96961 13.4492 5.96961 12.6492 6.47961 12.1492L11.9396 6.74922C12.4496 6.24922 13.2496 6.24922 13.7596 6.74922L18.7196 11.6492C20.9396 10.2492 23.3696 9.24922 25.8996 8.64922V1.74922C25.8996 1.04922 26.4996 0.449219 27.2096 0.449219H34.8996C35.6096 0.449219 36.2196 1.04922 36.2196 1.74922V8.64922C38.7496 9.24922 41.1696 10.2492 43.3996 11.6492L48.3596 6.74922C48.8596 6.24922 49.6696 6.24922 50.1796 6.74922L55.6396 12.1492C56.1496 12.6492 56.1496 13.4492 55.6396 13.9492L50.6796 18.8492C52.0896 21.0492 53.0996 23.4492 53.7096 25.9492Z" fill="#DBDAFD"/>
<path id="Vector_2" d="M60.6896 25.9492H53.7096C53.0996 23.4492 52.0896 21.0492 50.6796 18.8492L55.6396 13.9492C56.1496 13.4492 56.1496 12.6492 55.6396 12.1492L50.1796 6.74922C49.6696 6.24922 48.8596 6.24922 48.3596 6.74922L43.3996 11.6492C41.1696 10.2492 38.7496 9.24922 36.2196 8.64922V1.74922C36.2196 1.04922 35.6096 0.449219 34.8996 0.449219H27.2096C26.4996 0.449219 25.8996 1.04922 25.8996 1.74922V8.64922C23.3696 9.24922 20.9396 10.2492 18.7196 11.6492L13.7596 6.74922C13.2496 6.24922 12.4496 6.24922 11.9396 6.74922L6.47961 12.1492C5.96961 12.6492 5.96961 13.4492 6.47961 13.9492L11.4396 18.8492C10.0196 21.0492 9.00961 23.4492 8.40961 25.9492H1.40961C0.699609 25.9492 0.0996094 26.5492 0.0996094 27.2492V34.8492C0.0996094 35.5492 0.709609 36.1492 1.40961 36.1492H8.38961C8.99961 38.6492 10.0096 41.0492 11.3196 43.2492L6.35961 48.1492C5.84961 48.6492 5.84961 49.4492 6.35961 49.9492L11.8196 55.3492C12.3296 55.8492 13.1396 55.8492 13.6396 55.3492L18.5996 50.4492C20.8296 51.8492 23.2496 52.8492 25.7796 53.3492V60.2492C25.7796 60.9492 26.3896 61.5492 27.0896 61.5492H34.7796C35.4896 61.5492 36.0996 60.9492 36.0996 60.2492V53.3492C38.6296 52.7492 41.0596 51.7492 43.2796 50.4492L48.2396 55.3492C48.7496 55.8492 49.5596 55.8492 50.0596 55.3492L55.5196 49.9492C56.0296 49.4492 56.0296 48.6492 55.5196 48.1492L50.5596 43.2492C51.9796 41.0492 52.9896 38.6492 53.5996 36.1492H60.5796C61.2896 36.1492 61.8896 35.5492 61.8896 34.8492V27.2492C61.9896 26.5492 61.3796 25.9492 60.6796 25.9492H60.6896ZM59.3696 33.5492H52.5896C51.9796 33.5492 51.4796 33.9492 51.2796 34.6492C50.7696 37.5492 49.6596 40.2492 47.9396 42.6492C47.5396 43.1492 47.6396 43.8492 48.0396 44.2492L52.7896 48.9492L49.1496 52.5492L44.3996 47.8492C43.9996 47.4492 43.2896 47.3492 42.7796 47.7492C40.3496 49.4492 37.6196 50.5492 34.6896 51.0492C34.0796 51.1492 33.5796 51.6492 33.5796 52.3492V59.0492H28.5196V52.3492C28.5196 51.7492 28.1196 51.2492 27.4096 51.0492C24.4796 50.5492 21.7496 49.4492 19.3196 47.7492C18.8096 47.3492 18.1096 47.4492 17.6996 47.8492L12.9496 52.5492L9.30961 48.9492L14.0596 44.2492C14.4596 43.8492 14.5696 43.1492 14.1596 42.6492C12.4396 40.2492 11.3296 37.5492 10.8196 34.6492C10.7196 34.0492 10.2096 33.5492 9.50961 33.5492H2.72961V28.5492H9.50961C10.1196 28.5492 10.6196 28.1492 10.8196 27.4492C11.3296 24.5492 12.4396 21.8492 14.1596 19.4492C14.5596 18.9492 14.4596 18.2492 14.0596 17.8492L9.30961 13.1492L12.9496 9.54922L17.6996 14.2492C18.0996 14.6492 18.8096 14.7492 19.3196 14.3492C21.7496 12.6492 24.4796 11.5492 27.4096 11.0492C28.0196 10.9492 28.5196 10.4492 28.5196 9.74922V3.04922H33.5796V9.74922C33.5796 10.3492 33.9796 10.8492 34.6896 11.0492C37.6196 11.5492 40.3596 12.6492 42.7796 14.3492C43.2896 14.7492 43.9896 14.6492 44.3996 14.2492L49.1496 9.54922L52.7896 13.1492L48.0396 17.8492C47.6396 18.2492 47.5296 18.9492 47.9396 19.4492C49.6596 21.8492 50.7696 24.5492 51.2796 27.4492C51.3796 28.0492 51.8896 28.5492 52.5896 28.5492H59.3696V33.5492Z" fill="#001452"/>
<path id="Vector_3" d="M46.53 29.75C45.82 29.75 45.22 30.35 45.22 31.05C45.22 38.75 38.85 45.05 31.06 45.05C30.35 45.05 29.75 45.65 29.75 46.35C29.75 47.05 30.36 47.65 31.06 47.65C40.27 47.65 47.85 40.25 47.85 31.05C47.85 30.35 47.24 29.75 46.53 29.75Z" fill="#001452"/>
<path id="Vector_4" d="M32.3695 15.7492C32.3695 15.0492 31.7595 14.4492 31.0595 14.4492C21.8495 14.4492 14.2695 21.8492 14.2695 31.0492C14.2695 31.7492 14.8795 32.3492 15.5795 32.3492C16.2795 32.3492 16.8995 31.7492 16.8995 31.0492C16.8995 23.3492 23.2695 17.0492 31.0595 17.0492C31.7695 17.0492 32.3695 16.4492 32.3695 15.7492Z" fill="#001452"/>
<path id="Vector_5" d="M38.7391 38.6488V34.8488C38.7391 31.9488 37.1191 29.4488 34.7891 28.1488C35.6991 27.2488 36.2091 26.0488 36.2091 24.6488C36.2091 21.8488 33.8791 19.5488 31.0491 19.5488C28.2191 19.5488 25.8891 21.8488 25.8891 24.6488C25.8891 26.0488 26.3991 27.2488 27.3091 28.1488C24.8791 29.4488 23.3691 31.9488 23.3691 34.8488V38.6488C23.3691 39.3488 23.9791 39.9488 24.6791 39.9488H37.5291C38.2391 39.9488 38.7391 39.3488 38.7391 38.6488ZM28.5191 24.6488C28.5191 23.2488 29.6291 22.1488 31.0491 22.1488C32.4691 22.1488 33.5791 23.2488 33.5791 24.6488C33.5791 26.0488 32.4691 27.1488 31.0491 27.1488C29.6291 27.2488 28.5191 26.0488 28.5191 24.6488ZM36.2091 37.4488H25.8891V34.9488C25.8891 32.1488 28.2191 29.8488 31.0491 29.8488C33.8791 29.8488 36.2091 32.1488 36.2091 34.9488V37.4488Z" fill="#001452"/>
</g>
</svg>
