<svg width="62" height="62" viewBox="0 0 62 62" fill="none" xmlns="http://www.w3.org/2000/svg">
<g id="283 - Arrows, break, breaking, forward, limits">
<g id="Group">
<path id="Vector 16" d="M29 2L18 16L23.5 17.5V60H35.5V17.5L41 16L29 2Z" fill="#DBDAFD"/>
<path id="Vector" d="M60.6756 58.6788H45.5356V49.7988H50.5856C51.0856 49.7988 51.4956 49.4988 51.6956 49.0888C51.8956 48.6888 51.7956 48.0788 51.4956 47.7788L38.8756 32.6388C38.3756 32.0288 37.3656 32.0288 36.8556 32.7388L36.6556 33.0388V18.2988H41.7056C42.2056 18.2988 42.6156 17.9988 42.8156 17.5888C43.0156 17.1888 42.9156 16.5788 42.6156 16.2788L29.9956 1.14884C29.4956 0.538836 28.4856 0.538836 27.9756 1.24884L16.5656 16.3888C16.2656 16.7888 16.2656 17.2988 16.4656 17.6988C16.6656 18.0988 17.0756 18.4088 17.5756 18.4088H22.6256V25.8788C22.6256 26.5888 23.2356 27.1888 23.9356 27.1888C24.6356 27.1888 25.2456 26.5788 25.2456 25.8788V16.9988C25.2456 16.2888 24.6356 15.6888 23.9356 15.6888H20.0956L28.9856 3.87884L38.9756 15.7888H29.0856C28.3756 15.7888 27.7756 16.3988 27.7756 17.0988C27.7756 17.7988 28.3856 18.4088 29.0856 18.4088H34.1356V35.9688C34.1356 36.0688 34.1356 36.1688 34.2356 36.2688L25.5556 47.8788C25.2556 48.2788 25.2556 48.7888 25.4556 49.1888C25.6556 49.5888 26.0656 49.8988 26.5656 49.8988H31.6156V58.7788H24.0456V38.5888H29.0956C29.5956 38.5888 30.0056 38.2888 30.2056 37.8788C30.4056 37.4788 30.3056 36.8688 30.0056 36.5688L17.4856 21.2288C16.9856 20.6188 15.9756 20.6188 15.4656 21.3288L4.05562 36.4688C3.75563 36.8688 3.75563 37.3788 3.95563 37.7788C4.15562 38.1788 4.56563 38.4888 5.06563 38.4888H10.1156V58.6788H1.32562C0.615625 58.6788 0.015625 59.2888 0.015625 59.9888C0.015625 60.6888 0.625625 61.2988 1.32562 61.2988H60.6756C61.3856 61.2988 61.9856 60.6888 61.9856 59.9888C61.8856 59.2788 61.2756 58.6788 60.6756 58.6788Z" fill="#DBDAFD"/>
<path id="Vector_2" d="M60.6756 58.6788H45.5356V49.7988H50.5856C51.0856 49.7988 51.4956 49.4988 51.6956 49.0888C51.8956 48.6888 51.7956 48.0788 51.4956 47.7788L38.8756 32.6388C38.3756 32.0288 37.3656 32.0288 36.8556 32.7388L36.6556 33.0388V18.2988H41.7056C42.2056 18.2988 42.6156 17.9988 42.8156 17.5888C43.0156 17.1888 42.9156 16.5788 42.6156 16.2788L29.9956 1.14884C29.4956 0.538836 28.4856 0.538836 27.9756 1.24884L16.5656 16.3888C16.2656 16.7888 16.2656 17.2988 16.4656 17.6988C16.6656 18.0988 17.0756 18.4088 17.5756 18.4088H22.6256V25.8788C22.6256 26.5888 23.2356 27.1888 23.9356 27.1888C24.6356 27.1888 25.2456 26.5788 25.2456 25.8788V16.9988C25.2456 16.2888 24.6356 15.6888 23.9356 15.6888H20.0956L28.9856 3.87884L38.9756 15.7888H29.0856C28.3756 15.7888 27.7756 16.3988 27.7756 17.0988C27.7756 17.7988 28.3856 18.4088 29.0856 18.4088H34.1356V35.9688C34.1356 36.0688 34.1356 36.1688 34.2356 36.2688L25.5556 47.8788C25.2556 48.2788 25.2556 48.7888 25.4556 49.1888C25.6556 49.5888 26.0656 49.8988 26.5656 49.8988H31.6156V58.7788H24.0456V38.5888H29.0956C29.5956 38.5888 30.0056 38.2888 30.2056 37.8788C30.4056 37.4788 30.3056 36.8688 30.0056 36.5688L17.4856 21.2288C16.9856 20.6188 15.9756 20.6188 15.4656 21.3288L4.05562 36.4688C3.75563 36.8688 3.75563 37.3788 3.95563 37.7788C4.15562 38.1788 4.56563 38.4888 5.06563 38.4888H10.1156V58.6788H1.32562C0.615625 58.6788 0.015625 59.2888 0.015625 59.9888C0.015625 60.6888 0.625625 61.2988 1.32562 61.2988H60.6756C61.3856 61.2988 61.9856 60.6888 61.9856 59.9888C61.8856 59.2788 61.2756 58.6788 60.6756 58.6788ZM12.7356 58.6788V37.2788C12.7356 36.5688 12.1256 35.9688 11.4256 35.9688H7.58563L16.4656 24.1588L26.3556 35.9688H16.4656C15.7556 35.9688 15.1556 36.5788 15.1556 37.2788C15.1556 37.9788 15.7656 38.5888 16.4656 38.5888H21.5156V58.7788H12.7356V58.6788ZM34.1356 58.6788V48.5888C34.1356 47.8788 33.5256 47.2788 32.8256 47.2788H28.9856L37.8656 35.4688L47.7556 47.2788H37.8656C37.1556 47.2788 36.5556 47.8888 36.5556 48.5888C36.5556 49.2888 37.1656 49.8988 37.8656 49.8988H42.9156V58.7788H34.1356V58.6788Z" fill="#001452"/>
<path id="Vector_3" d="M1.32562 25.8778H8.89563C9.60563 25.8778 10.2056 25.2678 10.2056 24.5678C10.2056 23.8678 9.59562 23.2578 8.89563 23.2578H1.32562C0.615625 23.2578 0.015625 23.8678 0.015625 24.5678C0.015625 25.2678 0.625625 25.8778 1.32562 25.8778Z" fill="#001452"/>
<path id="Vector_4" d="M39.1752 23.3594C38.4652 23.3594 37.8652 23.9694 37.8652 24.6694C37.8652 25.3694 38.4752 25.9794 39.1752 25.9794H59.3652C60.0752 25.9794 60.6752 25.3694 60.6752 24.6694C60.6752 23.9694 60.0652 23.3594 59.3652 23.3594H39.1752Z" fill="#001452"/>
<path id="Vector_5" d="M48.0561 20.827H58.1461C58.8561 20.827 59.4561 20.217 59.4561 19.517C59.4561 18.817 58.8461 18.207 58.1461 18.207H48.0561C47.3461 18.207 46.7461 18.817 46.7461 19.517C46.7461 20.217 47.3561 20.827 48.0561 20.827Z" fill="#001452"/>
<path id="Vector_6" d="M12.7358 8.21922H20.3058C21.0158 8.21922 21.6158 7.60922 21.6158 6.90922C21.6158 6.20922 20.9058 5.69922 20.3058 5.69922H12.7358C12.0258 5.69922 11.4258 6.30922 11.4258 7.00922C11.4258 7.70922 12.0358 8.21922 12.7358 8.21922Z" fill="#001452"/>
<path id="Vector_7" d="M9.80633 7.80828C10.3063 7.30828 10.3063 6.49828 9.80633 5.98828C9.30633 5.48828 8.49633 5.48828 7.98633 5.98828C7.48633 6.48828 7.48633 7.29828 7.98633 7.80828C8.48633 8.30828 9.59633 8.10828 9.80633 7.80828Z" fill="#001452"/>
<path id="Vector_8" d="M5.97625 7.80828C6.47625 7.30828 6.47625 6.49828 5.97625 5.98828C5.47625 5.48828 4.66625 5.48828 4.15625 5.98828C3.65625 6.48828 3.65625 7.29828 4.15625 7.80828C4.76625 8.30828 5.76625 8.10828 5.97625 7.80828Z" fill="#001452"/>
</g>
</g>
</svg>
