<svg width="58" height="56" viewBox="0 0 58 56" fill="none" xmlns="http://www.w3.org/2000/svg">
<g id="Group 21">
<path id="Vector" d="M48.9238 33.6C50.4438 35.1 50.4438 37.4 48.9238 38.9L55.5038 45.4C57.9338 47.8 57.9338 51.8 55.5038 54.2C53.0738 56.6 49.0338 56.6 46.6038 54.2L40.0238 47.7C38.5038 49.2 36.1838 49.2 34.6638 47.7C33.1438 46.2 33.1438 43.9 34.6638 42.4L32.2338 40C29.1038 41.7 25.6638 42.5 22.2238 42.5C10.3838 42.5 0.673828 33.1 0.673828 21.3C0.673828 9.5 10.3938 0 22.2238 0C34.0538 0 43.6638 9.6 43.6638 21.3C43.6638 24.8 42.7538 28.2 41.1338 31.2L43.5638 33.6C45.0838 32.1 47.4038 32.1 48.9238 33.6Z" fill="#DBDAFD"/>
<path id="Vector_2" d="M48.9238 38.9C50.4438 37.4 50.4438 35.1 48.9238 33.6C47.4038 32.1 45.0838 32.1 43.5638 33.6L41.1338 31.2C42.7538 28.2 43.6638 24.8 43.6638 21.3C43.6638 9.6 34.0538 0 22.2238 0C10.3938 0 0.673828 9.5 0.673828 21.3C0.673828 33.1 10.3838 42.5 22.2238 42.5C25.6638 42.5 29.1038 41.7 32.2338 40L34.6638 42.4C33.1438 43.9 33.1438 46.2 34.6638 47.7C36.1838 49.2 38.5038 49.2 40.0238 47.7L46.6038 54.2C49.0338 56.6 53.0738 56.6 55.5038 54.2C57.9338 51.8 57.9338 47.8 55.5038 45.4L48.9238 38.9ZM8.76383 34.5C5.22383 31 3.20383 26.2 3.20383 21.2C3.20383 10.8 11.7038 2.4 22.2238 2.4C32.7438 2.4 41.1438 10.8 41.1438 21.2C41.1438 24.6 40.2338 27.8 38.5138 30.7C38.5138 30.7 38.5138 30.8 38.4138 30.8C37.6038 32.1 36.6938 33.4 35.4838 34.5C28.2038 41.8 16.1638 41.8 8.77383 34.5H8.76383ZM34.4538 38.6C36.5738 37.1 38.4038 35.3 39.8138 33.3L41.8338 35.3L36.4738 40.6L34.4538 38.6ZM36.4738 45.9C35.9638 45.4 35.9638 44.6 36.4738 44.1C37.7938 42.8 44.1638 36.5 45.3738 35.3C45.8838 34.8 46.6938 34.8 47.1938 35.3C47.7038 35.8 47.7038 36.6 47.1938 37.1C47.1938 37.1 38.1938 46 38.2938 45.9C37.6838 46.4 36.8738 46.4 36.4738 45.9ZM53.7738 52.5C52.2538 54 49.9338 54 48.4138 52.5L41.8338 46L47.1938 40.7L53.7738 47.2C55.1938 48.6 55.1938 51 53.7738 52.5Z" fill="#001452"/>
<path id="Vector_3" d="M31.9338 11.4992C26.4738 6.09922 17.6737 6.09922 12.3138 11.4992C6.85375 16.7992 6.85375 25.4992 12.3138 30.8992C17.7738 36.2992 26.5737 36.2992 31.9338 30.8992C37.3937 25.5992 37.3937 16.7992 31.9338 11.4992ZM30.2138 29.1992C28.0938 31.2992 25.1538 32.4992 22.1238 32.4992C15.8538 32.4992 10.6938 27.4992 10.6938 21.2992C10.6938 15.0992 15.8538 10.0992 22.1238 10.0992C25.0538 10.0992 27.9938 11.1992 30.2138 13.3992C34.6637 17.5992 34.6637 24.7992 30.2138 29.1992Z" fill="#001452"/>
<path id="Vector_4" d="M16.0544 15.2016C15.5444 15.7016 15.5444 16.5016 16.0544 17.0016C16.5644 17.5016 17.3644 17.5016 17.8744 17.0016C20.2044 14.7016 24.0444 14.7016 26.3744 17.0016C26.8844 17.5016 27.6844 17.5016 28.1944 17.0016C28.7044 16.5016 28.7044 15.7016 28.1944 15.2016C24.8544 11.9016 19.3944 11.9016 16.0544 15.2016Z" fill="#001452"/>
</g>
</svg>
