<svg width="56" height="62" viewBox="0 0 56 62" fill="none" xmlns="http://www.w3.org/2000/svg">
<g id="1897, Insurance, Job, Man, Person, Protection">
<g id="Group">
<path id="Vector" d="M55.1281 12.6945C55.0281 12.0945 54.6181 11.5945 54.0181 11.5945C46.7381 10.7945 41.9781 7.99453 39.1481 5.79453C36.1181 3.39453 34.7981 1.09453 34.7981 1.09453C34.5981 0.694531 34.0881 0.394531 33.6881 0.394531C33.1881 0.394531 32.7781 0.694531 32.5781 1.09453C32.5781 1.09453 30.7581 4.19453 26.5081 7.09453C25.8981 7.49453 25.7981 8.29453 26.2081 8.89453C26.6181 9.49453 27.4181 9.59453 28.0281 9.19453C30.8581 7.29453 32.6781 5.29453 33.7981 3.99453C34.6081 4.99453 35.8181 6.39453 37.5381 7.79453C40.4681 10.1945 45.4281 13.1945 52.8081 14.0945C53.0081 16.5945 53.3181 23.2945 51.6981 31.0945C49.0681 44.0945 42.7981 53.5945 33.1881 59.2945C32.5781 59.6945 32.3781 60.3945 32.7781 60.9945C33.1881 61.5945 33.8881 61.7945 34.4981 61.3945C45.6281 54.8945 51.7981 43.9945 54.2281 31.4945C56.1481 21.2945 55.2381 12.9945 55.1381 12.6945H55.1281Z" fill="#001452"/>
<path id="Vector_2" d="M33.7882 20.1953C34.9982 21.5953 37.4282 23.3953 41.3782 24.0953C41.4782 27.2953 41.2782 37.6953 33.1882 42.4953C32.5782 42.8953 32.3782 43.5953 32.7782 44.1953C33.1882 44.7953 33.8882 44.9953 34.4982 44.5953C39.1482 41.8953 42.1882 37.1953 43.3982 31.0953C44.3082 26.5953 43.9082 22.8953 43.9082 22.6953C43.8082 22.0953 43.3982 21.5953 42.7982 21.5953C37.2382 20.9953 35.1082 17.4953 35.0082 17.3953C34.8082 16.9953 34.3982 16.6953 33.8982 16.6953C33.3982 16.6953 32.9882 16.8953 32.7882 17.3953C32.7882 17.3953 31.4782 19.6953 28.1382 20.8953C27.4282 21.0953 27.1282 21.8953 27.4282 22.4953C27.7282 23.1953 28.4382 23.4953 29.0482 23.1953C31.3782 22.4953 32.8882 21.1953 33.7982 20.1953H33.7882Z" fill="#001452"/>
<path id="Vector_3" d="M23.8186 7.99453C23.8186 10.3945 22.7086 12.4945 20.9886 13.8945H20.9786C27.0486 15.8945 31.4986 21.5945 31.4986 28.3945V47.3945C31.4986 48.0945 30.8986 48.6945 30.1886 48.6945H26.3486V60.1945C26.3486 60.8945 25.7486 61.4945 25.0386 61.4945L7.03219 61.5945C7.02766 61.5945 7.02313 61.5945 7.01859 61.5945C6.31859 61.5945 5.70859 60.9945 5.70859 60.2945V48.7945H1.86859C1.16859 48.7945 0.558594 48.1945 0.558594 47.4945V28.3945C0.558594 21.5945 5.00859 15.8945 11.2686 13.8945C9.54859 12.4945 8.43859 10.3945 8.43859 7.99453C8.43859 3.79453 11.8786 0.394531 16.1286 0.394531C20.3786 0.394531 23.8186 3.79453 23.8186 7.99453Z" fill="#DBDAFD"/>
<path id="Vector_4" d="M16.0387 41.0938C15.3287 41.0938 14.7188 41.6937 14.7188 42.3937V60.1937C14.7188 60.8937 15.3287 61.4937 16.0387 61.4937C16.7487 61.4937 17.3488 60.8937 17.3488 60.1937V42.3937C17.3488 41.6937 16.7387 41.0938 16.0387 41.0938Z" fill="#001452"/>
<path id="Vector_5" d="M20.9886 13.8945C22.7086 12.4945 23.8186 10.3945 23.8186 7.99453C23.8186 3.79453 20.3786 0.394531 16.1286 0.394531C11.8786 0.394531 8.43859 3.79453 8.43859 7.99453C8.43859 10.3945 9.54859 12.4945 11.2686 13.8945C5.00859 15.8945 0.558594 21.5945 0.558594 28.3945V47.4945C0.558594 48.1945 1.16859 48.7945 1.86859 48.7945H5.70859V60.2945C5.70859 60.9945 6.31859 61.5945 7.01859 61.5945C7.71859 61.5945 8.33859 60.9945 8.33859 60.2945V34.6945C8.33859 33.9945 7.72859 33.3945 7.01859 33.3945C6.30859 33.3945 5.70859 33.9945 5.70859 34.6945V46.1945H3.17859V28.3945C3.17859 21.3945 8.94859 15.6945 16.0286 15.6945C23.1086 15.6945 28.8786 21.3945 28.8786 28.3945V46.1945H26.3486V34.6945C26.3486 33.9945 25.7386 33.3945 25.0386 33.3945C24.3386 33.3945 23.7186 33.9945 23.7186 34.6945V60.1945C23.7186 60.8945 24.3286 61.4945 25.0386 61.4945C25.7486 61.4945 26.3486 60.8945 26.3486 60.1945V48.6945H30.1886C30.8986 48.6945 31.4986 48.0945 31.4986 47.3945V28.3945C31.4986 21.5945 27.0486 15.8945 20.9786 13.8945H20.9886ZM10.8686 7.99453C10.8686 5.19453 13.1986 2.89453 16.0286 2.89453C18.8586 2.89453 21.1886 5.19453 21.1886 7.99453C21.1886 10.7945 18.8586 13.0945 16.0286 13.0945C13.1986 13.0945 10.8686 10.7945 10.8686 7.99453Z" fill="#001452"/>
<path id="Vector_6" d="M17.2488 24.4961H14.7188V26.9961H17.2488V24.4961Z" fill="#001452"/>
<path id="Vector_7" d="M17.2488 29.5938H14.7188V32.0938H17.2488V29.5938Z" fill="#001452"/>
<path id="Vector_8" d="M17.2488 34.6953H14.7188V37.1953H17.2488V34.6953Z" fill="#001452"/>
</g>
</g>
</svg>
