<svg width="54" height="58" viewBox="0 0 54 58" fill="none" xmlns="http://www.w3.org/2000/svg">
<g id="505, Cv, Job, Job Search">
<g id="Group">
<path id="Vector" d="M4.97516 57.375H36.3252L36.3352 57.385C38.8552 57.385 40.8752 55.365 40.7752 52.845V5.05499C40.7752 2.63499 38.7552 0.61499 36.3352 0.61499H4.97516C2.55516 0.61499 0.535156 2.63499 0.535156 5.05499V52.935C0.535156 55.355 2.55516 57.375 4.97516 57.375Z" fill="#DBDAFD"/>
<path id="Vector_2" d="M36.3252 57.375H4.97516C2.55516 57.375 0.535156 55.355 0.535156 52.935V5.05499C0.535156 2.63499 2.55516 0.61499 4.97516 0.61499H36.3352C38.7552 0.61499 40.7752 2.63499 40.7752 5.05499V52.845C40.8752 55.365 38.8552 57.385 36.3352 57.385L36.3252 57.375ZM4.97516 3.13499C3.86516 3.13499 3.05516 4.04499 3.05516 5.04499V52.835C3.05516 53.945 3.96516 54.755 4.97516 54.755H36.3352C37.4452 54.755 38.2552 53.845 38.2552 52.835V5.05499C38.2552 3.94499 37.3452 3.14499 36.3352 3.14499H4.97516V3.13499Z" fill="#001452"/>
<path id="Vector_3" d="M43.3848 52.335C43.3848 55.155 45.6048 57.375 48.4248 57.375C51.1448 57.375 53.4648 55.055 53.4648 52.335V20.775C53.4648 20.065 52.8648 19.465 52.1548 19.465H44.6948C43.9848 19.465 43.3848 20.065 43.3848 20.775V52.335Z" fill="#DBDAFD"/>
<path id="Vector_4" d="M44.5952 22.085H52.1552C52.8652 22.085 53.4652 21.485 53.5652 20.775V16.945C53.5652 16.735 53.4652 16.535 53.3652 16.335L49.5352 9.98498C49.2352 9.58498 48.9252 9.38498 48.4252 9.38498C47.9252 9.38498 47.5152 9.58498 47.3152 9.98498L43.4852 16.335C43.3852 16.545 43.2852 16.745 43.2852 16.945V20.775C43.2852 21.485 43.8852 22.085 44.5952 22.085Z" fill="#DBDAFD"/>
<path id="Vector_5" d="M48.4248 57.375C45.6048 57.375 43.3848 55.155 43.3848 52.335V20.775C43.3848 20.065 43.9848 19.465 44.6948 19.465H52.1548C52.8648 19.465 53.4648 20.065 53.4648 20.775V52.335C53.4648 55.055 51.1448 57.375 48.4248 57.375ZM45.9048 22.085V52.335C45.9048 53.745 47.0148 54.855 48.4248 54.855C49.8348 54.855 50.9448 53.745 50.9448 52.335V22.085H45.9048Z" fill="#001452"/>
<path id="Vector_6" d="M52.1552 22.085H44.5952C43.8852 22.085 43.2852 21.485 43.2852 20.775V16.945C43.2852 16.745 43.3852 16.545 43.4852 16.335L47.3152 9.98498C47.5152 9.58498 47.9252 9.38498 48.4252 9.38498C48.9252 9.38498 49.2352 9.58498 49.5352 9.98498L53.3652 16.335C53.4652 16.535 53.5652 16.735 53.5652 16.945V20.775C53.4652 21.485 52.8652 22.085 52.1552 22.085ZM45.9052 19.565H50.9452V17.345L48.4252 13.115L45.9052 17.345V19.565Z" fill="#001452"/>
<path id="Vector_7" d="M11.2262 24.615C8.09617 24.615 5.57617 22.095 5.57617 18.965C5.57617 15.835 8.09617 13.315 11.2262 13.315C11.9362 13.315 12.5362 13.925 12.5362 14.625C12.5362 15.325 11.9362 15.935 11.2262 15.935C9.51617 15.935 8.09617 17.345 8.09617 19.055C8.09617 20.765 9.50617 22.185 11.2262 22.185C11.9362 22.185 12.5362 22.785 12.5362 23.495C12.4362 23.995 11.9362 24.605 11.2262 24.605V24.615Z" fill="#001452"/>
<path id="Vector_8" d="M31.9965 20.775H20.7065C19.9965 20.775 19.3965 20.175 19.3965 19.465C19.3965 18.755 19.9965 18.155 20.7065 18.155H31.9965C32.7065 18.155 33.3065 18.755 33.3065 19.465C33.3065 20.175 32.6965 20.775 31.9965 20.775Z" fill="#001452"/>
<path id="Vector_9" d="M28.2665 17.045H20.7065C19.9965 17.045 19.3965 16.445 19.3965 15.735C19.3965 15.025 19.9965 14.425 20.7065 14.425H28.2665C28.9765 14.425 29.5765 15.025 29.5765 15.735C29.4765 16.445 28.8665 17.045 28.2665 17.045Z" fill="#001452"/>
<path id="Vector_10" d="M34.5165 24.615H20.7065C19.9965 24.615 19.3965 24.015 19.3965 23.305C19.3965 22.595 19.9965 21.995 20.7065 21.995H34.6165C35.3265 21.995 35.9265 22.605 35.9265 23.305C35.8265 24.015 35.2165 24.615 34.5165 24.615Z" fill="#001452"/>
<path id="Vector_11" d="M11.2262 38.425C8.09617 38.425 5.57617 35.905 5.57617 32.775C5.57617 29.645 8.09617 27.125 11.2262 27.125C14.3562 27.125 16.8762 29.645 16.8762 32.775C16.8762 35.905 14.3562 38.425 11.2262 38.425ZM11.2262 29.655C9.51617 29.655 8.09617 31.065 8.09617 32.785C8.09617 34.505 9.50617 35.905 11.2262 35.905C12.9462 35.905 14.3562 34.495 14.3562 32.785C14.3562 31.075 12.9462 29.655 11.2262 29.655Z" fill="#001452"/>
<path id="Vector_12" d="M31.9965 34.695H20.7065C19.9965 34.695 19.3965 34.095 19.3965 33.385C19.3965 32.675 19.9965 32.075 20.7065 32.075H31.9965C32.7065 32.075 33.3065 32.685 33.3065 33.385C33.3065 34.085 32.6965 34.695 31.9965 34.695Z" fill="#001452"/>
<path id="Vector_13" d="M28.2665 30.865H20.7065C19.9965 30.865 19.3965 30.265 19.3965 29.555C19.3965 28.845 19.9965 28.245 20.7065 28.245H28.2665C28.9765 28.245 29.5765 28.845 29.5765 29.555C29.5765 30.265 28.8665 30.865 28.2665 30.865Z" fill="#001452"/>
<path id="Vector_14" d="M34.5165 38.425H20.7065C19.9965 38.425 19.3965 37.825 19.3965 37.115C19.3965 36.405 19.9965 35.805 20.7065 35.805H34.6165C35.3265 35.805 35.9265 36.415 35.9265 37.115C35.9265 37.815 35.2165 38.425 34.5165 38.425Z" fill="#001452"/>
<path id="Vector_15" d="M11.2262 52.335C8.09617 52.335 5.57617 49.815 5.57617 46.685C5.57617 43.555 8.09617 41.035 11.2262 41.035C14.3562 41.035 16.8762 43.455 16.8762 46.575C16.8762 49.695 14.3562 52.325 11.2262 52.325V52.335ZM11.2262 43.465C9.51617 43.465 8.09617 44.875 8.09617 46.595C8.09617 48.315 9.50617 49.725 11.2262 49.725C12.9462 49.725 14.3562 48.315 14.3562 46.595C14.3562 44.875 12.9462 43.465 11.2262 43.465Z" fill="#001452"/>
<path id="Vector_16" d="M31.9965 48.505H20.7065C19.9965 48.505 19.3965 47.895 19.3965 47.195C19.3965 46.495 19.9965 45.885 20.7065 45.885H31.9965C32.7065 45.885 33.3065 46.495 33.3065 47.195C33.3065 47.895 32.6965 48.505 31.9965 48.505Z" fill="#001452"/>
<path id="Vector_17" d="M28.2665 44.775H20.7065C19.9965 44.775 19.3965 44.165 19.3965 43.465C19.3965 42.765 19.9965 42.155 20.7065 42.155H28.2665C28.9765 42.155 29.5765 42.765 29.5765 43.465C29.4765 44.175 28.8665 44.775 28.2665 44.775Z" fill="#001452"/>
<path id="Vector_18" d="M34.5165 52.335H20.7065C19.9965 52.335 19.3965 51.725 19.3965 51.025C19.3965 50.325 19.9965 49.715 20.7065 49.715H34.6165C35.3265 49.715 35.9265 50.315 35.9265 51.025C35.8265 51.735 35.2165 52.335 34.5165 52.335Z" fill="#001452"/>
<path id="Vector_19" d="M28.2655 9.48499H1.74555C1.03555 9.48499 0.435547 8.88499 0.435547 8.17499C0.435547 7.46499 1.04555 6.86499 1.74555 6.86499H28.2655C28.9755 6.86499 29.5755 7.46499 29.5755 8.17499C29.4755 8.88499 28.8655 9.48499 28.2655 9.48499Z" fill="#001452"/>
<path id="Vector_20" d="M33.3055 9.48499H31.9955C31.2855 9.48499 30.6855 8.88499 30.6855 8.17499C30.6855 7.46499 31.2855 6.86499 31.9955 6.86499H33.3055C34.0155 6.86499 34.6155 7.46499 34.6155 8.17499C34.5155 8.88499 33.9055 9.48499 33.3055 9.48499Z" fill="#001452"/>
<path id="Vector_21" d="M11.8255 20.775C11.5255 20.775 11.2255 20.675 10.9155 20.375L9.60547 19.065C9.10547 18.565 9.10547 17.755 9.60547 17.255C10.1055 16.755 10.9155 16.755 11.4155 17.255L11.9155 17.755L14.8355 15.835C15.4355 15.435 16.2455 15.635 16.5455 16.135C16.9455 16.735 16.7455 17.545 16.2455 17.845L12.4155 20.365C12.3155 20.665 12.0155 20.765 11.8055 20.765L11.8255 20.775Z" fill="#001452"/>
</g>
</g>
</svg>
