<svg width="64" height="63" viewBox="0 0 64 63" fill="none" xmlns="http://www.w3.org/2000/svg">
<g id="1922, Audience, Goal, Marketing, Person, Recruitment">
<g id="Group">
<path id="Vector" d="M61.6492 30.1998H57.8092C57.1992 17.1998 46.5792 6.6998 33.3292 5.9998V2.0998C33.3292 1.3998 32.7192 0.799805 32.0192 0.799805C31.3192 0.799805 30.7092 1.3998 30.7092 2.0998V5.9998C17.5592 6.5998 6.93922 17.0998 6.22922 30.1998H2.25922C1.54922 30.1998 0.949219 30.7998 0.949219 31.4998C0.949219 32.1998 1.55922 32.7998 2.25922 32.7998H6.20922C6.81922 45.7998 17.4392 56.2998 30.6892 56.9998V60.8998C30.6892 61.5998 31.2992 62.1998 31.9992 62.1998C32.6992 62.1998 33.3092 61.5998 33.3092 60.8998V56.9998C46.4592 56.3998 57.0792 45.8998 57.7892 32.7998H61.7392C62.4492 32.7998 63.0492 32.1998 63.0492 31.4998C62.9492 30.7998 62.3392 30.1998 61.6292 30.1998H61.6492Z" fill="#DBDAFD"/>
<path id="Vector_2" d="M61.6492 30.1998H57.8092C57.1992 17.1998 46.5792 6.6998 33.3292 5.9998V2.0998C33.3292 1.3998 32.7192 0.799805 32.0192 0.799805C31.3192 0.799805 30.7092 1.3998 30.7092 2.0998V5.9998C17.5592 6.5998 6.93922 17.0998 6.22922 30.1998H2.25922C1.54922 30.1998 0.949219 30.7998 0.949219 31.4998C0.949219 32.1998 1.55922 32.7998 2.25922 32.7998H6.20922C6.81922 45.7998 17.4392 56.2998 30.6892 56.9998V60.8998C30.6892 61.5998 31.2992 62.1998 31.9992 62.1998C32.6992 62.1998 33.3092 61.5998 33.3092 60.8998V56.9998C46.4592 56.3998 57.0792 45.8998 57.7892 32.7998H61.7392C62.4492 32.7998 63.0492 32.1998 63.0492 31.4998C62.9492 30.7998 62.3392 30.1998 61.6292 30.1998H61.6492ZM55.1792 30.1998H48.7092C48.0992 22.0998 41.5292 15.5998 33.3292 14.9998V8.5998C45.0592 9.19981 54.5692 18.5998 55.1792 30.1998ZM42.3292 32.7998H46.1692C45.5592 39.4998 40.0992 44.8998 33.3192 45.4998V41.6998C33.3192 40.9998 32.7092 40.3998 32.0092 40.3998C31.3092 40.3998 30.6992 40.9998 30.6992 41.6998V45.4998C23.9192 44.8998 18.4592 39.4998 17.8492 32.7998H21.6892C22.3992 32.7998 23.0092 32.1998 23.0092 31.4998C23.0092 30.7998 22.3992 30.1998 21.6892 30.1998H17.8492C18.4592 23.4998 23.9192 18.0998 30.6992 17.4998V21.2998C30.6992 21.9998 31.3092 22.5998 32.0092 22.5998C32.7092 22.5998 33.3192 21.9998 33.3192 21.2998V17.4998C40.0992 18.0998 45.5592 23.4998 46.1692 30.1998H42.3292C41.6192 30.1998 41.0092 30.7998 41.0092 31.4998C41.0092 32.1998 41.6192 32.7998 42.3292 32.7998ZM30.6892 8.5998V14.9998C22.4992 15.5998 15.9192 22.0998 15.3092 30.1998H8.83922C9.44922 18.5998 18.9592 9.19981 30.6892 8.5998ZM8.83922 32.7998H15.3092C15.9192 40.8998 22.4892 47.3998 30.6892 47.9998V54.3998C18.9592 53.7998 9.44922 44.3998 8.83922 32.7998ZM33.3192 54.3998V47.9998C41.5092 47.3998 48.0892 40.8998 48.6992 32.7998H55.1692C54.5592 44.3998 45.0492 53.7998 33.3192 54.3998Z" fill="#001452"/>
<path id="Vector_3" d="M35.2391 29.7994C35.6391 29.1994 35.8491 28.4994 35.8491 27.6994C35.8491 25.5994 34.1291 23.8994 32.0091 23.8994C29.8891 23.8994 28.1691 25.5994 28.1691 27.6994C28.1691 28.4994 28.3691 29.1994 28.7791 29.7994C26.8591 30.8994 25.5391 32.9994 25.5391 35.2994V37.7994C25.5391 38.4994 26.1491 39.0994 26.8491 39.0994H37.1691C37.8791 39.0994 38.4891 38.4994 38.4891 37.7994V35.2994C38.4891 32.9994 37.1691 30.8994 35.2491 29.7994H35.2391ZM30.6891 27.6994C30.6891 26.9994 31.2991 26.3994 31.9991 26.3994C32.6991 26.3994 33.3091 26.9994 33.3091 27.6994C33.3091 28.3994 32.6991 28.9994 31.9991 28.9994C31.2991 28.9994 30.6891 28.3994 30.6891 27.6994ZM35.8491 36.5994H28.1591V35.2994C28.1591 33.1994 29.8791 31.4994 31.9991 31.4994C34.1191 31.4994 35.8391 33.1994 35.8391 35.2994V36.5994H35.8491Z" fill="#001452"/>
</g>
</g>
</svg>
