<svg width="56" height="62" viewBox="0 0 56 62" fill="none" xmlns="http://www.w3.org/2000/svg">
<g id="433, hat, human, Empathy, feelings">
<g id="Group">
<path id="Vector" d="M6.40047 5.22421C14.5405 -2.30579 27.8905 -0.995793 34.3205 8.04421H34.3305C45.1805 6.53421 55.0205 14.4742 55.0205 25.0142V35.0542C55.0205 35.7642 54.4205 36.3642 53.7205 36.3642H51.6105V46.4042C51.6105 47.1142 51.0005 47.7142 50.3005 47.7142H43.9705V60.3642C43.9705 61.0742 43.3605 61.6742 42.6605 61.6742H20.0705C19.3605 61.6742 18.7605 61.0642 18.7605 60.3642V54.0342H13.7405C13.0305 54.0342 12.4305 53.4242 12.4305 52.7242V40.1742H6.10047C5.39047 40.1742 4.79047 39.5642 4.79047 38.8642V28.8242H2.28047C1.58047 28.8242 0.980469 28.2142 0.980469 27.5142V17.4742C0.980469 12.8542 2.89047 8.44421 6.40047 5.22421Z" fill="#DBDAFD"/>
<path id="Vector_2" d="M34.3205 8.04421C27.8905 -0.995793 14.5405 -2.30579 6.40047 5.22421C2.89047 8.44421 0.980469 12.8542 0.980469 17.4742V27.5142C0.980469 28.2142 1.58047 28.8242 2.28047 28.8242H4.79047V38.8642C4.79047 39.5642 5.39047 40.1742 6.10047 40.1742H12.4305V52.7242C12.4305 53.4242 13.0305 54.0342 13.7405 54.0342H18.7605V60.3642C18.7605 61.0642 19.3605 61.6742 20.0705 61.6742H42.6605C43.3605 61.6742 43.9705 61.0742 43.9705 60.3642V47.7142H50.3005C51.0005 47.7142 51.6105 47.1142 51.6105 46.4042V36.3642H53.7205C54.4205 36.3642 55.0205 35.7642 55.0205 35.0542V25.0142C55.0205 14.4742 45.1805 6.53421 34.3305 8.04421H34.3205ZM13.5305 37.6642H7.20047V27.6242C7.20047 26.9242 6.60047 26.3142 5.89047 26.3142H3.48047V17.4742C3.48047 9.34421 10.5105 2.81421 19.0505 2.81421C23.9705 2.81421 28.5905 5.02421 31.6005 8.53421C24.2705 10.6442 18.5505 17.0742 18.5505 25.0042C18.5505 25.7042 19.1505 26.3142 19.8505 26.3142C20.5505 26.3142 21.1605 25.7142 21.1605 25.0042C21.1605 18.0742 26.2805 12.3542 33.2105 10.7442C34.3205 12.7542 35.0205 15.0642 35.0205 17.4742V51.4142H14.9405V38.8642C14.8405 38.1642 14.2405 37.6542 13.5305 37.6542V37.6642ZM52.4905 33.8442H49.9805C49.2805 33.8442 48.6705 34.4442 48.6705 35.1542V45.1942H42.3405C41.6405 45.1942 41.0305 45.7942 41.0305 46.5042V59.0542H20.9505V54.0342H36.0105C36.7105 54.0342 37.3105 53.4342 37.3105 52.7242V17.5742C37.3105 15.0642 36.7105 12.6542 35.7005 10.4442C44.8405 9.84421 52.3705 16.6742 52.3705 25.1042V33.8442H52.4705H52.4905Z" fill="#001452"/>
<path id="Vector_3" d="M21.0604 36.3556H31.1004C31.8004 36.3556 32.4104 35.7556 32.4104 35.0456V31.3256C32.4104 30.6256 31.8104 30.0156 31.1004 30.0156C30.3904 30.0156 29.7904 30.6156 29.7904 31.3256V33.8356H22.2604V31.3256C22.2604 30.6256 21.6604 30.0156 20.9504 30.0156C20.2404 30.0156 19.6504 30.6156 19.6504 31.3256V35.1456C19.8504 35.7456 20.3504 36.3556 21.0604 36.3556Z" fill="#001452"/>
</g>
</g>
</svg>
