<svg width="64" height="62" viewBox="0 0 64 62" fill="none" xmlns="http://www.w3.org/2000/svg">
<g id="1911, Abilities, Development, Person, Research, Skills">
<path id="Vector" d="M57.3853 20.6008C61.0353 23.6008 63.0553 27.2008 63.0553 31.0008C63.0553 34.8008 61.0253 38.4008 57.3853 41.4008C57.7853 46.1008 56.6753 50.0008 53.9453 52.7008C51.5153 55.1008 47.7753 56.6008 42.5153 56.1008C39.4853 59.7008 35.8353 61.7008 31.9953 61.7008C28.1553 61.7008 24.5053 59.7008 21.4753 56.1008C17.2253 56.5008 13.0753 55.7008 10.0453 52.7008C7.31531 50.0008 6.09531 46.1008 6.60531 41.4008C2.96531 38.4008 0.945312 34.8008 0.945312 31.0008C0.945312 27.2008 2.96531 23.6008 6.60531 20.6008C6.20531 15.9008 7.31531 12.0008 10.0453 9.30078C12.7753 6.60078 16.7253 5.40078 21.4753 5.90078C24.5053 2.30078 28.1553 0.300781 31.9953 0.300781C35.8353 0.300781 39.4853 2.30078 42.5153 5.90078C47.2653 5.50078 51.2153 6.60078 53.9453 9.30078C56.6753 12.0008 57.8953 15.9008 57.3853 20.6008Z" fill="#DBDAFD"/>
<path id="Vector_2" d="M63.0553 31.0008C63.0553 27.2008 61.0353 23.6008 57.3853 20.6008C57.8953 15.9008 56.6753 12.0008 53.9453 9.30078C51.2153 6.60078 47.2653 5.50078 42.5153 5.90078C39.4853 2.30078 35.8353 0.300781 31.9953 0.300781C28.1553 0.300781 24.5053 2.30078 21.4753 5.90078C16.7253 5.40078 12.7753 6.60078 10.0453 9.30078C7.31531 12.0008 6.20531 15.9008 6.60531 20.6008C2.96531 23.6008 0.945312 27.2008 0.945312 31.0008C0.945312 34.8008 2.96531 38.4008 6.60531 41.4008C6.09531 46.1008 7.31531 50.0008 10.0453 52.7008C13.0753 55.7008 17.2253 56.5008 21.4753 56.1008C24.5053 59.7008 28.1553 61.7008 31.9953 61.7008C35.8353 61.7008 39.4853 59.7008 42.5153 56.1008C47.7753 56.6008 51.5153 55.1008 53.9453 52.7008C56.6753 50.0008 57.7853 46.1008 57.3853 41.4008C61.0253 38.4008 63.0553 34.8008 63.0553 31.0008ZM52.1253 11.2008C53.9453 13.0008 54.9553 15.7008 54.8553 18.9008C52.6253 17.5008 50.2053 16.4008 47.6753 15.6008C46.8653 13.1008 45.7553 10.7008 44.3353 8.50078C44.4353 8.50078 50.5053 9.50078 52.1253 11.2008ZM52.6353 28.2008C51.7253 26.7008 50.7153 25.2008 49.5953 23.8008C49.3953 22.0008 48.9853 20.3008 48.5853 18.6008C50.7053 19.4008 52.7353 20.5008 54.5553 21.8008C54.2553 24.0008 53.5453 26.2008 52.6353 28.2008ZM54.6553 40.2008C52.8353 41.5008 50.7053 42.5008 48.6853 43.4008C49.0853 41.7008 49.4953 40.0008 49.6953 38.2008C50.8053 36.8008 51.8153 35.3008 52.7253 33.8008C53.5353 35.8008 54.2453 38.0008 54.6453 40.2008H54.6553ZM41.4053 53.3008C39.1753 52.9008 36.9553 52.2008 34.9353 51.3008C36.4553 50.4008 37.9753 49.4008 39.3853 48.3008C41.2053 48.1008 42.9253 47.7008 44.6453 47.3008C43.8353 49.4008 42.7253 51.5008 41.4053 53.3008ZM19.5553 47.3008C21.2753 47.7008 22.9953 48.1008 24.8153 48.3008C26.2353 49.4008 27.7453 50.4008 29.2653 51.3008C27.2453 52.2008 25.0153 52.9008 22.7953 53.3008C21.4853 51.5008 20.3653 49.4008 19.5553 47.3008ZM11.5653 33.8008C12.4753 35.3008 13.4853 36.8008 14.5953 38.2008C14.7953 40.0008 15.2053 41.7008 15.6053 43.4008C13.4853 42.6008 11.4553 41.5008 9.63531 40.2008C9.93531 38.0008 10.6453 35.8008 11.5553 33.8008H11.5653ZM9.54531 21.8008C11.3653 20.5008 13.4953 19.5008 15.5153 18.6008C15.1153 20.3008 14.7053 22.0008 14.5053 23.8008C13.3953 25.2008 12.3853 26.7008 11.4753 28.2008C10.6653 26.2008 9.95531 24.0008 9.55531 21.8008H9.54531ZM22.7953 8.70078C25.0253 9.10078 27.2453 9.80078 29.2653 10.7008C27.7453 11.6008 26.2253 12.6008 24.8153 13.7008C22.9953 13.9008 21.2753 14.3008 19.5553 14.7008C20.3653 12.6008 21.4753 10.5008 22.7953 8.70078ZM44.6453 14.7008C42.9253 14.3008 41.2053 13.9008 39.3853 13.7008C37.9653 12.6008 36.4553 11.6008 34.9353 10.7008C37.0553 9.80078 39.1853 9.10078 41.4053 8.70078C42.7153 10.5008 43.8353 12.6008 44.6453 14.7008ZM47.1753 37.2008C45.3553 39.5008 43.3353 41.6008 41.1053 43.6008V38.6008C41.1053 35.2008 39.1853 32.2008 36.2453 30.7008C37.6653 29.5008 38.4753 27.8008 38.4753 25.9008C38.4753 22.4008 35.5453 19.5008 32.0053 19.5008C28.4653 19.5008 25.5353 22.4008 25.5353 25.9008C25.5353 27.8008 26.4453 29.6008 27.7653 30.7008C24.9353 32.2008 22.9053 35.2008 22.9053 38.6008V43.6008C20.6753 41.6008 18.6553 39.4008 16.8353 37.2008C16.3253 33.2008 16.3253 28.9008 16.8353 24.8008C19.3653 21.6008 22.3953 18.6008 25.6353 16.1008C29.6853 15.6008 34.0353 15.6008 38.1753 16.1008C41.4153 18.6008 44.4453 21.6008 46.9753 24.8008C47.6853 28.9008 47.6853 33.1008 47.1753 37.2008ZM25.6253 45.8008V38.7008C25.6253 35.2008 28.5553 32.3008 32.0953 32.3008C35.6353 32.3008 38.5653 35.2008 38.5653 38.7008V45.8008C38.4986 45.8674 38.432 45.9341 38.3653 46.0008C34.2153 46.5008 29.9653 46.5008 25.8253 46.0008C25.8253 45.9008 25.7253 45.8008 25.6253 45.8008ZM28.2553 25.9008C28.2553 23.8008 29.9753 22.1008 32.0953 22.1008C34.2153 22.1008 35.9353 23.8008 35.9353 25.9008C35.9353 28.0008 34.2153 29.7008 32.0953 29.7008C29.9753 29.7008 28.2553 28.0008 28.2553 25.9008ZM43.4253 17.0008C44.2353 17.2008 44.9453 17.4008 45.7553 17.6008C45.9553 18.3008 46.1553 19.1008 46.3653 19.9008C45.3553 18.9008 44.4453 17.9008 43.4353 17.0008H43.4253ZM34.1153 13.2008C32.8053 13.2008 31.4853 13.1008 29.9653 13.2008C30.6753 12.8008 31.2753 12.4008 31.9853 12.0008C32.7953 12.4008 33.5053 12.8008 34.1053 13.2008H34.1153ZM20.7653 17.0008C19.7553 17.9008 18.8453 18.8008 17.8353 19.9008C18.0353 19.1008 18.2353 18.4008 18.4453 17.6008C19.2553 17.4008 20.0653 17.2008 20.7753 17.0008H20.7653ZM14.0853 29.0008C14.0853 30.3008 13.9853 31.6008 14.0853 33.1008C13.6853 32.4008 13.2753 31.8008 12.8753 31.1008C13.2753 30.3008 13.6853 29.6008 14.0853 29.0008ZM17.9253 42.2008C18.8353 43.2008 19.7453 44.1008 20.8553 45.1008C20.0453 44.9008 19.3353 44.7008 18.5253 44.5008C18.3253 43.7008 18.1253 42.9008 17.9153 42.2008H17.9253ZM30.0653 48.8008C31.4853 48.9008 32.7953 48.9008 34.2153 48.8008C33.5053 49.2008 32.9053 49.6008 32.1953 50.0008C31.3853 49.6008 30.6753 49.2008 30.0753 48.8008H30.0653ZM43.4153 45.0008C44.4253 44.1008 45.3353 43.2008 46.3453 42.1008C46.1453 42.9008 45.9453 43.6008 45.7353 44.4008C44.9253 44.6008 44.1153 44.8008 43.4053 45.0008H43.4153ZM50.0953 33.0008C50.1953 31.6008 50.1953 30.3008 50.0953 28.9008C50.4953 29.6008 50.9053 30.2008 51.3053 30.9008C50.9053 31.7008 50.4953 32.4008 50.0953 33.0008ZM39.5753 6.50078C37.0453 7.10078 34.5153 8.00078 32.0853 9.20078C29.7553 8.00078 27.2253 7.10078 24.5953 6.50078C29.2453 1.90078 34.8153 1.70078 39.5653 6.50078H39.5753ZM19.8453 8.50078C18.4253 10.7008 17.3153 13.1008 16.5053 15.6008C13.9753 16.4008 11.5453 17.5008 9.32531 18.9008C9.22531 12.5008 13.0653 8.40078 19.8453 8.50078ZM7.30531 23.6008C7.91531 26.1008 8.82531 28.6008 10.0353 31.0008C8.82531 33.3008 7.91531 35.8008 7.30531 38.4008C2.65531 33.8008 2.44531 28.3008 7.30531 23.6008ZM9.32531 43.1008C11.5553 44.5008 13.9753 45.6008 16.5053 46.4008C17.3153 48.9008 18.4253 51.3008 19.8453 53.5008C13.2653 53.6008 9.22531 49.8008 9.32531 43.1008ZM24.5953 55.5008C27.2253 54.9008 29.6553 54.0008 32.0853 52.8008C34.4153 54.0008 36.9453 54.9008 39.5753 55.5008C34.9253 60.1008 29.3553 60.3008 24.6053 55.5008H24.5953ZM44.3253 53.5008C45.7453 51.3008 46.8553 48.9008 47.6653 46.4008C50.1953 45.6008 52.6253 44.5008 54.8453 43.1008C54.9453 49.6008 51.1053 53.6008 44.3253 53.5008ZM54.1353 31.0008C55.3453 28.6008 56.2553 26.1008 56.8653 23.6008C61.6153 28.1008 61.7253 33.7008 56.8653 38.3008C56.2553 35.8008 55.3453 33.4008 54.1353 31.0008Z" fill="#001452"/>
</g>
</svg>
