<svg width="62" height="62" viewBox="0 0 62 62" fill="none" xmlns="http://www.w3.org/2000/svg">
<g id="1903, Company, Company Structure, Corporate, Management, Organization">
<path id="Vector" d="M49.2641 32.3004H42.6841H42.6741V53.9004H49.2541C49.7541 51.0004 52.3841 48.8004 55.5241 48.8004C59.0641 48.8004 61.9941 51.7004 61.9941 55.2004C61.9941 58.7004 59.0641 61.6004 55.5241 61.6004C52.4941 61.6004 49.8641 59.4004 49.2541 56.5004H41.3641C40.6541 56.5004 40.0441 55.9004 40.0441 55.2004V32.3004H33.5741C33.2641 35.2004 32.1541 37.9004 30.3341 40.0004L33.0641 42.7004C33.5741 43.2004 33.5741 44.0004 33.0641 44.5004C32.5641 45.0004 31.7541 45.0004 31.2441 44.5004L28.5141 41.8004C26.3841 43.6004 23.6541 44.7004 20.7241 45.0004V48.9004C20.7241 49.6004 20.1141 50.2004 19.4141 50.2004C18.7141 50.2004 18.1041 49.6004 18.1041 48.9004V45.0004C15.1741 44.7004 12.4341 43.6004 10.3141 41.8004L7.58414 44.5004C7.07414 45.0004 6.27414 45.0004 5.76414 44.5004C5.25414 44.0004 5.25414 43.2004 5.76414 42.7004L8.49414 40.0004C6.67414 37.9004 5.55414 35.2004 5.25414 32.3004H1.30414C0.604141 32.3004 -0.00585938 31.7004 -0.00585938 31.0004C-0.00585938 30.3004 0.594141 29.7004 1.30414 29.7004H5.26414C5.57414 26.8004 6.68414 24.1004 8.50414 22.0004L5.77414 19.3004C5.26414 18.8004 5.26414 18.0004 5.77414 17.5004C6.28414 17.0004 7.08414 17.0004 7.59414 17.5004L10.3241 20.2004C12.4541 18.4004 15.1841 17.3004 18.1141 17.0004V13.1004C18.1141 12.4004 18.7241 11.8004 19.4241 11.8004C20.1241 11.8004 20.7341 12.4004 20.7341 13.1004V17.0004C23.6641 17.3004 26.4041 18.4004 28.5241 20.2004L31.2541 17.5004C31.7541 17.0004 32.5641 17.0004 33.0741 17.5004C33.5841 18.0004 33.5841 18.8004 33.0741 19.3004L30.3441 22.0004C32.1641 24.1004 33.2841 26.8004 33.5841 29.7004H40.0541V6.80039C40.0541 6.10039 40.6641 5.50039 41.3741 5.50039H49.2641C49.7641 2.60039 52.3941 0.400391 55.5341 0.400391C59.0741 0.400391 62.0041 3.30039 62.0041 6.80039C62.0041 10.3004 59.0741 13.2004 55.5341 13.2004C52.5041 13.2004 49.8741 11.0004 49.2641 8.10039H42.6841V29.7004H49.2641C49.7641 26.8004 52.3941 24.6004 55.5341 24.6004C59.0741 24.6004 62.0041 27.5004 62.0041 31.0004C62.0041 34.5004 59.0741 37.4004 55.5341 37.4004C52.5041 37.4004 49.8741 35.2004 49.2641 32.3004Z" fill="#DBDAFD"/>
<path id="Vector_2" d="M42.6841 32.3004H49.2641C49.8741 35.2004 52.5041 37.4004 55.5341 37.4004C59.0741 37.4004 62.0041 34.5004 62.0041 31.0004C62.0041 27.5004 59.0741 24.6004 55.5341 24.6004C52.3941 24.6004 49.7641 26.8004 49.2641 29.7004H42.6841V8.10039H49.2641C49.8741 11.0004 52.5041 13.2004 55.5341 13.2004C59.0741 13.2004 62.0041 10.3004 62.0041 6.80039C62.0041 3.30039 59.0741 0.400391 55.5341 0.400391C52.3941 0.400391 49.7641 2.60039 49.2641 5.50039H41.3741C40.6641 5.50039 40.0541 6.10039 40.0541 6.80039V29.7004H33.5841C33.2841 26.8004 32.1641 24.1004 30.3441 22.0004L33.0741 19.3004C33.5841 18.8004 33.5841 18.0004 33.0741 17.5004C32.5641 17.0004 31.7541 17.0004 31.2541 17.5004L28.5241 20.2004C26.4041 18.4004 23.6641 17.3004 20.7341 17.0004V13.1004C20.7341 12.4004 20.1241 11.8004 19.4241 11.8004C18.7241 11.8004 18.1141 12.4004 18.1141 13.1004V17.0004C15.1841 17.3004 12.4541 18.4004 10.3241 20.2004L7.59414 17.5004C7.08414 17.0004 6.28414 17.0004 5.77414 17.5004C5.26414 18.0004 5.26414 18.8004 5.77414 19.3004L8.50414 22.0004C6.68414 24.1004 5.57414 26.8004 5.26414 29.7004H1.30414C0.594141 29.7004 -0.00585938 30.3004 -0.00585938 31.0004C-0.00585938 31.7004 0.604141 32.3004 1.30414 32.3004H5.25414C5.55414 35.2004 6.67414 37.9004 8.49414 40.0004L5.76414 42.7004C5.25414 43.2004 5.25414 44.0004 5.76414 44.5004C6.27414 45.0004 7.07414 45.0004 7.58414 44.5004L10.3141 41.8004C12.4341 43.6004 15.1741 44.7004 18.1041 45.0004V48.9004C18.1041 49.6004 18.7141 50.2004 19.4141 50.2004C20.1141 50.2004 20.7241 49.6004 20.7241 48.9004V45.0004C23.6541 44.7004 26.3841 43.6004 28.5141 41.8004L31.2441 44.5004C31.7541 45.0004 32.5641 45.0004 33.0641 44.5004C33.5741 44.0004 33.5741 43.2004 33.0641 42.7004L30.3341 40.0004C32.1541 37.9004 33.2641 35.2004 33.5741 32.3004H40.0441V55.2004C40.0441 55.9004 40.6541 56.5004 41.3641 56.5004H49.2541C49.8641 59.4004 52.4941 61.6004 55.5241 61.6004C59.0641 61.6004 61.9941 58.7004 61.9941 55.2004C61.9941 51.7004 59.0641 48.8004 55.5241 48.8004C52.3841 48.8004 49.7541 51.0004 49.2541 53.9004H42.6741V32.3004H42.6841ZM55.5341 27.2004C57.6541 27.2004 59.3741 28.9004 59.3741 31.0004C59.3741 33.1004 57.6541 34.8004 55.5341 34.8004C53.4141 34.8004 51.6941 33.1004 51.6941 31.0004C51.6941 28.9004 53.4141 27.2004 55.5341 27.2004ZM55.5341 3.00039C57.6541 3.00039 59.3741 4.70039 59.3741 6.80039C59.3741 8.90039 57.6541 10.6004 55.5341 10.6004C53.4141 10.6004 51.6941 8.90039 51.6941 6.80039C51.6941 4.70039 53.4141 3.00039 55.5341 3.00039ZM30.9541 29.7004H27.0041C26.8041 28.5004 26.2941 27.5004 25.6941 26.5004L28.4241 23.8004C29.8441 25.5004 30.7541 27.5004 30.9541 29.7004ZM19.4241 36.1004C16.5941 36.1004 14.2641 33.8004 14.2641 31.0004C14.2641 28.2004 16.5941 25.9004 19.4241 25.9004C22.2541 25.9004 24.5841 28.2004 24.5841 31.0004C24.5841 33.8004 22.2541 36.1004 19.4241 36.1004ZM26.7041 22.0004L23.9741 24.7004C23.0641 24.0004 21.9541 23.6004 20.7341 23.4004V19.5004C22.9641 19.8004 24.9841 20.7004 26.7041 22.0004ZM18.2041 19.6004V23.5004C16.9941 23.7004 15.9741 24.2004 14.9641 24.8004L12.2341 22.1004C13.8541 20.7004 15.8741 19.8004 18.2041 19.6004ZM10.4141 23.8004L13.1441 26.5004C12.4341 27.4004 12.0341 28.5004 11.8341 29.7004H7.88414C8.18414 27.5004 9.09414 25.5004 10.4141 23.8004ZM7.88414 32.3004H11.8341C12.0341 33.5004 12.5441 34.5004 13.1441 35.5004L10.4141 38.2004C9.09414 36.5004 8.18414 34.5004 7.88414 32.3004ZM12.2341 40.0004L14.9641 37.3004C15.8741 38.0004 16.9841 38.4004 18.2041 38.6004V42.5004C15.8741 42.2004 13.8541 41.3004 12.2341 40.0004ZM20.7341 42.4004V38.5004C21.9441 38.3004 22.9641 37.8004 23.9741 37.2004L26.7041 39.9004C24.9841 41.3004 22.9641 42.2004 20.7341 42.4004ZM28.5241 38.2004L25.7941 35.5004C26.5041 34.6004 26.9041 33.5004 27.1041 32.3004H31.0541C30.7541 34.5004 29.8441 36.5004 28.5241 38.2004ZM55.5341 51.4004C57.6541 51.4004 59.3741 53.1004 59.3741 55.2004C59.3741 57.3004 57.6541 59.0004 55.5341 59.0004C53.4141 59.0004 51.6941 57.3004 51.6941 55.2004C51.6941 53.1004 53.4141 51.4004 55.5341 51.4004Z" fill="#001452"/>
</g>
</svg>
