<svg width="56" height="55" viewBox="0 0 56 55" fill="none" xmlns="http://www.w3.org/2000/svg">
<g id="438, Balance, equilibrium, human, integrity, mind">
<g id="Group">
<path id="Vector" d="M38.1002 52.1798H50.7202V52.1698C51.4202 52.1698 52.0302 52.6698 52.1302 53.3798C52.1302 54.0798 51.5302 54.6898 50.8202 54.6898H14.1802C13.4802 54.6898 12.8702 54.0798 12.8702 53.3798C12.8702 52.6798 13.4702 52.0698 14.1802 52.0698H32.9402L23.5502 45.5098C22.9502 45.0998 22.8502 44.3998 23.2502 43.7898L21.4895 41.9898H9.12023C8.42023 41.9898 7.81023 41.3898 7.81023 40.6798C7.81023 37.8498 10.0302 35.6298 12.8602 35.6298H15.3802V15.4398L8.11023 17.5598L10.1302 25.5298H11.0402C12.1502 25.5298 12.9602 26.4398 12.9602 27.4498V28.0598C12.9602 31.5898 10.1302 34.4198 6.60023 34.4198C3.07023 34.4198 0.240234 31.4898 0.240234 28.0598V27.4498C0.240234 26.3398 1.15023 25.5298 2.16023 25.5298H3.07023C5.49023 15.6298 5.39023 16.3398 5.39023 16.2398C5.50023 15.9298 5.70023 15.6298 6.00023 15.5298C6.21023 15.5298 5.70024 15.6398 15.3902 12.8098V9.1798C15.3902 8.7698 15.4902 8.4698 15.6902 8.2698C19.0202 3.2298 24.4702 0.299805 30.5302 0.299805H31.8402C41.6302 0.299805 49.5102 8.1698 49.5002 17.9698V28.0598C49.5002 28.7598 48.9002 29.3698 48.1902 29.3698H45.7702V39.4598C45.7702 40.1598 45.1702 40.7698 44.4602 40.7698H38.1002V52.1798Z" fill="#DBDAFD"/>
<path id="Vector_2" d="M55.361 52.4795C54.861 51.9795 54.051 51.9795 53.541 52.4795C53.041 52.9795 53.041 53.7895 53.541 54.2995C53.741 54.4995 54.151 54.6995 54.451 54.6995C55.161 54.6995 55.761 54.0895 55.761 53.3895C55.761 53.0895 55.661 52.6795 55.361 52.4795Z" fill="#001452"/>
<path id="Vector_3" d="M19.5293 34.11C20.0293 34.61 21.0393 34.31 21.3493 34.11C21.8493 33.61 21.8493 32.8 21.3493 32.29C20.8493 31.79 20.0393 31.79 19.5293 32.29C19.0293 32.79 19.0293 33.6 19.5293 34.11Z" fill="#001452"/>
<path id="Vector_4" d="M19.5293 30.28C20.0293 30.78 21.0393 30.48 21.3493 30.28C21.8493 29.78 21.8493 28.97 21.3493 28.46C20.8493 27.96 20.0393 27.96 19.5293 28.46C19.0293 29.07 19.0293 29.87 19.5293 30.28Z" fill="#001452"/>
<path id="Vector_5" d="M21.3493 26.5397C21.8493 26.0397 21.8493 25.2297 21.3493 24.7197C20.8493 24.2197 20.0393 24.2197 19.5293 24.7197C19.0293 25.2197 19.0293 26.0297 19.5293 26.5397C20.0293 27.0397 21.1393 26.7397 21.3493 26.5397Z" fill="#001452"/>
<path id="Vector_6" d="M50.7202 52.1798H38.1002V40.7698H44.4602C45.1702 40.7698 45.7702 40.1598 45.7702 39.4598V29.3698H48.1902C48.9002 29.3698 49.5002 28.7598 49.5002 28.0598V17.9698C49.5102 8.1698 41.6302 0.299805 31.8402 0.299805H30.5302C24.4702 0.299805 19.0202 3.2298 15.6902 8.2698C15.4902 8.4698 15.3902 8.7698 15.3902 9.1798V12.8098C5.70024 15.6398 6.21023 15.5298 6.00023 15.5298C5.70023 15.6298 5.50023 15.9298 5.39023 16.2398C5.39023 16.3398 5.49023 15.6298 3.07023 25.5298H2.16023C1.15023 25.5298 0.240234 26.3398 0.240234 27.4498V28.0598C0.240234 31.4898 3.07023 34.4198 6.60023 34.4198C10.1302 34.4198 12.9602 31.5898 12.9602 28.0598V27.4498C12.9602 26.4398 12.1502 25.5298 11.0402 25.5298H10.1302L8.11023 17.5598L15.3802 15.4398V35.6298H12.8602C10.0302 35.6298 7.81023 37.8498 7.81023 40.6798C7.81023 41.3898 8.42023 41.9898 9.12023 41.9898H24.2602C24.9702 41.9898 25.5702 41.3798 25.4702 40.6798C25.4702 37.9498 23.1502 35.7298 20.4202 35.7298H17.9002V14.7298L26.2802 12.3098L24.5602 19.2698H23.6502C22.6402 19.2698 21.7302 20.0798 21.7302 21.1898V21.7998C21.7302 25.2298 24.5602 28.1598 28.0902 28.1598C31.6202 28.1598 34.4502 25.3298 34.4502 21.7998V21.1898C34.4502 20.1798 33.6402 19.2698 32.5302 19.2698H31.6202C29.2002 9.5798 29.3002 10.0898 29.3002 9.9798C29.1002 9.4798 28.4902 9.1698 27.9902 9.1698C27.8902 9.1698 28.2902 9.06981 18.1002 12.0998V9.5798C20.9302 5.3398 25.5702 2.8198 30.7202 2.8198H32.0302C40.5102 2.8198 47.1702 9.4798 47.1702 17.9598V26.8398H44.6502C43.9402 26.8398 43.3402 27.4498 43.3402 28.1498V38.2398H36.9802C36.2702 38.2398 35.6702 38.8498 35.6702 39.5498V50.9598L24.9702 43.4898C24.3602 43.0898 23.6602 43.1898 23.2502 43.7898C22.8502 44.3998 22.9502 45.0998 23.5502 45.5098L32.9402 52.0698H14.1802C13.4702 52.0698 12.8702 52.6798 12.8702 53.3798C12.8702 54.0798 13.4802 54.6898 14.1802 54.6898H50.8202C51.5302 54.6898 52.1302 54.0798 52.1302 53.3798C52.0302 52.6698 51.4202 52.1698 50.7202 52.1698V52.1798ZM6.61023 31.9898C4.49023 31.9898 2.77023 30.2698 2.77023 28.1498H10.3402C10.3402 30.2698 8.62023 31.9898 6.61023 31.9898ZM5.70023 25.6298L6.61023 21.9998L7.52023 25.6298H5.70023ZM22.6602 39.5598H10.6502C11.0502 38.8498 11.8602 38.2498 12.8702 38.2498H20.4402C21.3502 38.2498 22.1602 38.7498 22.6602 39.5598ZM28.0102 25.6298C25.8902 25.6298 24.1702 23.9098 24.1702 21.7898H31.7402C31.8402 23.9098 30.1302 25.6298 28.0102 25.6298ZM27.1002 19.3698L28.0102 15.7398L28.9202 19.3698H27.1002Z" fill="#001452"/>
</g>
</g>
</svg>
