<svg width="60" height="60" viewBox="0 0 60 60" fill="none" xmlns="http://www.w3.org/2000/svg">
<g id="449, Awareness, feel, human, perception, sense">
<g id="Group">
<path id="Vector" d="M31.32 3.09734C31.82 2.59734 31.82 1.78734 31.32 1.27734C30.82 0.777344 30.01 0.777344 29.5 1.27734C29 1.77734 29 2.58734 29.5 3.09734C30 3.59734 31.12 3.29734 31.32 3.09734Z" fill="#001452"/>
<path id="Vector_2" d="M31.32 5.10547C30.82 4.60547 30.01 4.60547 29.5 5.10547C29 5.60547 29 6.41547 29.5 6.92547C30 7.42547 31.01 7.12547 31.32 6.92547C31.82 6.31547 31.82 5.61547 31.32 5.10547Z" fill="#001452"/>
<path id="Vector_3" d="M29.5 8.84766C29 9.34766 29 10.1577 29.5 10.6677C30 11.1677 31.01 10.8677 31.32 10.6677C31.82 10.1677 31.82 9.35766 31.32 8.84766C30.82 8.34766 30.01 8.34766 29.5 8.84766Z" fill="#001452"/>
<path id="Vector_4" d="M31.32 14.3981C31.82 13.8981 31.82 13.0881 31.32 12.5781C30.82 12.0781 30.01 12.0781 29.5 12.5781C29 13.0781 29 13.8881 29.5 14.3981C30 14.8981 30.81 14.8981 31.32 14.3981Z" fill="#001452"/>
<path id="Vector_5" d="M51.0993 11.0659C51.5993 10.5659 51.5993 9.75595 51.0993 9.24595C50.5993 8.73595 49.7893 8.74595 49.2793 9.24595C48.7793 9.74595 48.7793 10.5559 49.2793 11.0659C49.7793 11.4659 50.8993 11.2659 51.0993 11.0659Z" fill="#001452"/>
<path id="Vector_6" d="M46.6602 11.8776C46.1602 12.3776 46.1602 13.1876 46.6602 13.6976C47.1602 14.1976 48.1702 13.8976 48.4802 13.6976C48.9802 13.1976 48.9802 12.3876 48.4802 11.8776C47.9802 11.4776 47.1702 11.3776 46.6602 11.8776Z" fill="#001452"/>
<path id="Vector_7" d="M45.7497 16.4177C46.2497 15.9177 46.2497 15.1077 45.7497 14.5977C45.2497 14.0977 44.4397 14.0977 43.9297 14.5977C43.4297 15.0977 43.4297 15.9077 43.9297 16.4177C44.4297 16.8177 45.5497 16.6177 45.7497 16.4177Z" fill="#001452"/>
<path id="Vector_8" d="M42.2202 16.918C41.5102 16.918 40.9102 17.528 40.9102 18.228C40.9102 18.528 41.0102 18.838 41.3102 19.138C41.8102 19.638 42.6202 19.638 43.1302 19.138C43.3302 18.938 43.5302 18.528 43.5302 18.228C43.4302 17.418 42.9202 16.918 42.2202 16.918Z" fill="#001452"/>
<path id="Vector_9" d="M16.8789 39.5266C16.3789 40.0266 16.3789 40.8366 16.8789 41.3466C17.3789 41.8466 18.3889 41.5466 18.6989 41.3466C19.1989 40.8466 19.1989 40.0366 18.6989 39.5266C18.1989 39.1266 17.3889 39.1266 16.8789 39.5266Z" fill="#001452"/>
<path id="Vector_10" d="M14.2598 42.2578C13.7598 42.7578 13.7598 43.5678 14.2598 44.0778C14.7598 44.5878 15.7698 44.2778 16.0798 44.0778C16.5798 43.5778 16.5798 42.7678 16.0798 42.2578C15.4698 41.7578 14.6698 41.7578 14.2598 42.2578Z" fill="#001452"/>
<path id="Vector_11" d="M11.5293 44.8776C11.0293 45.3776 11.0293 46.1876 11.5293 46.6976C12.0293 47.1976 13.0393 46.8976 13.3493 46.6976C13.8493 46.1976 13.8493 45.3876 13.3493 44.8776C12.8493 44.3776 12.0393 44.4776 11.5293 44.8776Z" fill="#001452"/>
<path id="Vector_12" d="M8.91016 47.6055C8.41016 48.1055 8.41016 48.9155 8.91016 49.4255C9.41016 49.9255 10.4202 49.6255 10.7302 49.4255C11.2302 48.9255 11.2302 48.1155 10.7302 47.6055C10.1202 47.1055 9.32016 47.1055 8.91016 47.6055Z" fill="#001452"/>
<path id="Vector_13" d="M58.1596 28.0273C57.4496 28.0273 56.8496 28.6373 56.8496 29.3373C56.8496 30.0373 57.4596 30.6473 58.1596 30.6473C58.8596 30.6473 59.4696 30.0373 59.4696 29.3373C59.4696 28.6373 58.8596 28.0273 58.1596 28.0273Z" fill="#001452"/>
<path id="Vector_14" d="M53.5195 28.4258C53.0195 28.9258 53.0195 29.7358 53.5195 30.2458C54.0195 30.7458 54.8295 30.7458 55.3395 30.2458C55.8395 29.7458 55.8395 28.9358 55.3395 28.4258C54.7295 27.9258 54.0295 27.9258 53.5195 28.4258Z" fill="#001452"/>
<path id="Vector_15" d="M49.6895 28.4258C49.1895 28.9258 49.1895 29.7358 49.6895 30.2458C50.1895 30.7458 50.9995 30.7458 51.5095 30.2458C52.0095 29.7458 52.0095 28.9358 51.5095 28.4258C51.0095 27.9258 50.1995 27.9258 49.6895 28.4258Z" fill="#001452"/>
<path id="Vector_16" d="M45.9492 30.2458C46.4492 30.7458 47.4592 30.4458 47.7692 30.2458C48.2692 29.7458 48.2692 28.9358 47.7692 28.4258C47.2692 27.9258 46.4592 27.9258 45.9492 28.4258C45.4492 28.9258 45.4492 29.7358 45.9492 30.2458Z" fill="#001452"/>
<path id="Vector_17" d="M12.2402 28.4273C11.7402 28.9273 11.7402 29.7373 12.2402 30.2473C12.7402 30.7473 13.5502 30.7473 14.0602 30.2473C14.2602 30.0473 14.4602 29.6373 14.4602 29.3373C14.4602 28.6273 13.8502 28.0273 13.1502 28.0273C12.8502 28.0273 12.5402 28.2273 12.2402 28.4273Z" fill="#001452"/>
<path id="Vector_18" d="M10.32 30.2458C10.82 29.7458 10.82 28.9358 10.32 28.4258C9.82 27.9258 9.01 27.9258 8.5 28.4258C8 28.9258 8 29.7358 8.5 30.2458C9 30.6458 10.01 30.4458 10.32 30.2458Z" fill="#001452"/>
<path id="Vector_19" d="M5.57953 28.0273C4.86953 28.0273 4.26953 28.6373 4.26953 29.3373C4.26953 30.0373 4.87953 30.6473 5.57953 30.6473C6.27953 30.6473 6.88953 30.0373 6.88953 29.3373C6.88953 28.6373 6.27953 28.0273 5.57953 28.0273Z" fill="#001452"/>
<path id="Vector_20" d="M1.8393 28.0273C1.1293 28.0273 0.529297 28.6373 0.529297 29.3373C0.529297 30.0373 1.1393 30.6473 1.8393 30.6473C2.5393 30.6473 3.1493 30.0373 3.1493 29.3373C3.0493 28.6273 2.5393 28.0273 1.8393 28.0273Z" fill="#001452"/>
<path id="Vector_21" d="M10.6188 11.0661C11.1188 10.5661 11.1188 9.75609 10.6188 9.24609C10.1188 8.74609 9.30883 8.74609 8.79883 9.24609C8.29883 9.74609 8.29883 10.5561 8.79883 11.0661C9.40883 11.4661 10.4088 11.2661 10.6188 11.0661Z" fill="#001452"/>
<path id="Vector_22" d="M13.3491 13.6872C13.8491 13.1872 13.8491 12.3772 13.3491 11.8672C12.8491 11.3672 12.0391 11.3672 11.5291 11.8672C11.0191 12.3672 11.0291 13.1772 11.5291 13.6872C12.0291 14.1972 13.0391 13.8872 13.3491 13.6872Z" fill="#001452"/>
<path id="Vector_23" d="M14.2598 14.5977C13.7598 15.0977 13.7598 15.9077 14.2598 16.4177C14.7598 16.9177 15.7698 16.6177 16.0798 16.4177C16.5798 15.9177 16.5798 15.1077 16.0798 14.5977C15.4698 14.0977 14.7698 14.0977 14.2598 14.5977Z" fill="#001452"/>
<path id="Vector_24" d="M16.8789 17.2258C16.3789 17.7258 16.3789 18.5358 16.8789 19.0458C17.3789 19.5458 18.3889 19.2458 18.6989 19.0458C19.1989 18.5458 19.1989 17.7358 18.6989 17.2258C18.1989 16.8258 17.3889 16.8258 16.8789 17.2258Z" fill="#001452"/>
<path id="Vector_25" d="M42.2202 39.2266C41.5102 39.2266 40.9102 39.8366 40.9102 40.5366C40.9102 40.8366 41.0102 41.2466 41.3102 41.4466C41.8102 41.9466 42.6202 41.9466 43.1302 41.4466C43.3302 41.2466 43.5302 40.8366 43.5302 40.5366C43.4302 39.7266 42.9202 39.2266 42.2202 39.2266Z" fill="#001452"/>
<path id="Vector_26" d="M43.9297 42.2577C43.4297 42.7577 43.4297 43.5677 43.9297 44.0777C44.4297 44.5777 45.4397 44.2777 45.7497 44.0777C46.2497 43.5777 46.2497 42.7677 45.7497 42.2577C45.2497 41.7477 44.4397 41.7577 43.9297 42.2577Z" fill="#001452"/>
<path id="Vector_27" d="M46.6602 44.8781C46.1602 45.3781 46.1602 46.1881 46.6602 46.6981C47.1602 47.2081 48.1702 46.8981 48.4802 46.6981C48.9802 46.1981 48.9802 45.3881 48.4802 44.8781C47.9802 44.4781 47.1702 44.4781 46.6602 44.8781Z" fill="#001452"/>
<path id="Vector_28" d="M49.2793 47.6092C48.7793 48.1092 48.7793 48.9192 49.2793 49.4292C49.7793 49.9292 50.7893 49.6292 51.0993 49.4292C51.5993 48.9292 51.5993 48.1192 51.0993 47.6092C50.5993 47.0992 49.7893 47.1092 49.2793 47.6092Z" fill="#001452"/>
<path id="Vector_29" d="M26.7686 28.7266H32.7086C36.3386 28.7266 39.2686 31.5566 39.3686 35.1866V46.3866C39.3686 47.0866 38.7686 47.6966 38.0586 47.6966H36.7486V57.7866C36.7486 58.4866 36.1486 59.0966 35.4386 59.0966H24.2386C23.5386 59.0966 22.9286 58.4966 22.9286 57.7866V47.6966H21.6186C20.9186 47.6966 20.3086 47.0966 20.3086 46.3866V35.1866C20.3086 31.6566 23.2386 28.7266 26.7686 28.7266Z" fill="#DBDAFD"/>
<path id="Vector_30" d="M32.7286 28.7266H26.7686C23.2386 28.7266 20.3086 31.6566 20.3086 35.1866V46.3866C20.3086 47.0966 20.9186 47.6966 21.6186 47.6966H22.9286V57.7866C22.9286 58.4966 23.5386 59.0966 24.2386 59.0966H35.4386C36.1486 59.0966 36.7486 58.4866 36.7486 57.7866V47.6966H38.0586C38.7686 47.6966 39.3686 47.0866 39.3686 46.3866V35.1866C39.2686 31.5566 36.3386 28.7266 32.7086 28.7266H32.7286ZM34.2386 56.4866H31.1086V50.1266C31.1086 49.4166 30.4986 48.8166 29.7986 48.8166C29.0986 48.8166 28.4886 49.4266 28.4886 50.1266V56.4866H25.3586V47.6066H34.2386V56.4866ZM36.7586 45.0766H35.4486V37.5066C35.4486 36.7966 34.8386 36.1966 34.1386 36.1966C33.4386 36.1966 32.8286 36.8066 32.8286 37.5066V45.0766H26.4686V37.5066C26.4686 36.7966 25.8586 36.1966 25.1586 36.1966C24.4586 36.1966 23.8486 36.8066 23.8486 37.5066V45.0766H22.5386V35.1866C22.5386 32.9666 24.3586 31.2466 26.4786 31.2466H32.4386C34.6586 31.2466 36.3786 33.0666 36.3786 35.1866V45.0766H36.7786H36.7586Z" fill="#001452"/>
<path id="Vector_31" d="M35.4484 21.7672C35.4484 24.8972 32.9284 27.4172 29.7984 27.4172C26.6684 27.4172 24.1484 24.8972 24.1484 21.7672C24.1484 18.6372 26.6684 16.1172 29.7984 16.1172C32.9284 16.1172 35.4484 18.6372 35.4484 21.7672Z" fill="#DBDAFD"/>
<path id="Vector_32" d="M29.7984 27.4172C32.9284 27.4172 35.4484 24.8972 35.4484 21.7672C35.4484 18.6372 32.9284 16.1172 29.7984 16.1172C26.6684 16.1172 24.1484 18.6372 24.1484 21.7672C24.1484 24.8972 26.6684 27.4172 29.7984 27.4172ZM29.7984 18.6372C31.5184 18.6372 32.9284 20.0472 32.9284 21.7672C32.9284 23.4872 31.5184 24.8972 29.7984 24.8972C28.0784 24.8972 26.6684 23.4872 26.6684 21.7672C26.6684 20.0472 28.0784 18.6372 29.7984 18.6372Z" fill="#001452"/>
</g>
</g>
</svg>
