<svg width="58" height="35" viewBox="0 0 58 35" fill="none" xmlns="http://www.w3.org/2000/svg">
<g id="Group">
<path id="Vector" d="M52.5894 3.82453H39.8694L38.9094 1.70453C38.3494 0.924531 37.5194 0.394531 36.5394 0.394531C36.3994 0.394531 35.4394 0.594531 34.2494 0.844531L26.1494 3.11453L25.0394 3.51453C23.3194 3.81453 22.1094 5.23453 21.8094 6.84453H19.5894V5.53453C19.5894 4.82453 18.9794 4.22453 18.2794 4.22453H1.91937C1.20937 4.22453 0.609375 4.83453 0.609375 5.53453V30.3645C0.609375 31.0745 1.21937 31.6745 1.91937 31.6745H18.3694C19.0794 31.6745 19.6794 31.0645 19.6794 30.3645V29.0545H22.1994C22.2994 31.1745 24.1194 32.8845 26.2394 32.8845H37.2394C37.9494 33.8945 38.9594 34.6045 40.0694 34.6045H45.8194C48.0394 34.6045 49.8594 32.4845 49.8594 29.7645C49.8594 28.9545 49.6594 28.2545 49.3594 27.4445C51.4794 27.3445 53.2994 25.6245 53.5994 23.4045C53.7994 22.2945 53.4994 21.0845 52.8894 20.0745C53.1894 19.9745 53.3894 19.8745 53.5994 19.6745C56.0194 18.1645 56.6294 14.9345 54.9094 12.7145C55.3094 12.5145 55.6194 12.2145 55.9194 11.9045C56.5294 11.5045 57.0294 10.6945 57.2294 9.88453C58.0394 6.85453 55.7194 3.82453 52.5894 3.82453Z" fill="#DBDAFD"/>
<path id="Vector_2" d="M52.5894 3.82453H39.8694L38.9094 1.70453C38.3494 0.924531 37.5194 0.394531 36.5394 0.394531C36.3994 0.394531 35.4394 0.594531 34.2494 0.844531L26.1494 3.11453L25.0394 3.51453C23.3194 3.81453 22.1094 5.23453 21.8094 6.84453H19.5894V5.53453C19.5894 4.82453 18.9794 4.22453 18.2794 4.22453H1.91937C1.20937 4.22453 0.609375 4.83453 0.609375 5.53453V30.3645C0.609375 31.0745 1.21937 31.6745 1.91937 31.6745H18.3694C19.0794 31.6745 19.6794 31.0645 19.6794 30.3645V29.0545H22.1994C22.2994 31.1745 24.1194 32.8845 26.2394 32.8845H37.2394C37.9494 33.8945 38.9594 34.6045 40.0694 34.6045H45.8194C48.0394 34.6045 49.8594 32.4845 49.8594 29.7645C49.8594 28.9545 49.6594 28.2545 49.3594 27.4445C51.4794 27.3445 53.2994 25.6245 53.5994 23.4045C53.7994 22.2945 53.4994 21.0845 52.8894 20.0745C53.1894 19.9745 53.3894 19.8745 53.5994 19.6745C56.0194 18.1645 56.6294 14.9345 54.9094 12.7145C55.3094 12.5145 55.6194 12.2145 55.9194 11.9045C56.5294 11.5045 57.0294 10.6945 57.2294 9.88453C58.0394 6.85453 55.7194 3.82453 52.5894 3.82453ZM17.0594 29.0645H3.22937V6.75453H17.1594C17.0594 8.06453 17.0594 27.8445 17.0594 29.0645ZM22.1094 26.5445H19.5894V9.27453H22.1094V26.5345V26.5445ZM32.9094 3.52453C36.5394 2.91453 36.3394 3.02453 36.4394 3.02453C36.6394 3.02453 36.7394 3.12453 36.8394 3.32453C36.8394 3.42453 38.2494 6.85453 38.1494 6.65453C38.1494 6.75453 38.2494 6.85453 38.3494 6.95453L41.5794 10.6945L41.6794 10.7945C42.4894 11.9045 42.1794 13.5245 40.9694 14.1245C39.9594 14.6245 38.8494 14.4245 38.1394 13.6245L32.0794 6.55453C32.1794 5.84453 32.6894 4.33453 32.8894 3.52453H32.9094ZM36.4394 29.7645C36.4394 29.8979 36.4727 30.1679 36.5394 30.5745H26.1394C25.3294 30.3745 24.6294 29.6645 24.6294 28.8545C24.6294 28.8545 24.6294 27.7445 24.6294 27.8445V7.46453C24.6294 6.75453 25.1294 6.05453 25.9394 5.95453C26.1394 5.95453 25.9394 5.95453 30.0794 4.44453C29.8794 5.05453 29.6794 5.75453 29.6794 6.36453C29.6794 6.76453 29.6794 7.17453 29.7794 7.57453C30.0794 10.1945 29.9794 16.6545 26.4494 18.1745C25.8394 18.4745 25.5394 19.1845 25.8394 19.8945C26.1394 20.5045 26.8494 20.8045 27.5594 20.5045C31.2894 18.7845 32.1994 14.1445 32.3994 10.8145C36.4394 15.6545 36.4394 15.5545 36.7394 15.8645C37.2394 16.3645 37.8494 16.6745 38.3594 16.8745C38.5594 17.8845 39.0694 18.6945 39.7694 19.3945C38.0494 21.0145 37.7494 23.6345 38.9594 25.6545C37.5494 26.3645 36.5394 27.8745 36.4394 29.7945V29.7645ZM45.8294 32.1845H40.2794C39.6694 32.1845 39.1694 31.5745 38.9694 30.9745L38.7694 29.5645C38.8694 28.4545 39.4794 27.5445 40.2794 27.5445H45.8294C46.6394 27.5445 47.3394 28.6545 47.3394 29.8645C47.3394 31.0745 46.6294 32.1845 45.8294 32.1845ZM49.1594 25.1145H42.5994C41.4894 25.1145 40.5794 24.1045 40.5794 22.7945C40.5794 21.5845 41.4894 20.4745 42.5994 20.4745H49.1594C50.2694 20.4745 51.1794 21.4845 51.1794 22.7945C51.1794 24.0045 50.2694 25.1145 49.1594 25.1145ZM51.1794 17.9445H42.8994C42.0894 17.9445 41.3894 17.5445 40.9794 16.9345C42.6994 16.5345 44.1094 15.3145 44.6094 13.4045H51.1694C52.3794 13.4045 53.4894 14.4145 53.4894 15.7245C53.3894 16.9345 52.3794 17.9445 51.1694 17.9445H51.1794ZM52.5894 10.8745H44.5094C44.4094 10.3745 44.1094 9.96453 43.8994 9.56453C43.7994 9.46453 43.6994 9.26453 43.5994 9.16453C43.5994 9.16453 43.8994 9.56453 41.2794 6.33453H52.6894C53.8994 6.33453 54.9094 7.34453 54.9094 8.55453C54.9094 9.76453 53.8994 10.8745 52.5894 10.8745Z" fill="#001452"/>
<path id="Vector_3" d="M12.6192 23.2041C11.6092 23.2041 10.6992 24.0141 10.6992 25.1241C10.6992 26.2341 11.5092 27.0441 12.6192 27.0441C13.7292 27.0441 14.5392 26.2341 14.5392 25.1241C14.5392 24.0141 13.7292 23.2041 12.6192 23.2041ZM12.6192 25.7241C12.3192 25.7241 12.0092 25.4241 12.0092 25.1141C12.0092 24.8041 12.3092 24.5041 12.6192 24.5041C12.9292 24.5041 13.2292 24.8041 13.2292 25.1141C13.3292 25.4141 13.0292 25.7241 12.6192 25.7241Z" fill="#001452"/>
</g>
</svg>
