<svg width="44" height="63" viewBox="0 0 44 63" fill="none" xmlns="http://www.w3.org/2000/svg">
<g id="431, Command, control, human, manipulate, manipulation">
<g id="Group">
<path id="Vector" d="M41.4759 6.98957C41.4759 6.27957 42.0859 5.67957 42.7859 5.67957C43.3959 5.67957 43.9959 6.18957 43.9959 6.88957V53.3996C43.9959 53.8996 43.8059 54.2996 43.3959 54.4996C42.9859 54.6996 42.4859 54.6996 42.0859 54.4996L32.3459 48.3696H20.1959V59.8196H40.2759C40.9859 59.8196 41.5859 60.4196 41.5859 61.1296C41.5859 61.8396 40.9759 62.4396 40.2759 62.4396H1.31586C0.605859 62.4396 0.00585938 61.8396 0.00585938 61.1296C0.00585938 60.4196 0.615859 59.8196 1.31586 59.8196H11.8459L9.63586 50.0796C9.53586 49.7796 9.53586 49.5796 9.63586 49.3796L11.9459 42.5496C10.5359 41.5396 9.63586 39.9396 9.63586 38.0296V27.1896H7.12586C3.60586 27.1896 0.795859 24.2696 0.795859 20.8596V9.50957C0.795859 8.79957 1.39586 8.19957 2.09586 8.19957V1.86957C2.09586 1.15957 2.69586 0.55957 3.40586 0.55957C4.11586 0.55957 4.71586 1.16957 4.71586 1.86957V8.08957H7.22586C7.93586 8.08957 8.53586 8.69957 8.53586 9.39957V19.4396H12.9559C11.7459 18.1396 11.0459 16.3296 11.0459 14.4196C11.0459 10.7096 13.8659 7.58957 17.3759 6.98957V1.86957C17.3759 1.15957 17.9759 0.55957 18.6859 0.55957C19.3959 0.55957 19.9959 1.16957 19.9959 1.86957V6.98957C23.6159 7.58957 26.3259 10.6996 26.3259 14.4196C26.3259 16.3296 25.6259 18.1296 24.4159 19.4396H30.1359V6.88957C30.1359 6.17957 30.7259 5.57957 31.4359 5.57957C32.1459 5.57957 32.7459 6.18957 32.7459 6.88957V20.0396C35.0559 20.9396 36.5659 23.1496 36.5659 25.7596V37.0096C36.5659 37.7196 35.9559 38.3196 35.2559 38.3196H30.2359C29.5359 38.3196 28.9359 37.7096 28.9359 37.0096V26.9696H27.6259V40.8296H32.6459C32.9459 40.8296 33.1459 40.9296 33.3459 41.0296L41.4759 46.1496V6.98957Z" fill="#DBDAFD"/>
<path id="Vector_2" d="M42.7859 5.67957C42.0859 5.67957 41.4759 6.27957 41.4759 6.98957V46.1496L33.3459 41.0296C33.1459 40.9296 32.9459 40.8296 32.6459 40.8296H27.6259V26.9696H28.9359V37.0096C28.9359 37.7096 29.5359 38.3196 30.2359 38.3196H35.2559C35.9559 38.3196 36.5659 37.7196 36.5659 37.0096V25.7596C36.5659 23.1496 35.0559 20.9396 32.7459 20.0396V6.88957C32.7459 6.18957 32.1459 5.57957 31.4359 5.57957C30.7259 5.57957 30.1359 6.17957 30.1359 6.88957V19.4396H24.4159C25.6259 18.1296 26.3259 16.3296 26.3259 14.4196C26.3259 10.6996 23.6159 7.58957 19.9959 6.98957V1.86957C19.9959 1.16957 19.3959 0.55957 18.6859 0.55957C17.9759 0.55957 17.3759 1.15957 17.3759 1.86957V6.98957C13.8659 7.58957 11.0459 10.7096 11.0459 14.4196C11.0459 16.3296 11.7459 18.1396 12.9559 19.4396H8.53586V9.39957C8.53586 8.69957 7.93586 8.08957 7.22586 8.08957H4.71586V1.86957C4.71586 1.16957 4.11586 0.55957 3.40586 0.55957C2.69586 0.55957 2.09586 1.15957 2.09586 1.86957V8.19957C1.39586 8.19957 0.795859 8.79957 0.795859 9.50957V20.8596C0.795859 24.2696 3.60586 27.1896 7.12586 27.1896H9.63586V38.0296C9.63586 39.9396 10.5359 41.5396 11.9459 42.5496L9.63586 49.3796C9.53586 49.5796 9.53586 49.7796 9.63586 50.0796L11.8459 59.8196H1.31586C0.615859 59.8196 0.00585938 60.4196 0.00585938 61.1296C0.00585938 61.8396 0.605859 62.4396 1.31586 62.4396H40.2759C40.9759 62.4396 41.5859 61.8396 41.5859 61.1296C41.5859 60.4196 40.9859 59.8196 40.2759 59.8196H20.1959V48.3696H32.3459L42.0859 54.4996C42.4859 54.6996 42.9859 54.6996 43.3959 54.4996C43.8059 54.2996 43.9959 53.8996 43.9959 53.3996V6.88957C43.9959 6.18957 43.3959 5.67957 42.7859 5.67957ZM33.9459 25.7596V35.7996H31.4359V25.7596C31.4359 25.0596 30.8359 24.4496 30.1359 24.4496H27.6259V21.9396H30.1359C32.2459 21.9396 33.9559 23.6496 33.9559 25.7596H33.9459ZM25.2059 34.4996H15.1659C14.4659 34.4996 13.8559 35.0996 13.8559 35.8096C13.8559 36.5196 14.4559 37.1196 15.1659 37.1196H25.2059V40.9396H15.6659C14.0559 40.9396 12.6559 39.6296 12.6559 37.9296V22.0596H25.2059V34.5096V34.4996ZM13.8659 14.4196C13.8659 11.6096 16.0759 9.39957 18.8859 9.39957C21.6959 9.39957 23.9059 11.6096 23.9059 14.4196C23.9059 17.2296 21.6959 19.4396 18.8859 19.4396C16.0759 19.4396 13.8659 17.2296 13.8659 14.4196ZM7.63586 24.4596C5.52586 24.4596 3.81586 22.7496 3.81586 20.6396V10.5996H6.32586V20.6396C6.32586 21.3396 6.92586 21.9496 7.63586 21.9496H10.1459V24.4596H7.63586ZM14.8659 59.6096L12.6559 49.6696L14.7659 43.3396H17.5759V59.7096H14.8659V59.6096ZM41.4759 51.0696L33.3459 45.9496C33.1459 45.8496 32.9459 45.7496 32.6459 45.7496H20.1959V43.2396H32.3459L41.4859 48.9596V51.0696H41.4759Z" fill="#001452"/>
<path id="Vector_3" d="M17.9766 23.5596C17.4766 24.0596 17.4766 24.8696 17.9766 25.3696C18.4766 25.8696 19.4866 25.5696 19.7866 25.3696C20.2866 24.8696 20.2866 24.0596 19.7866 23.5596C19.2866 23.0596 18.4866 23.0596 17.9766 23.5596Z" fill="#001452"/>
<path id="Vector_4" d="M17.9766 27.3691C17.4766 27.8691 17.4766 28.6791 17.9766 29.1791C18.4766 29.6791 19.4866 29.3791 19.7866 29.1791C20.2866 28.6791 20.2866 27.8691 19.7866 27.3691C19.2866 26.8691 18.4866 26.8691 17.9766 27.3691Z" fill="#001452"/>
</g>
</g>
</svg>
