<svg width="62" height="62" viewBox="0 0 62 62" fill="none" xmlns="http://www.w3.org/2000/svg">
<g id="Group 27">
<path id="Union" fill-rule="evenodd" clip-rule="evenodd" d="M7.30859 25.3697H24.1308V30.0061L22.8422 30.0061V33.8908C22.8422 35.0352 23.122 36.1575 23.6504 37.1338L24.4996 38.7032C25.0683 39.7537 25.3692 40.9616 25.3692 42.1931V52.023C25.3692 52.6788 25.1339 53.2727 24.7541 53.7023C24.3743 54.132 23.8496 54.398 23.2702 54.398C22.1281 54.3984 21.204 53.3538 21.1704 52.0708V55.6167C21.1704 56.2725 20.9351 56.8661 20.5553 57.2957C20.1755 57.7257 19.6504 57.9913 19.0706 57.9913C17.9108 57.9913 16.9707 56.9279 16.9707 55.6167V48.9284L16.9693 48.93V57.9913C16.9693 58.6471 16.7343 59.2407 16.3541 59.6703C15.9743 60.1003 15.4493 60.366 14.8694 60.366C13.7097 60.366 12.7695 59.303 12.7695 57.9913V54.4105C12.7572 55.0452 12.5248 55.6184 12.1549 56.0367C11.7747 56.4663 11.25 56.7324 10.6702 56.7324C9.51046 56.7324 8.57031 55.6694 8.57031 54.3578V46.3698L8.56946 46.3684C8.56946 47.1076 8.30464 47.7771 7.87628 48.2611C7.44792 48.7451 6.85644 49.0448 6.2027 49.0448C4.89563 49.0448 3.83594 47.8465 3.83594 46.3684V37.1512C3.83594 35.869 4.31743 34.6342 5.18452 33.6903L6.06489 32.7323L8.56986 30.0061H7.30859V25.3697ZM21.1695 44.0942V44.0945L21.1685 44.0953L21.1695 44.0942Z" fill="#DBDAFD"/>
<path id="Union_2" fill-rule="evenodd" clip-rule="evenodd" d="M55.6167 40.8304L51.9982 40.8304C53.314 40.8304 54.3982 39.8932 54.3978 38.7297C54.3978 38.1499 54.1317 37.6256 53.7021 37.2458C53.2725 36.8661 52.6785 36.6307 52.0227 36.6307H42.1929C40.9614 36.6307 39.7535 36.9316 38.7029 37.5003L37.1335 38.3495C36.1573 38.8779 35.0349 39.1577 33.8906 39.1577H30.0059V53.4301L32.7321 55.935L33.6901 56.8154C34.634 57.6825 35.8688 58.164 37.151 58.164H46.3681C47.8462 58.164 49.0445 57.1043 49.0445 55.7972C49.0445 55.1435 48.7449 54.552 48.2609 54.1236C47.7765 53.6953 47.1074 53.4305 46.3681 53.4305L46.3699 53.4301H54.3581C55.6697 53.4301 56.7327 52.4899 56.7327 51.3302C56.7327 50.7503 56.4667 50.2257 56.0371 49.8455C55.6071 49.4653 55.0135 49.2303 54.3577 49.2303L52.2059 49.2303H57.9909C59.3025 49.2303 60.3655 48.2902 60.3655 47.1304C60.3655 46.5506 60.0999 46.0255 59.6698 45.6457C59.2402 45.2655 58.6467 45.0306 57.9909 45.0306H48.1501L48.1497 45.0302H55.6167C56.9279 45.0302 57.9913 44.09 57.9913 42.9303C57.9913 42.3504 57.7257 41.8254 57.2956 41.4456C56.866 41.0658 56.2725 40.8304 55.6167 40.8304ZM25.3691 54.6906V37.8685H30.0055V54.6906H25.3691Z" fill="#DBDAFD"/>
<path id="Union_3" fill-rule="evenodd" clip-rule="evenodd" d="M49.231 7.58963V4.00868C49.231 2.69704 48.2908 1.63403 47.1311 1.63403C46.5513 1.63403 46.0262 1.89968 45.6464 2.3297C45.2662 2.7593 45.0312 3.35286 45.0312 4.00868V10.8208L45.0298 10.8232V6.38334C45.0298 5.07212 44.0897 4.0087 42.9299 4.0087C42.3501 4.0087 41.825 4.27435 41.4452 4.70436C41.0654 5.13397 40.8301 5.72753 40.8301 6.38334V9.94844C40.8051 8.6569 39.8775 7.60201 38.7299 7.60242C38.15 7.60242 37.6258 7.86848 37.246 8.29808C36.8662 8.72769 36.6309 9.32166 36.6309 9.97748V19.8073C36.6309 21.0388 36.9318 22.2467 37.5004 23.2973L38.3497 24.8667C38.8781 25.8429 39.1578 26.9653 39.1578 28.1096V31.9943H37.8692V36.6307H54.6914V31.9943H53.4302L55.9352 29.2681L56.8156 28.3101C57.6827 27.3662 58.1641 26.1314 58.1641 24.8492V15.6321C58.1641 14.154 57.1045 12.9556 55.7974 12.9556C55.1436 12.9556 54.5522 13.2553 54.1238 13.7393C53.6954 14.2237 53.4306 14.8928 53.4306 15.6321L53.4302 15.6315V7.64226C53.4302 6.33062 52.4901 5.26761 51.3303 5.26761C50.7505 5.26761 50.2258 5.53367 49.8456 5.96328C49.4757 6.38167 49.2433 6.95489 49.231 7.58963ZM40.8306 17.9058L40.831 17.9055L40.8306 17.9063V17.9058Z" fill="#DBDAFD"/>
<path id="Union_4" fill-rule="evenodd" clip-rule="evenodd" d="M10.0011 21.17C8.68532 21.17 7.60115 22.1072 7.60156 23.2707C7.60156 23.8505 7.86763 24.3748 8.29723 24.7546C8.72683 25.1344 9.32081 25.3697 9.97663 25.3697H19.8064C21.038 25.3697 22.2458 25.0688 23.2964 24.5001L24.8658 23.6509C25.8421 23.1225 26.9644 22.8427 28.1088 22.8427H31.9925V24.1315H36.6289V7.30936H31.9925V8.56948L29.2673 6.06538L28.3093 5.18501C27.3654 4.31791 26.1305 3.83643 24.8484 3.83643H15.6312C14.1531 3.83643 12.9548 4.89611 12.9548 6.20319C12.9548 6.85693 13.2545 7.44841 13.7385 7.87677C14.2228 8.30513 14.8919 8.56995 15.6312 8.56995L15.6299 8.57037H7.64027C6.32863 8.57037 5.26562 9.51052 5.26562 10.6702C5.26562 11.2501 5.53169 11.7748 5.96129 12.155C6.38862 12.5328 6.97744 12.7672 7.62837 12.7701H4.00746C2.69582 12.7701 1.63281 13.7102 1.63281 14.8699C1.63281 15.4498 1.89846 15.9749 2.32848 16.3547C2.75808 16.7349 3.35164 16.9698 4.00746 16.9698H13.9373L13.9377 16.9702H6.38246C5.07124 16.9702 4.00781 17.9104 4.00781 19.0701C4.00781 19.65 4.27346 20.175 4.70348 20.5548C5.13308 20.9346 5.72664 21.17 6.38246 21.17H10.0011Z" fill="#DBDAFD"/>
<g id="Group">
<path id="Vector" d="M16.9707 47.397V55.6167C16.9707 56.9279 17.9108 57.9913 19.0706 57.9913C19.6504 57.9913 20.1755 57.7257 20.5553 57.2957C20.9351 56.8661 21.1704 56.2725 21.1704 55.6167V44.0938" stroke="#001452" stroke-width="2" stroke-linecap="round" stroke-linejoin="round"/>
<path id="Vector_2" d="M12.7695 47.3969V57.9913C12.7695 59.303 13.7097 60.366 14.8694 60.366C15.4493 60.366 15.9743 60.1003 16.3541 59.6703C16.7343 59.2407 16.9693 58.6471 16.9693 57.9913V47.3969" stroke="#001452" stroke-width="2" stroke-linecap="round" stroke-linejoin="round"/>
<path id="Vector_3" d="M12.77 47.3969V54.3573C12.77 55.0132 12.5351 55.6067 12.1549 56.0367C11.7747 56.4663 11.25 56.7324 10.6702 56.7324C9.51046 56.7324 8.57031 55.6694 8.57031 54.3578V45.2614" stroke="#001452" stroke-width="2" stroke-linecap="round" stroke-linejoin="round"/>
<path id="Vector_4" d="M21.1695 44.0942V51.9985C21.1695 53.3143 22.1067 54.3984 23.2702 54.398C23.8496 54.398 24.3743 54.132 24.7541 53.7023C25.1339 53.2727 25.3692 52.6788 25.3692 52.023V42.1931C25.3692 40.9616 25.0683 39.7537 24.4996 38.7032L23.6504 37.1338C23.122 36.1575 22.8422 35.0352 22.8422 33.8908V30.0061H8.56987L6.06489 32.7323L5.18452 33.6903C4.31743 34.6342 3.83594 35.869 3.83594 37.1512V46.3684C3.83594 47.8465 4.89563 49.0448 6.2027 49.0448C6.85644 49.0448 7.44792 48.7451 7.87628 48.2611C8.30464 47.7771 8.56946 47.1076 8.56946 46.3684V39.3507" stroke="#001452" stroke-width="2" stroke-linecap="round" stroke-linejoin="round"/>
<path id="Vector_5" d="M24.1308 25.3697H7.30859V30.0061H24.1308V25.3697Z" stroke="#001452" stroke-width="2" stroke-linecap="round" stroke-linejoin="round"/>
</g>
<g id="Group_2">
<path id="Vector_6" d="M47.3969 45.0302H55.6167C56.9279 45.0302 57.9913 44.09 57.9913 42.9303C57.9913 42.3504 57.7257 41.8254 57.2956 41.4456C56.866 41.0658 56.2725 40.8304 55.6167 40.8304H44.0938" stroke="#001452" stroke-width="2" stroke-linecap="round" stroke-linejoin="round"/>
<path id="Vector_7" d="M47.3965 49.2303H57.9909C59.3025 49.2303 60.3655 48.2902 60.3655 47.1304C60.3655 46.5506 60.0999 46.0255 59.6699 45.6457C59.2402 45.2655 58.6467 45.0306 57.9909 45.0306H47.3965" stroke="#001452" stroke-width="2" stroke-linecap="round" stroke-linejoin="round"/>
<path id="Vector_8" d="M47.3973 49.2303H54.3577C55.0135 49.2303 55.6071 49.4653 56.0371 49.8455C56.4667 50.2257 56.7327 50.7503 56.7327 51.3302C56.7327 52.4899 55.6697 53.4301 54.3581 53.4301H45.2617" stroke="#001452" stroke-width="2" stroke-linecap="round" stroke-linejoin="round"/>
<path id="Vector_9" d="M44.0939 40.8304H51.9982C53.314 40.8304 54.3982 39.8932 54.3978 38.7297C54.3978 38.1499 54.1317 37.6256 53.7021 37.2458C53.2725 36.8661 52.6785 36.6307 52.0227 36.6307H42.1929C40.9614 36.6307 39.7535 36.9316 38.7029 37.5003L37.1335 38.3495C36.1573 38.8779 35.0349 39.1577 33.8906 39.1577H30.0059V53.4301L32.7321 55.935L33.6901 56.8154C34.634 57.6825 35.8688 58.164 37.151 58.164H46.3681C47.8462 58.164 49.0445 57.1043 49.0445 55.7972C49.0445 55.1435 48.7449 54.552 48.2609 54.1237C47.7765 53.6953 47.1074 53.4305 46.3681 53.4305H39.3505" stroke="#001452" stroke-width="2" stroke-linecap="round" stroke-linejoin="round"/>
<path id="Vector_10" d="M25.3691 37.8685V54.6906H30.0055V37.8685H25.3691Z" stroke="#001452" stroke-width="2" stroke-linecap="round" stroke-linejoin="round"/>
</g>
<g id="Group_3">
<path id="Vector_11" d="M45.0298 14.6031V6.38334C45.0298 5.07212 44.0897 4.0087 42.9299 4.0087C42.3501 4.0087 41.825 4.27435 41.4452 4.70436C41.0654 5.13397 40.8301 5.72753 40.8301 6.38334V17.9063" stroke="#001452" stroke-width="2" stroke-linecap="round" stroke-linejoin="round"/>
<path id="Vector_12" d="M49.231 14.6031V4.00868C49.231 2.69704 48.2908 1.63403 47.1311 1.63403C46.5513 1.63403 46.0262 1.89968 45.6464 2.3297C45.2662 2.7593 45.0312 3.35286 45.0312 4.00868V14.6031" stroke="#001452" stroke-width="2" stroke-linecap="round" stroke-linejoin="round"/>
<path id="Vector_13" d="M49.2305 14.6031V7.64267C49.2305 6.98685 49.4654 6.39329 49.8456 5.96328C50.2258 5.53367 50.7505 5.26761 51.3303 5.26761C52.4901 5.26761 53.4302 6.33062 53.4302 7.64226V16.7386" stroke="#001452" stroke-width="2" stroke-linecap="round" stroke-linejoin="round"/>
<path id="Vector_14" d="M40.8306 17.9063V10.002C40.8306 8.68618 39.8934 7.602 38.7299 7.60242C38.15 7.60242 37.6258 7.86848 37.246 8.29808C36.8662 8.72769 36.6309 9.32166 36.6309 9.97748V19.8073C36.6309 21.0388 36.9318 22.2467 37.5004 23.2973L38.3497 24.8667C38.8781 25.8429 39.1578 26.9653 39.1578 28.1096V31.9943H53.4302L55.9352 29.2681L56.8156 28.3101C57.6827 27.3662 58.1641 26.1314 58.1641 24.8492V15.6321C58.1641 14.154 57.1045 12.9556 55.7974 12.9556C55.1436 12.9556 54.5522 13.2553 54.1238 13.7393C53.6954 14.2237 53.4306 14.8928 53.4306 15.6321V22.6497" stroke="#001452" stroke-width="2" stroke-linecap="round" stroke-linejoin="round"/>
<path id="Vector_15" d="M37.8692 36.6307H54.6914V31.9943H37.8692V36.6307Z" stroke="#001452" stroke-width="2" stroke-linecap="round" stroke-linejoin="round"/>
</g>
<g id="Group_4">
<path id="Vector_16" d="M14.6022 16.9702H6.38246C5.07124 16.9702 4.00781 17.9104 4.00781 19.0701C4.00781 19.65 4.27346 20.175 4.70348 20.5548C5.13308 20.9346 5.72664 21.17 6.38246 21.17H17.9054" stroke="#001452" stroke-width="2" stroke-linecap="round" stroke-linejoin="round"/>
<path id="Vector_17" d="M14.6018 12.7701H7.64145H4.00746C2.69582 12.7701 1.63281 13.7102 1.63281 14.8699C1.63281 15.4498 1.89846 15.9749 2.32848 16.3547C2.75808 16.7349 3.35164 16.9698 4.00746 16.9698H14.6018" stroke="#001452" stroke-width="2" stroke-linecap="round" stroke-linejoin="round"/>
<path id="Vector_18" d="M14.6011 12.7701H7.64069C6.98487 12.7701 6.39131 12.5352 5.96129 12.155C5.53169 11.7748 5.26562 11.2501 5.26562 10.6702C5.26562 9.51052 6.32863 8.57037 7.64027 8.57037H16.7367" stroke="#001452" stroke-width="2" stroke-linecap="round" stroke-linejoin="round"/>
<path id="Vector_19" d="M17.9054 21.17H10.0011C8.68532 21.17 7.60115 22.1072 7.60156 23.2707C7.60156 23.8505 7.86763 24.3748 8.29723 24.7546C8.72683 25.1344 9.32081 25.3697 9.97662 25.3697H19.8064C21.038 25.3697 22.2458 25.0688 23.2964 24.5001L24.8658 23.6509C25.8421 23.1225 26.9644 22.8427 28.1088 22.8427H31.9935V8.57036L29.2673 6.06538L28.3093 5.18501C27.3654 4.31791 26.1305 3.83643 24.8484 3.83643H15.6312C14.1531 3.83643 12.9548 4.89611 12.9548 6.20319C12.9548 6.85693 13.2545 7.44841 13.7385 7.87677C14.2228 8.30513 14.8919 8.56995 15.6312 8.56995H22.6489" stroke="#001452" stroke-width="2" stroke-linecap="round" stroke-linejoin="round"/>
<path id="Vector_20" d="M36.6289 24.1315V7.30936H31.9925V24.1315H36.6289Z" stroke="#001452" stroke-width="2" stroke-linecap="round" stroke-linejoin="round"/>
</g>
</g>
</svg>
