<svg width="50" height="50" viewBox="0 0 50 50" fill="none" xmlns="http://www.w3.org/2000/svg">
<g id="502, Group, User, Job, good, cancel">
<g id="Group">
<path id="Vector" d="M24.0615 49.5H1.72201C1.15129 49.5 0.662109 49.0108 0.662109 48.4401V40.8577C0.662109 39.064 1.80354 37.4334 3.51569 36.8627L6.4508 35.8843L7.91836 35.3136C8.16295 35.2321 8.48907 35.2321 8.73366 35.3136C8.97826 35.3951 9.14132 35.6397 9.30438 35.8843L10.7719 40.287L12.158 38.8194C12.321 38.6564 12.6471 38.4933 12.8917 38.4933C13.1363 38.4933 13.4625 38.5748 13.6255 38.8194L15.0931 40.287L16.4791 35.8843C16.5606 35.6397 16.7237 35.3951 16.9683 35.3136C17.2129 35.1506 17.539 35.1506 17.7836 35.2321L22.1863 36.7812C23.8984 37.3519 24.9583 38.9825 24.9583 40.7762V48.3586C25.0398 49.0108 24.5507 49.5 24.0615 49.5Z" fill="#DBDAFD"/>
<path id="Vector_2" d="M13.0552 34.8244C8.6525 34.8244 6.45117 28.7096 6.45117 25.2853C6.45117 24.7961 6.5327 24.3885 6.61423 23.8993C6.69576 23.5731 6.94036 23.247 7.26648 23.1655C7.5926 23.084 8.00026 23.084 8.24485 23.3285C8.40791 23.4101 8.57097 23.5731 8.81557 23.5731H14.9304C15.175 23.5731 15.2565 23.4101 15.338 23.3285C15.5826 22.8394 16.1533 22.5948 16.7241 22.8394L18.7623 23.8177C19.0885 23.8993 19.4146 24.1439 19.4961 24.5515C19.5776 24.8776 19.6592 25.1222 19.6592 25.3668C19.5776 28.7096 17.3763 34.8244 13.0552 34.8244Z" fill="#DBDAFD"/>
<path id="Vector_3" d="M18.5171 25.7745C18.3541 25.7745 18.191 25.7745 18.1095 25.693L16.5604 24.9592C16.1527 25.3668 15.582 25.5299 15.0113 25.5299H8.8965C8.24425 25.5299 7.59201 25.2853 7.10282 24.8776C6.28751 24.2254 5.7168 23.1655 5.7168 22.1056V19.9043C5.7168 19.3335 6.20598 18.8444 6.7767 18.8444H14.9298C15.9897 18.8444 16.805 19.5781 17.2126 20.3119C17.2942 20.3934 17.2942 20.475 17.3757 20.5565L19.414 22.4317C19.6586 22.5948 19.7401 22.9209 19.7401 23.1655V24.7146C19.7401 25.0407 19.577 25.3668 19.2509 25.5299C18.8433 25.7745 18.6802 25.7745 18.5171 25.7745Z" fill="#DBDAFD"/>
<path id="Vector_4" d="M9.22311 12.3219C8.97852 12.3219 8.73393 12.2403 8.48933 11.9958C8.08168 11.5881 8.08168 10.9358 8.48933 10.5282L13.6258 5.47328C14.0334 5.06563 14.6857 5.06563 15.0933 5.47328C15.501 5.88094 15.501 6.53318 15.0933 6.94084L9.95689 11.9958C9.79383 12.2403 9.4677 12.3219 9.22311 12.3219Z" fill="#001452"/>
<path id="Vector_5" d="M14.3596 12.3219C14.115 12.3219 13.8704 12.2404 13.6258 11.9958L8.48933 6.85936C8.08168 6.4517 8.08168 5.79945 8.48933 5.3918C8.89699 4.98415 9.54923 4.98415 9.95689 5.3918L15.0933 10.5282C15.501 10.9359 15.501 11.5881 15.0933 11.9958C14.8487 12.2404 14.6041 12.3219 14.3596 12.3219Z" fill="#001452"/>
<path id="Vector_6" d="M13.0548 31.7262C11.9949 31.7262 11.0165 31.2371 10.5273 30.7479L11.9134 29.1988C12.0764 29.3618 13.0548 30.0956 14.1962 29.1988C14.6039 28.8727 15.2561 28.8727 15.6638 29.3618C15.9899 29.7695 15.9899 30.4217 15.5007 30.8294C14.6854 31.4816 13.7886 31.7262 13.0548 31.7262Z" fill="#001452"/>
<path id="Vector_7" d="M24.0615 49.5H1.72201C1.15129 49.5 0.662109 49.0108 0.662109 48.4401V40.8577C0.662109 39.064 1.80354 37.4334 3.51569 36.8627L6.4508 35.8843L7.91836 35.3136C8.16295 35.2321 8.48907 35.2321 8.73366 35.3136C8.97826 35.3951 9.14132 35.6397 9.30438 35.8843L10.7719 40.287L12.158 38.8194C12.321 38.6564 12.6471 38.4933 12.8917 38.4933C13.1363 38.4933 13.4625 38.5748 13.6255 38.8194L15.0931 40.287L16.4791 35.8843C16.5606 35.6397 16.7237 35.3951 16.9683 35.3136C17.2129 35.1506 17.539 35.1506 17.7836 35.2321L22.1863 36.7812C23.8984 37.3519 24.9583 38.9825 24.9583 40.7762V48.3586C25.0398 49.0108 24.5507 49.5 24.0615 49.5ZM2.78191 47.4617H23.0016V40.8577C23.0016 39.9609 22.4308 39.1456 21.534 38.8194L18.1097 37.5965L16.5606 42.5699C16.4791 42.896 16.153 43.1406 15.8268 43.2221C15.5007 43.3036 15.0931 43.2221 14.8485 42.9775L12.9733 41.0208L11.1796 42.9775C10.935 43.2221 10.6089 43.3852 10.2012 43.3036C9.8751 43.2221 9.54897 42.9775 9.46744 42.6514L7.83682 37.678L7.34764 37.8411H7.26611L4.331 38.8194C3.43416 39.1456 2.86344 39.9609 2.86344 40.8577L2.78191 47.4617Z" fill="#001452"/>
<path id="Vector_8" d="M20.3931 49.5H5.3099C4.73918 49.5 4.25 49.0109 4.25 48.4401V41.4285C4.25 40.8578 4.73918 40.3686 5.3099 40.3686C5.88062 40.3686 6.3698 40.8578 6.3698 41.4285V47.3802H19.4147V41.4285C19.4147 40.8578 19.9039 40.3686 20.4746 40.3686C21.0454 40.3686 21.5345 40.8578 21.5345 41.4285V48.4401C21.453 49.0109 20.9638 49.5 20.3931 49.5Z" fill="#001452"/>
<path id="Vector_9" d="M15.5831 43.3036C15.3385 43.3036 15.0124 43.2221 14.8493 42.9775L12.2403 40.287C11.9142 39.9609 11.8327 39.3902 12.1588 38.9825L15.5015 34.2537C15.6646 34.0091 15.9907 33.8461 16.3169 33.8461C16.643 33.8461 16.9691 33.9276 17.1322 34.1722L18.2736 35.5582C18.5182 35.8028 18.5997 36.2105 18.4367 36.5366L16.5614 42.5699C16.4799 42.896 16.1538 43.1406 15.8277 43.2221C15.7461 43.3036 15.6646 43.3036 15.5831 43.3036ZM14.2786 39.4717L15.1754 40.3685L16.3169 36.6181L14.2786 39.4717Z" fill="#001452"/>
<path id="Vector_10" d="M10.3642 43.3036H10.1196C9.79352 43.2221 9.46739 42.9775 9.38586 42.6514L7.34759 36.6181C7.26606 36.292 7.26606 35.9659 7.51065 35.6397L8.57055 34.2537C8.73361 34.0091 9.05974 33.8461 9.38586 33.8461C9.71198 33.8461 10.0381 34.0091 10.2012 34.2537L13.6255 38.9825C13.9516 39.3902 13.8701 39.9609 13.5439 40.287L11.1795 42.9775C10.9349 43.2221 10.6904 43.3036 10.3642 43.3036ZM9.63045 36.8627L10.7719 40.3685L11.5872 39.5532L9.63045 36.8627Z" fill="#001452"/>
<path id="Vector_11" d="M13.0552 34.8244C8.65251 34.8244 6.45117 28.7096 6.45117 25.2853C6.45117 24.7961 6.5327 24.3885 6.61423 23.8993C6.69576 23.5731 6.94036 23.247 7.26648 23.1655C7.5926 23.084 8.00026 23.084 8.24485 23.3285C8.40791 23.4101 8.57097 23.5731 8.81557 23.5731H14.9304C15.175 23.5731 15.2565 23.4101 15.338 23.3285C15.5826 22.8394 16.1533 22.5948 16.7241 22.8394L18.7623 23.8177C19.0885 23.8993 19.4146 24.1439 19.4961 24.5515C19.5776 24.8776 19.6592 25.1222 19.6592 25.3668C19.5776 28.7096 17.3763 34.8244 13.0552 34.8244ZM8.48944 25.5299C8.57097 28.2204 10.2831 32.7861 13.0552 32.7861C15.8272 32.7861 17.5394 28.1389 17.6209 25.4484L16.561 24.9592C16.1533 25.3668 15.5826 25.5299 15.0119 25.5299H8.48944Z" fill="#001452"/>
<path id="Vector_12" d="M18.5171 25.7745C18.3541 25.7745 18.191 25.7745 18.1095 25.693L16.5604 24.9592C16.1527 25.3668 15.582 25.5299 15.0113 25.5299H8.8965C8.24425 25.5299 7.59201 25.2853 7.10282 24.8776C6.28751 24.2254 5.7168 23.1655 5.7168 22.1056V19.9043C5.7168 19.3335 6.20598 18.8444 6.7767 18.8444H14.9298C15.9897 18.8444 16.805 19.5781 17.2126 20.3119C17.2942 20.3934 17.2942 20.475 17.3757 20.5565L19.414 22.4317C19.6586 22.5948 19.7401 22.9209 19.7401 23.1655V24.7146C19.7401 25.0407 19.577 25.3668 19.2509 25.5299C18.8433 25.7745 18.6802 25.7745 18.5171 25.7745ZM7.67354 20.9642V22.1056C7.67354 22.5132 7.91813 23.0024 8.24425 23.247C8.40732 23.3286 8.57038 23.4916 8.81497 23.4916H14.9298C15.1744 23.4916 15.2559 23.3286 15.3374 23.247C15.582 22.8394 15.9897 22.5948 16.3973 22.6763L15.582 21.9425C15.419 21.861 15.3374 21.6979 15.3374 21.5349C15.3374 21.5349 15.3374 21.4533 15.2559 21.4533C15.0928 21.2088 14.8483 20.9642 14.7667 20.9642H7.67354Z" fill="#001452"/>
<path id="Vector_13" d="M15.4206 28.1389H14.6869C14.1161 28.1389 13.627 27.6497 13.627 27.079C13.627 26.5083 14.1161 26.0191 14.6869 26.0191H15.4206C15.9913 26.0191 16.4805 26.5083 16.4805 27.079C16.4805 27.6497 15.9913 28.1389 15.4206 28.1389Z" fill="#001452"/>
<path id="Vector_14" d="M11.0969 28.1389H10.3631C9.79242 28.1389 9.38477 27.6497 9.38477 27.079C9.38477 26.5083 9.87395 26.0191 10.3631 26.0191H11.0969C11.6676 26.0191 12.1568 26.5083 12.1568 27.079C12.1568 27.6497 11.6676 28.1389 11.0969 28.1389Z" fill="#001452"/>
<path id="Vector_15" d="M48.3588 31.1555H26.1009C25.5302 31.1555 25.041 30.6663 25.041 30.0956V22.5948C25.041 20.8011 26.1824 19.1705 27.8946 18.5998L30.8297 17.6214L32.2973 17.0507C32.5419 16.9691 32.868 16.9691 33.1126 17.0507C33.3572 17.1322 33.5202 17.3768 33.6833 17.6214L35.1508 22.0241L36.5369 20.5565C36.6999 20.3934 37.0261 20.2304 37.2706 20.2304C37.5152 20.2304 37.8414 20.3119 38.0044 20.5565L39.472 22.0241L40.858 17.6214C40.9395 17.3768 41.1026 17.1322 41.3472 17.0507C41.5918 16.8876 41.9179 16.8876 42.1625 16.9691L46.5652 18.5182C48.2773 19.0889 49.3372 20.7196 49.3372 22.5132V30.0956C49.3372 30.6663 48.9296 31.1555 48.3588 31.1555Z" fill="#DBDAFD"/>
<path id="Vector_16" d="M30.7461 6.94081C30.7461 10.3651 32.9474 16.4799 37.3501 16.4799C41.7528 16.4799 43.9541 10.3651 43.9541 7.02234C43.9541 6.77774 43.8726 6.53315 43.791 6.20703C43.7095 5.79937 43.3834 5.55478 43.0573 5.47325L41.019 4.49488C40.4483 4.25029 39.8775 4.49488 39.633 4.98407C39.5514 5.0656 39.4699 5.22866 39.2253 5.22866H33.1105C32.8659 5.22866 32.7028 5.0656 32.5398 4.98407C32.2952 4.73947 31.8875 4.73947 31.5614 4.821C31.2353 4.90254 30.9907 5.22866 30.9092 5.55478C30.8276 6.04397 30.7461 6.45162 30.7461 6.94081Z" fill="#DBDAFD"/>
<path id="Vector_17" d="M37.3517 13.3818C36.2918 13.3818 35.3134 12.8926 34.8242 12.4035L36.2102 10.8544C36.3733 11.0174 37.3517 11.7512 38.4931 10.8544C38.9008 10.5282 39.553 10.5282 39.9607 11.0174C40.2868 11.4251 40.2868 12.0773 39.7976 12.485C38.9823 13.1372 38.167 13.3818 37.3517 13.3818Z" fill="#001452"/>
<path id="Vector_18" d="M48.3588 31.1555H26.1009C25.5302 31.1555 25.041 30.6663 25.041 30.0956V22.5948C25.041 20.8011 26.1824 19.1705 27.8946 18.5998L30.8297 17.6214L32.2973 17.0507C32.5419 16.9691 32.868 16.9691 33.1126 17.0507C33.3572 17.1322 33.5202 17.3768 33.6833 17.6214L35.1508 22.0241L36.5369 20.5565C36.6999 20.3934 37.0261 20.2304 37.2706 20.2304C37.5152 20.2304 37.8414 20.3119 38.0044 20.5565L39.472 22.0241L40.858 17.6214C40.9395 17.3768 41.1026 17.1322 41.3472 17.0507C41.5918 16.8876 41.9179 16.8876 42.1625 16.9691L46.5652 18.5182C48.2773 19.0889 49.3372 20.7196 49.3372 22.5132V30.0956C49.3372 30.6663 48.9296 31.1555 48.3588 31.1555ZM27.0793 29.1172H47.2989V22.5132C47.2989 21.6164 46.7282 20.8011 45.8314 20.475L42.4071 19.252L40.858 24.2254C40.7765 24.5515 40.4503 24.7961 40.1242 24.8776C39.7981 24.9592 39.3904 24.8776 39.1459 24.633L37.2706 22.7578L35.477 24.7146C35.2324 24.9592 34.9062 25.1222 34.4986 25.0407C34.1725 24.9592 33.8463 24.7146 33.7648 24.3885L32.1342 19.4151L31.5635 19.4966H31.482L28.5468 20.475C27.65 20.8011 27.0793 21.6164 27.0793 22.5132V29.1172Z" fill="#001452"/>
<path id="Vector_19" d="M44.772 31.1556H29.6888C29.1181 31.1556 28.6289 30.6664 28.6289 30.0957V23.084C28.6289 22.5133 29.1181 22.0241 29.6888 22.0241C30.2595 22.0241 30.7487 22.5133 30.7487 23.084V29.1173H43.7936V23.1655C43.7936 22.5948 44.2828 22.1056 44.8535 22.1056C45.4243 22.1056 45.9134 22.5948 45.9134 23.1655V30.1772C45.7504 30.6664 45.3427 31.1556 44.772 31.1556Z" fill="#001452"/>
<path id="Vector_20" d="M39.878 24.9592C39.6334 24.9592 39.3073 24.8776 39.1442 24.633L36.5352 21.9425C36.2091 21.6164 36.1276 21.0457 36.4537 20.638L39.7965 15.9092C39.9595 15.6646 40.2857 15.5016 40.6118 15.5016C40.9379 15.5016 41.264 15.5831 41.4271 15.8277L42.5685 17.2137C42.8131 17.4583 42.8946 17.866 42.7316 18.1921L40.8564 24.2254C40.7748 24.5515 40.4487 24.7961 40.1226 24.8776C40.0411 24.9592 39.9595 24.9592 39.878 24.9592ZM38.5735 21.1272L39.4703 22.0241L40.6118 18.2736L38.5735 21.1272Z" fill="#001452"/>
<path id="Vector_21" d="M34.7431 24.9592H34.4985C34.1724 24.8776 33.8463 24.633 33.7648 24.3069L31.7265 18.2736C31.645 17.9475 31.645 17.6214 31.8896 17.2953L32.9495 15.9092C33.1125 15.6646 33.4386 15.5016 33.7648 15.5016C34.0909 15.5016 34.417 15.6646 34.5801 15.9092L38.0044 20.638C38.3305 21.0457 38.249 21.6164 37.9228 21.9425L35.3954 24.633C35.2323 24.8776 34.9877 24.9592 34.7431 24.9592ZM33.9278 18.5182L35.0693 22.0241L35.8846 21.2087L33.9278 18.5182Z" fill="#001452"/>
<path id="Vector_22" d="M37.3501 16.4799C32.9474 16.4799 30.7461 10.3651 30.7461 6.94081C30.7461 6.45162 30.8276 6.04397 30.9092 5.55478C30.9907 5.22866 31.2353 4.90254 31.5614 4.821C31.8875 4.73947 32.2952 4.73947 32.5398 4.98407C32.7028 5.0656 32.8659 5.22866 33.1105 5.22866H39.2253C39.4699 5.22866 39.5514 5.0656 39.633 4.98407C39.8775 4.49488 40.4483 4.25029 41.019 4.49488L43.0573 5.47325C43.3834 5.55478 43.7095 5.79937 43.791 6.20703C43.8726 6.53315 43.9541 6.77774 43.9541 7.02234C43.9541 10.3651 41.7528 16.4799 37.3501 16.4799ZM32.7844 7.1854C32.8659 9.87592 34.578 14.4416 37.3501 14.4416C40.1221 14.4416 41.8343 9.79439 41.9158 7.10387L40.8559 6.61468C40.4483 7.02234 39.8776 7.1854 39.3068 7.1854H32.7844Z" fill="#001452"/>
<path id="Vector_23" d="M42.814 7.43006C42.651 7.43006 42.4879 7.43006 42.4064 7.34853L40.8573 6.61475C40.4496 7.02241 39.8789 7.18547 39.3082 7.18547H33.1934C32.5411 7.18547 31.8889 6.94088 31.3997 6.53322C30.5844 5.88098 30.0137 4.82107 30.0137 3.76117V1.55984C30.0137 0.989124 30.5029 0.499939 31.0736 0.499939H39.2267C40.2866 0.499939 41.1019 1.23372 41.5095 1.96749C41.5911 2.04903 41.5911 2.13056 41.6726 2.21209L43.7109 4.0873C43.9554 4.25036 44.037 4.57648 44.037 4.82107V6.37016C44.037 6.69628 43.8739 7.02241 43.5478 7.18547C43.2217 7.43006 42.9771 7.43006 42.814 7.43006Z" fill="#DBDAFD"/>
<path id="Vector_24" d="M42.814 7.43006C42.651 7.43006 42.4879 7.43006 42.4064 7.34853L40.8573 6.61475C40.4496 7.02241 39.8789 7.18547 39.3082 7.18547H33.1934C32.5411 7.18547 31.8889 6.94088 31.3997 6.53322C30.5844 5.88098 30.0137 4.82107 30.0137 3.76117V1.55984C30.0137 0.989124 30.5029 0.499939 31.0736 0.499939H39.2267C40.2866 0.499939 41.1019 1.23372 41.5095 1.96749C41.5911 2.04903 41.5911 2.13056 41.6726 2.21209L43.7109 4.0873C43.9554 4.25036 44.037 4.57648 44.037 4.82107V6.37016C44.037 6.69628 43.8739 7.02241 43.5478 7.18547C43.2217 7.43006 42.9771 7.43006 42.814 7.43006ZM31.9704 2.61974V3.76117C31.9704 4.16883 32.215 4.65801 32.5411 4.90261C32.7042 4.98414 32.8673 5.1472 33.1118 5.1472H39.2267C39.4713 5.1472 39.5528 4.98414 39.6343 4.90261C39.8789 4.49495 40.2866 4.25036 40.6942 4.33189L39.8789 3.59811C39.7158 3.51658 39.6343 3.35352 39.6343 3.19046C39.6343 3.19046 39.6343 3.10893 39.5528 3.10893C39.3897 2.86433 39.1451 2.61974 39.0636 2.61974H31.9704Z" fill="#001452"/>
<path id="Vector_25" d="M39.7136 9.79448H38.9798C38.4091 9.79448 37.9199 9.3053 37.9199 8.73458C37.9199 8.16387 38.4091 7.67468 38.9798 7.67468H39.7136C40.2843 7.67468 40.7735 8.16387 40.7735 8.73458C40.692 9.38683 40.2843 9.79448 39.7136 9.79448Z" fill="#001452"/>
<path id="Vector_26" d="M35.3952 9.79448H34.6615C34.0907 9.79448 33.6016 9.3053 33.6016 8.73458C33.6016 8.16387 34.0907 7.67468 34.6615 7.67468H35.3952C35.966 7.67468 36.4551 8.16387 36.4551 8.73458C36.4551 9.38683 35.966 9.79448 35.3952 9.79448Z" fill="#001452"/>
<path id="Vector_27" d="M36.2898 49.5C31.8056 49.5 28.1367 45.8311 28.1367 41.3469C28.1367 36.8627 31.8056 33.1938 36.2898 33.1938C40.774 33.1938 44.4429 36.8627 44.4429 41.3469C44.4429 45.8311 40.774 49.5 36.2898 49.5ZM36.2898 35.2321C32.947 35.2321 30.175 38.0041 30.175 41.3469C30.175 44.6896 32.947 47.4617 36.2898 47.4617C39.6326 47.4617 42.4046 44.6896 42.4046 41.3469C42.4046 38.0041 39.6326 35.2321 36.2898 35.2321Z" fill="#001452"/>
<path id="Vector_28" d="M11.8308 16.8876C7.34662 16.8876 3.67773 13.2187 3.67773 8.73451C3.67773 4.25031 7.34662 0.581421 11.8308 0.581421C16.315 0.581421 19.9839 4.25031 19.9839 8.73451C19.9839 13.2187 16.315 16.8876 11.8308 16.8876ZM11.8308 2.61969C8.48806 2.61969 5.71601 5.39174 5.71601 8.73451C5.71601 12.0773 8.48806 14.8493 11.8308 14.8493C15.1736 14.8493 17.9456 12.0773 17.9456 8.73451C17.9456 5.39174 15.1736 2.61969 11.8308 2.61969Z" fill="#001452"/>
<path id="Vector_29" d="M34.2531 45.4235H34.0901C33.7639 45.3419 33.5194 45.2604 33.3563 45.0158L31.318 41.9176C30.9919 41.4285 31.155 40.7762 31.5626 40.5316C32.0518 40.2055 32.704 40.3686 32.9486 40.7762L34.3347 42.896L39.5526 38.4933C39.9603 38.1672 40.6125 38.1672 41.0202 38.6564C41.3463 39.0641 41.3463 39.7163 40.8571 40.124L34.7423 45.2604C34.6608 45.3419 34.4162 45.4235 34.2531 45.4235Z" fill="#001452"/>
</g>
</g>
</svg>
