<svg width="54" height="50" viewBox="0 0 54 50" fill="none" xmlns="http://www.w3.org/2000/svg">
<g id="Group 23">
<path id="Vector" d="M27.5592 0.6375L50.8192 10.8375H50.8392C52.1492 11.4375 53.0592 12.7375 52.9592 14.3375C52.9592 16.9375 50.2292 18.8375 47.6992 17.8375L46.6892 17.4375V41.7375H49.2192C49.9192 41.7375 50.5292 42.3375 50.5292 43.0375V46.8375H51.7392C52.4392 46.8375 53.0492 47.4375 53.0492 48.1375C53.0492 48.8375 52.4492 49.4375 51.7392 49.4375H2.36922C1.66922 49.4375 1.05922 48.8375 1.05922 48.1375C1.05922 47.4375 1.65922 46.8375 2.36922 46.8375H3.68922V43.0375C3.68922 42.3375 4.28922 41.7375 4.99922 41.7375H7.52922V17.6375L6.00922 18.1375C3.57922 19.0375 0.949219 17.1375 0.949219 14.5375V14.3375C0.949219 12.8375 1.85922 11.4375 3.27922 10.8375L26.5492 0.6375C26.8492 0.5375 27.2592 0.5375 27.5592 0.6375Z" fill="#DBDAFD"/>
<path id="Vector_2" d="M50.8192 10.8375L27.5592 0.6375C27.2592 0.5375 26.8492 0.5375 26.5492 0.6375L3.27922 10.8375C1.85922 11.4375 0.949219 12.8375 0.949219 14.3375V14.5375C0.949219 17.1375 3.57922 19.0375 6.00922 18.1375L7.52922 17.6375V41.7375H4.99922C4.28922 41.7375 3.68922 42.3375 3.68922 43.0375V46.8375H2.36922C1.65922 46.8375 1.05922 47.4375 1.05922 48.1375C1.05922 48.8375 1.66922 49.4375 2.36922 49.4375H51.7392C52.4492 49.4375 53.0492 48.8375 53.0492 48.1375C53.0492 47.4375 52.4392 46.8375 51.7392 46.8375H50.5292V43.0375C50.5292 42.3375 49.9192 41.7375 49.2192 41.7375H46.6892V17.4375L47.6992 17.8375C50.2292 18.8375 52.9592 16.9375 52.9592 14.3375C53.0592 12.7375 52.1492 11.4375 50.8392 10.8375H50.8192ZM47.9892 46.7375H6.30922V44.2375H48.0892V46.7375H47.9892ZM10.0592 41.7375V39.2375H16.4292C17.1392 39.2375 17.7492 38.6375 17.7492 37.9375C17.7492 37.2375 17.1392 36.6375 16.4292 36.6375H10.0592V16.6375L27.0492 10.6375L44.2492 16.4375V36.6375H35.3492C34.6392 36.6375 34.0392 37.2375 34.0392 37.9375C34.0392 38.6375 34.6492 39.2375 35.3492 39.2375H44.2492V41.7375H10.0492H10.0592ZM48.6992 15.5475C46.3692 14.6475 45.6692 14.3475 45.5592 14.3475L27.3492 8.2475C27.0492 8.1475 26.7392 8.1475 26.5392 8.2475L8.32922 14.7375L5.18922 15.8375C4.37922 16.1375 3.46922 15.5375 3.46922 14.6375V14.4375C3.46922 13.9375 3.76922 13.4375 4.27922 13.2375L27.0492 3.2375L49.8092 13.2375C50.3192 13.4375 50.6192 13.9375 50.6192 14.4375C50.5192 15.2375 49.6092 15.8375 48.6992 15.5375V15.5475Z" fill="#001452"/>
<rect id="Rectangle 858" x="20" y="18.5" width="13" height="13" stroke="#001452" stroke-width="2" stroke-linejoin="round"/>
<path id="Vector 31" d="M33 25L20 25" stroke="#001452" stroke-width="2"/>
<path id="Vector 30" d="M26.5 18.5V31.5" stroke="#001452" stroke-width="2"/>
</g>
</svg>
