<svg width="64" height="64" viewBox="0 0 64 64" fill="none" xmlns="http://www.w3.org/2000/svg">
<g id="D - 651, Finger, forefinger, hand">
<circle id="Ellipse 21" cx="32" cy="32" r="30" fill="#DBDAFD" stroke="#001452" stroke-width="2.2"/>
<circle id="Ellipse 20" cx="32" cy="32" r="23" fill="#DBDAFD" stroke="#001452" stroke-width="2.2"/>
<path id="Vector" d="M40.1943 26.995C39.5286 26.995 38.9104 27.228 38.4349 27.6007C38.0544 26.5291 37.0083 25.6905 35.7719 25.6905C35.1061 25.6905 34.4879 25.9235 34.0124 26.2962C33.4418 24.5258 31.2543 23.8735 29.7801 24.8985V18.7488C29.7801 17.2113 28.4962 16 26.9745 16C25.4528 16 24.1688 17.2113 24.1688 18.7488V28.0666L23.2178 26.2962C22.5045 24.9451 20.7925 24.4792 19.4611 25.178C18.1296 25.8769 17.6065 27.5541 18.3198 28.9052L22.4569 36.406V41.9501C22.4569 43.0682 23.408 44 24.5493 44H40.9076C42.0489 44 43 43.0682 43 41.9501V29.7438C42.9524 28.2063 41.7161 26.995 40.1943 26.995ZM42.0965 36.5923V41.9501C41.7636 42.416 41.3832 42.7887 40.9076 42.7887H24.5493C24.0737 42.7887 23.6458 42.416 23.6458 41.9035V37.7105C23.6458 37.7105 23.679 36.1637 23.7028 36.024C23.6648 35.9774 23.6267 35.9354 23.5982 35.8935L19.4135 28.2995C18.9855 27.5541 19.2708 26.5757 20.0792 26.1564C20.8401 25.7371 21.8387 26.0166 22.2667 26.8087L24.3591 30.629C24.5017 30.8619 24.787 31.0017 25.0248 30.9085C25.3101 30.8619 25.4528 30.629 25.4528 30.3494V18.7488C25.4528 17.9101 26.1661 17.1647 27.0696 17.1647C27.9731 17.1647 28.6864 17.9101 28.6864 18.7488V27.1348C28.6864 27.4609 28.9717 27.7404 29.3046 27.7404C29.6375 27.7404 29.9228 27.4609 29.9228 27.1348C29.9228 26.2496 30.6361 25.5507 31.5396 25.5507C32.4431 25.5507 33.1564 26.2496 33.1564 27.1348V28.4393C33.1564 28.7654 33.4418 29.0449 33.7746 29.0449C34.1075 29.0449 34.3928 28.7654 34.3928 28.4393C34.3928 27.5541 35.1061 26.8552 36.0096 26.8552C36.9132 26.8552 37.6265 27.5541 37.6265 28.4393V29.7438C37.6265 30.0699 37.9118 30.3494 38.2447 30.3494C38.5775 30.3494 38.8629 30.0699 38.8629 29.7438C38.8629 28.8586 39.5762 28.1597 40.4797 28.1597C41.3832 28.1597 42.0965 28.8586 42.0965 29.7438V36.5923Z" fill="#001452" stroke="#001452"/>
<path id="Vector 17" d="M16.1484 15.7344L48.6753 48.2613" stroke="#001452" stroke-width="2.3"/>
</g>
</svg>
