<svg width="62" height="62" viewBox="0 0 62 62" fill="none" xmlns="http://www.w3.org/2000/svg">
<g id="289 - Business, cooperation, partners, partnership, team">
<g id="Group">
<path id="Vector" d="M60.6756 59.3662H56.3356V43.4163C57.7456 43.1163 58.8556 41.9063 58.8556 40.2863V21.0062C58.8556 17.7762 56.2356 15.1562 53.0056 15.1562H46.1456C42.9156 15.1562 40.2956 17.7762 40.2956 21.0062V22.8262H38.9856V16.4663C38.9856 15.7563 38.3756 15.1562 37.6756 15.1562H24.0456C23.3356 15.1562 22.7356 15.7663 22.7356 16.4663V22.8262H21.5256V21.0062C21.5256 17.7762 18.9056 15.1562 15.6756 15.1562H8.81563C5.58563 15.1562 2.96563 17.7762 2.96563 21.0062V40.2863C2.96563 41.5963 4.37563 42.4062 5.58563 42.9062C5.58563 43.1063 5.48562 43.3063 5.48562 43.5163V59.3662H1.32562C0.615625 59.3662 0.015625 59.9762 0.015625 60.6763C0.015625 61.3763 0.625625 61.9863 1.32562 61.9863H60.6756C61.3856 61.9863 61.9856 61.3763 61.9856 60.6763C61.8856 59.9663 61.2756 59.3662 60.6756 59.3662ZM37.9656 41.7062H24.0356C23.3256 41.7062 22.7256 42.3162 22.7256 43.0163V59.4663H18.8856V38.3662L20.4956 37.8662C21.2056 37.6662 21.5056 37.1562 21.5056 36.6562V30.2963H22.8156V37.8662C22.8156 38.5762 23.4256 39.1763 24.1256 39.1763H38.0556C38.7656 39.1763 39.3656 38.5662 39.3656 37.8662V30.2963H40.6756V36.6562C40.6756 37.1562 40.9756 37.6662 41.5856 37.8662L43.2056 38.3662V59.3563H39.3656V43.0063C39.1656 42.2963 38.5556 41.6963 37.9556 41.6963L37.9656 41.7062ZM25.3456 44.2262H31.6056V59.3662H30.2956V54.3162C30.2956 53.6063 29.6856 53.0063 28.9856 53.0063C28.2856 53.0063 27.6756 53.6162 27.6756 54.3162V59.3662H25.1556V44.2262H25.3556H25.3456ZM34.1256 59.3662V44.2262H36.6456V59.3662H34.1256Z" fill="#DBDAFD"/>
<path id="Vector_2" d="M12.0264 13.9456C15.8664 13.9456 18.9864 10.8156 18.9864 6.98562C18.9864 3.15562 15.8664 0.015625 12.0264 0.015625C8.18641 0.015625 5.06641 3.14563 5.06641 6.97563C5.06641 10.8056 8.19641 13.9356 12.0264 13.9356V13.9456Z" fill="#DBDAFD"/>
<path id="Vector_3" d="M49.876 13.9473C53.716 13.9473 56.836 10.8173 56.836 6.98734C56.836 3.15734 53.706 0.0273438 49.876 0.0273438C46.046 0.0273438 42.916 3.15734 42.916 6.98734C42.916 10.8173 46.046 13.9473 49.876 13.9473Z" fill="#DBDAFD"/>
<path id="Vector_4" d="M12.0264 13.9456C15.8664 13.9456 18.9864 10.8156 18.9864 6.98562C18.9864 3.15562 15.8664 0.015625 12.0264 0.015625C8.18641 0.015625 5.06641 3.14563 5.06641 6.97563C5.06641 10.8056 8.19641 13.9356 12.0264 13.9356V13.9456ZM12.0264 2.64563C14.4464 2.64563 16.4664 4.66563 16.4664 7.08563C16.4664 9.50562 14.4464 11.4256 12.0264 11.4256C9.60641 11.4256 7.58641 9.40562 7.58641 6.98562C7.58641 4.56562 9.60641 2.64563 12.0264 2.64563Z" fill="#001452"/>
<path id="Vector_5" d="M49.876 13.9473C53.716 13.9473 56.836 10.8173 56.836 6.98734C56.836 3.15734 53.706 0.0273438 49.876 0.0273438C46.046 0.0273438 42.916 3.15734 42.916 6.98734C42.916 10.8173 46.046 13.9473 49.876 13.9473ZM49.876 2.64734C52.296 2.64734 54.316 4.66734 54.316 7.08734C54.316 9.50734 52.296 11.5273 49.876 11.5273C47.456 11.5273 45.436 9.50734 45.436 7.08734C45.436 4.66734 47.456 2.64734 49.876 2.64734Z" fill="#001452"/>
<path id="Vector_6" d="M29.9958 51.3942C30.4958 50.8942 30.4958 50.0842 29.9958 49.5742C29.4958 49.0742 28.6858 49.0742 28.1758 49.5742C27.6758 50.0742 27.6758 50.8842 28.1758 51.3942C28.6758 51.8942 29.7958 51.6942 29.9958 51.3942Z" fill="#001452"/>
<path id="Vector_7" d="M60.6756 59.3662H56.3356V43.4163C57.7456 43.1163 58.8556 41.9063 58.8556 40.2863V21.0062C58.8556 17.7762 56.2356 15.1562 53.0056 15.1562H46.1456C42.9156 15.1562 40.2956 17.7762 40.2956 21.0062V22.8262H38.9856V16.4663C38.9856 15.7563 38.3756 15.1562 37.6756 15.1562H24.0456C23.3356 15.1562 22.7356 15.7663 22.7356 16.4663V22.8262H21.5256V21.0062C21.5256 17.7762 18.9056 15.1562 15.6756 15.1562H8.81563C5.58563 15.1562 2.96563 17.7762 2.96563 21.0062V40.2863C2.96563 41.5963 4.37563 42.4062 5.58563 42.9062C5.58563 43.1063 5.48562 43.3063 5.48562 43.5163V59.3662H1.32562C0.615625 59.3662 0.015625 59.9762 0.015625 60.6763C0.015625 61.3763 0.625625 61.9863 1.32562 61.9863H60.6756C61.3856 61.9863 61.9856 61.3763 61.9856 60.6763C61.8856 59.9663 61.2756 59.3662 60.6756 59.3662ZM37.9656 41.7062H24.0356C23.3256 41.7062 22.7256 42.3162 22.7256 43.0163V59.4663H18.8856V38.3662L20.4956 37.8662C21.2056 37.6662 21.5056 37.1562 21.5056 36.6562V30.2963H22.8156V37.8662C22.8156 38.5762 23.4256 39.1763 24.1256 39.1763H38.0556C38.7656 39.1763 39.3656 38.5662 39.3656 37.8662V30.2963H40.6756V36.6562C40.6756 37.1562 40.9756 37.6662 41.5856 37.8662L43.2056 38.3662V59.3563H39.3656V43.0063C39.1656 42.2963 38.5556 41.6963 37.9556 41.6963L37.9656 41.7062ZM41.6956 25.3562C42.4056 25.3562 43.0056 24.7463 43.0056 24.0463V21.0162C43.0056 19.1962 44.5156 17.6862 46.3356 17.6862H53.1956C55.0156 17.6862 56.5256 19.1962 56.5256 21.0162V40.2962C56.5256 40.6962 56.1256 41.0063 55.7156 40.9062L44.7156 36.3662C44.6156 36.3662 44.7156 36.3663 42.9956 35.7563V30.4062H45.5156C45.8156 30.4062 46.1256 30.3062 46.3256 30.1062L52.6856 25.0563C53.1856 24.6563 53.2956 23.8462 52.8856 23.2362C52.4856 22.7362 51.6756 22.6263 51.0656 23.0363L45.1056 27.7762H36.4256L35.8156 25.2562C36.9256 25.3562 40.3556 25.3562 41.6656 25.3562H41.6956ZM25.3456 17.7863H36.6456V22.8362H33.8156C33.6156 22.8362 33.4156 22.9363 33.2056 23.1363C33.139 23.2029 33.0723 23.3029 33.0056 23.4362L32.9056 23.5363C32.8056 23.7362 32.8056 24.0362 32.8056 24.3462L34.1156 29.3962C34.2156 30.0062 34.7256 30.3063 35.3256 30.3063H36.6356V36.6663H31.5856V27.7863C31.5856 27.0763 30.9756 26.4762 30.2756 26.4762C29.5756 26.4762 28.9656 27.0863 28.9656 27.7863V36.6663H25.1256V30.3063H26.6356C27.1356 30.2063 27.5456 29.9062 27.6456 29.3962L28.9556 24.3462C29.0556 24.0462 28.9556 23.7362 28.8556 23.5363V23.3362C28.789 23.2696 28.7556 23.2029 28.7556 23.1363L28.6556 23.0363C28.4556 22.8363 28.1556 22.7362 27.8456 22.7362H25.3256V17.7863H25.3456ZM5.66563 21.0162C5.66563 19.1962 7.17562 17.6862 8.99562 17.6862H15.8556C17.6756 17.6862 19.1856 19.1962 19.1856 21.0162V24.0463C19.1856 24.7563 19.7956 25.3562 20.4956 25.3562H26.4556L25.5456 27.8763H16.8656L10.9056 23.1363C10.4056 22.7363 9.59562 22.8362 9.08562 23.3362C8.68563 23.8362 8.78563 24.6462 9.28563 25.1562L15.6456 30.2063C15.8456 30.4062 16.1456 30.5062 16.4556 30.5062H18.9756V35.8563C17.2556 36.4663 17.2556 36.3563 17.2556 36.4663L6.45563 41.1063C6.05562 41.2063 5.64563 40.9062 5.64563 40.4963V21.0162H5.66563ZM8.18563 59.3662V43.5163C8.18563 43.2163 8.38562 43.0163 8.58562 42.9062C8.68563 42.9062 8.18563 43.1063 16.4556 39.4762V59.4663H8.17562V59.3662H8.18563ZM25.3456 44.2262H31.6056V59.3662H30.2956V54.3162C30.2956 53.6063 29.6856 53.0063 28.9856 53.0063C28.2856 53.0063 27.6756 53.6162 27.6756 54.3162V59.3662H25.1556V44.2262H25.3556H25.3456ZM34.1256 59.3662V44.2262H36.6456V59.3662H34.1256ZM45.5356 59.3662V39.3763C53.8156 43.0063 53.3056 42.8063 53.4056 42.8063C53.7056 42.9063 53.8056 43.1063 53.8056 43.4163V59.2663H45.5256V59.3662H45.5356Z" fill="#001452"/>
</g>
</g>
</svg>
