<svg width="60" height="50" viewBox="0 0 60 50" fill="none" xmlns="http://www.w3.org/2000/svg">
<g id="Group 20">
<path id="Vector" d="M52.7155 6.68422H57.7555C58.4555 6.68422 59.0655 7.28422 59.0655 7.99422V45.8442C59.0655 46.5442 58.4655 47.1542 57.7555 47.1542H36.0555C35.5555 48.6642 34.1355 49.6742 32.5255 49.6742H27.4755C25.8655 49.6742 24.4455 48.6642 23.9455 47.1542H2.24555C1.54555 47.1542 0.935547 46.5542 0.935547 45.8442V7.99422C0.935547 7.29422 1.53555 6.68422 2.24555 6.68422H7.29555V1.63422C7.29555 0.934219 7.89555 0.324219 8.60555 0.324219H25.4655C27.2755 0.324219 28.8955 1.23422 30.0055 2.54422C31.0155 1.23422 32.7255 0.324219 34.5455 0.324219H51.4055C52.1055 0.324219 52.7155 0.924219 52.7155 1.63422V6.68422Z" fill="#DBDAFD"/>
<path id="Vector_2" d="M57.7655 6.68422H52.7155V1.63422C52.7155 0.924219 52.1055 0.324219 51.4055 0.324219H34.5455C32.7255 0.324219 31.0155 1.23422 30.0055 2.54422C28.8955 1.23422 27.2755 0.324219 25.4655 0.324219H8.60555C7.89555 0.324219 7.29555 0.934219 7.29555 1.63422V6.68422H2.24555C1.53555 6.68422 0.935547 7.29422 0.935547 7.99422V45.8442C0.935547 46.5542 1.54555 47.1542 2.24555 47.1542H23.9455C24.4455 48.6642 25.8655 49.6742 27.4755 49.6742H32.5255C34.1355 49.6742 35.5555 48.6642 36.0555 47.1542H57.7555C58.4655 47.1542 59.0655 46.5442 59.0655 45.8442V7.99422C59.0655 7.28422 58.4555 6.68422 57.7555 6.68422H57.7655ZM34.5555 2.95422H50.2055V38.2842H31.3255V6.17422C31.3255 4.35422 32.7355 2.94422 34.5555 2.94422V2.95422ZM9.82555 2.95422H25.4655C27.2855 2.95422 28.7955 4.46422 28.7955 6.28422V38.2842H9.81555V35.7642H24.9555C25.6655 35.7642 26.2655 35.1542 26.2655 34.4542C26.2655 33.7542 25.6555 33.1442 24.9555 33.1442H9.81555V2.94422L9.82555 2.95422ZM56.5555 44.5342H35.0555C34.3455 44.5342 33.7455 45.1442 33.7455 45.8442C33.7455 46.5442 33.1355 47.1542 32.4355 47.1542H27.3855C26.6755 47.1542 26.0755 46.5442 26.0755 45.8442C26.0755 45.1442 25.4655 44.5342 24.7655 44.5342H3.55555V9.20422H7.39555V39.4842C7.39555 40.1942 8.00555 40.7942 8.70555 40.7942H51.6055C52.3155 40.7942 52.9155 40.1842 52.9155 39.4842V9.20422H56.7555V44.5342H56.5555Z" fill="#001452"/>
</g>
</svg>
