<svg width="62" height="62" viewBox="0 0 62 62" fill="none" xmlns="http://www.w3.org/2000/svg">
<g id="1891, Abilities, Arrows, Employee, Job, Opportunity">
<g id="Group">
<path id="Vector" d="M61.6456 31.7805C61.6456 31.6805 61.6456 31.7805 61.7456 31.6805C61.7456 31.5805 61.7456 31.6805 61.8456 31.5805V30.5805C61.8456 30.5805 61.8456 30.4805 61.7456 30.4805L61.6456 30.3805L61.5456 30.2805C61.4456 30.1805 61.5456 30.2805 58.9156 27.6805C58.4056 27.1805 57.5956 27.1805 57.0956 27.6805C56.5856 28.1805 56.5856 28.9805 57.0956 29.4805L57.5056 29.8805H51.5356C51.2356 25.1805 49.3056 20.9805 46.3756 17.6805L50.6256 13.4805V13.9805C50.6256 14.6805 51.2356 15.2805 51.9356 15.2805C52.6356 15.2805 53.2556 14.6805 53.2556 13.9805V9.88047C53.2556 9.8138 53.2223 9.78047 53.1556 9.78047C53.0889 9.78047 53.0556 9.74714 53.0556 9.68047C53.0556 9.68047 53.0556 9.58047 52.9556 9.58047L52.7556 9.28047C52.6556 9.28047 52.7556 9.28047 52.6556 9.18047C52.5556 9.18047 52.6556 9.18047 52.5556 9.08047H48.4056C47.6956 9.08047 47.0856 9.68047 47.0856 10.3805C47.0856 11.0805 47.6956 11.6805 48.4056 11.6805H48.9156L44.6656 15.6805C41.3256 12.7805 37.0756 10.8805 32.3256 10.5805V4.68047L32.7256 5.08047C33.2356 5.58047 34.0356 5.58047 34.5456 5.08047C35.0556 4.58047 35.0556 3.78047 34.5456 3.28047C31.8056 0.580469 31.9056 0.680469 31.7056 0.580469C31.6056 0.580469 31.7056 0.580469 31.6056 0.480469H31.2056C30.9056 0.480469 30.5956 0.480469 30.3956 0.680469C30.1956 0.780469 30.3956 0.680469 27.6656 3.38047C27.1556 3.88047 27.1556 4.68047 27.6656 5.18047C28.1756 5.68047 28.9756 5.68047 29.4856 5.18047L29.8856 4.78047V10.6805C25.1356 10.9805 20.8856 12.8805 17.5456 15.7805L13.1956 11.4805H13.7056C14.4156 11.4805 15.0256 10.8805 15.0256 10.1805C15.0256 9.48047 14.4156 8.88047 13.7056 8.88047H9.55559C9.55559 8.88047 9.45559 8.88047 9.45559 8.98047L9.35559 9.08047L9.25559 9.18047C9.25559 9.18047 9.15559 9.18047 9.15559 9.28047L9.05559 9.38047L8.95559 9.48047L8.85559 9.58047C8.85559 9.58047 8.85559 9.68047 8.75559 9.68047V13.7805C8.75559 14.4805 9.36559 15.0805 10.0656 15.0805C10.7656 15.0805 11.3756 14.4805 11.3756 13.7805V13.2805L15.6256 17.4805C12.6956 20.7805 10.7656 24.9805 10.4656 29.6805H4.49559L4.89559 29.2805C5.40559 28.7805 5.40559 27.9805 4.89559 27.4805C4.38559 26.9805 3.58559 26.9805 3.07559 27.4805C0.345589 30.1805 0.445589 30.0805 0.345589 30.2805C0.0455891 30.6805 0.145589 31.1805 0.345589 31.6805C0.445589 31.8805 0.245589 31.6805 3.07559 34.3805C3.58559 34.8805 4.38559 34.8805 4.89559 34.3805C5.40559 33.8805 5.40559 33.0805 4.89559 32.5805L4.49559 32.1805H10.4656C10.7656 36.8805 12.6956 41.0805 15.6256 44.3805L11.2756 48.5805V48.0805C11.2756 47.3805 10.6656 46.7805 9.96559 46.7805C9.26559 46.7805 8.65559 47.3805 8.65559 48.0805V52.1805C8.65559 52.2471 8.68892 52.2805 8.75559 52.2805V52.3805L8.85559 52.4805C8.85559 52.4805 8.85559 52.5805 8.95559 52.5805C8.95559 52.5805 9.05559 52.5805 9.05559 52.6805L9.15559 52.7805L9.25559 52.8805C9.25559 52.8805 9.35559 52.8805 9.35559 52.9805H13.5056C14.2156 52.9805 14.8156 52.3805 14.8156 51.6805C14.8156 50.9805 14.2056 50.3805 13.5056 50.3805H12.9956L17.2456 46.1805C20.5856 49.0805 24.8356 50.9805 29.5856 51.2805V57.1805L29.1856 56.7805C28.6756 56.2805 27.8756 56.2805 27.3656 56.7805C26.8556 57.2805 26.8556 58.0805 27.3656 58.5805C30.1956 61.3805 29.9956 61.1805 30.0956 61.2805L30.1956 61.3805C30.5956 61.5805 31.1056 61.5805 31.5056 61.2805C31.7056 61.1805 31.5056 61.2805 34.2356 58.5805C34.7456 58.0805 34.7456 57.2805 34.2356 56.7805C33.7256 56.2805 32.9156 56.2805 32.4156 56.7805L32.0156 57.1805V51.2805C36.7656 50.9805 41.0156 49.0805 44.3556 46.1805L48.6056 50.3805H48.0956C47.3856 50.3805 46.7856 50.9805 46.7856 51.6805C46.7856 52.3805 47.3956 52.9805 48.0956 52.9805H52.4456L52.5456 52.8805L52.6456 52.7805C52.6456 52.7805 52.7456 52.7805 52.7456 52.6805L52.8456 52.5805L52.9456 52.4805L53.0456 52.3805C53.0456 52.3805 53.0456 52.2805 53.1456 52.2805V48.1805C53.1456 47.4805 52.5356 46.8805 51.8256 46.8805C51.1156 46.8805 50.7156 47.3805 50.7156 48.0805V48.5805L46.4656 44.4805C49.3956 41.1805 51.3256 36.9805 51.6256 32.2805H57.5956L57.1956 32.6805C56.6856 33.1805 56.6856 33.9805 57.1956 34.4805C57.7056 34.9805 58.5156 34.9805 59.0156 34.4805C60.0256 33.4805 61.5456 31.9805 61.6456 31.8805V31.7805Z" fill="#DBDAFD"/>
<path id="Vector_2" d="M35.1447 28.1805C36.5647 26.9805 37.3747 25.2805 37.3747 23.3805C37.3747 19.8805 34.4447 16.9805 30.9047 16.9805C27.3647 16.9805 24.4347 19.8805 24.4347 23.3805C24.4347 25.2805 25.3447 27.0805 26.6647 28.1805C23.8347 29.6805 21.8047 32.6805 21.8047 36.0805V41.1805C21.8047 41.8805 22.4147 42.4805 23.1247 42.4805H38.6047C39.3147 42.4805 39.9247 41.8805 39.9247 41.1805V36.0805C40.0247 32.6805 38.1047 29.6805 35.1747 28.1805H35.1447ZM27.1547 23.3805C27.1547 21.2805 28.8747 19.5805 30.9947 19.5805C33.1147 19.5805 34.8347 21.2805 34.8347 23.3805C34.8347 25.4805 33.1147 27.1805 30.9947 27.1805C28.8747 27.1805 27.1547 25.4805 27.1547 23.3805ZM37.4747 39.8805H24.5247V36.0805C24.5247 32.5805 27.4547 29.6805 30.9947 29.6805C34.5347 29.6805 37.4647 32.5805 37.4647 36.0805V39.8805H37.4747Z" fill="#001452"/>
<path id="Vector_3" d="M61.6456 31.7805C61.6456 31.6805 61.6456 31.7805 61.7456 31.6805C61.7456 31.5805 61.7456 31.6805 61.8456 31.5805V30.5805C61.8456 30.5805 61.8456 30.4805 61.7456 30.4805L61.6456 30.3805L61.5456 30.2805C61.4456 30.1805 61.5456 30.2805 58.9156 27.6805C58.4056 27.1805 57.5956 27.1805 57.0956 27.6805C56.5856 28.1805 56.5856 28.9805 57.0956 29.4805L57.5056 29.8805H51.5356C51.2356 25.1805 49.3056 20.9805 46.3756 17.6805L50.6256 13.4805V13.9805C50.6256 14.6805 51.2356 15.2805 51.9356 15.2805C52.6356 15.2805 53.2556 14.6805 53.2556 13.9805V9.88047C53.2556 9.8138 53.2223 9.78047 53.1556 9.78047C53.0889 9.78047 53.0556 9.74714 53.0556 9.68047C53.0556 9.68047 53.0556 9.58047 52.9556 9.58047L52.7556 9.28047C52.6556 9.28047 52.7556 9.28047 52.6556 9.18047C52.5556 9.18047 52.6556 9.18047 52.5556 9.08047H48.4056C47.6956 9.08047 47.0856 9.68047 47.0856 10.3805C47.0856 11.0805 47.6956 11.6805 48.4056 11.6805H48.9156L44.6656 15.6805C41.3256 12.7805 37.0756 10.8805 32.3256 10.5805V4.68047L32.7256 5.08047C33.2356 5.58047 34.0356 5.58047 34.5456 5.08047C35.0556 4.58047 35.0556 3.78047 34.5456 3.28047C31.8056 0.580469 31.9056 0.680469 31.7056 0.580469C31.6056 0.580469 31.7056 0.580469 31.6056 0.480469H31.2056C30.9056 0.480469 30.5956 0.480469 30.3956 0.680469C30.1956 0.780469 30.3956 0.680469 27.6656 3.38047C27.1556 3.88047 27.1556 4.68047 27.6656 5.18047C28.1756 5.68047 28.9756 5.68047 29.4856 5.18047L29.8856 4.78047V10.6805C25.1356 10.9805 20.8856 12.8805 17.5456 15.7805L13.1956 11.4805H13.7056C14.4156 11.4805 15.0256 10.8805 15.0256 10.1805C15.0256 9.48047 14.4156 8.88047 13.7056 8.88047H9.55559C9.55559 8.88047 9.45559 8.88047 9.45559 8.98047L9.35559 9.08047L9.25559 9.18047C9.25559 9.18047 9.15559 9.18047 9.15559 9.28047L9.05559 9.38047L8.95559 9.48047L8.85559 9.58047C8.85559 9.58047 8.85559 9.68047 8.75559 9.68047V13.7805C8.75559 14.4805 9.36559 15.0805 10.0656 15.0805C10.7656 15.0805 11.3756 14.4805 11.3756 13.7805V13.2805L15.6256 17.4805C12.6956 20.7805 10.7656 24.9805 10.4656 29.6805H4.49559L4.89559 29.2805C5.40559 28.7805 5.40559 27.9805 4.89559 27.4805C4.38559 26.9805 3.58559 26.9805 3.07559 27.4805C0.345589 30.1805 0.445589 30.0805 0.345589 30.2805C0.0455891 30.6805 0.145589 31.1805 0.345589 31.6805C0.445589 31.8805 0.245589 31.6805 3.07559 34.3805C3.58559 34.8805 4.38559 34.8805 4.89559 34.3805C5.40559 33.8805 5.40559 33.0805 4.89559 32.5805L4.49559 32.1805H10.4656C10.7656 36.8805 12.6956 41.0805 15.6256 44.3805L11.2756 48.5805V48.0805C11.2756 47.3805 10.6656 46.7805 9.96559 46.7805C9.26559 46.7805 8.65559 47.3805 8.65559 48.0805V52.1805C8.65559 52.2471 8.68892 52.2805 8.75559 52.2805V52.3805L8.85559 52.4805C8.85559 52.4805 8.85559 52.5805 8.95559 52.5805C8.95559 52.5805 9.05559 52.5805 9.05559 52.6805L9.15559 52.7805L9.25559 52.8805C9.25559 52.8805 9.35559 52.8805 9.35559 52.9805H13.5056C14.2156 52.9805 14.8156 52.3805 14.8156 51.6805C14.8156 50.9805 14.2056 50.3805 13.5056 50.3805H12.9956L17.2456 46.1805C20.5856 49.0805 24.8356 50.9805 29.5856 51.2805V57.1805L29.1856 56.7805C28.6756 56.2805 27.8756 56.2805 27.3656 56.7805C26.8556 57.2805 26.8556 58.0805 27.3656 58.5805C30.1956 61.3805 29.9956 61.1805 30.0956 61.2805L30.1956 61.3805C30.5956 61.5805 31.1056 61.5805 31.5056 61.2805C31.7056 61.1805 31.5056 61.2805 34.2356 58.5805C34.7456 58.0805 34.7456 57.2805 34.2356 56.7805C33.7256 56.2805 32.9156 56.2805 32.4156 56.7805L32.0156 57.1805V51.2805C36.7656 50.9805 41.0156 49.0805 44.3556 46.1805L48.6056 50.3805H48.0956C47.3856 50.3805 46.7856 50.9805 46.7856 51.6805C46.7856 52.3805 47.3956 52.9805 48.0956 52.9805H52.4456L52.5456 52.8805L52.6456 52.7805C52.6456 52.7805 52.7456 52.7805 52.7456 52.6805L52.8456 52.5805L52.9456 52.4805L53.0456 52.3805C53.0456 52.3805 53.0456 52.2805 53.1456 52.2805V48.1805C53.1456 47.4805 52.5356 46.8805 51.8256 46.8805C51.1156 46.8805 50.7156 47.3805 50.7156 48.0805V48.5805L46.4656 44.4805C49.3956 41.1805 51.3256 36.9805 51.6256 32.2805H57.5956L57.1956 32.6805C56.6856 33.1805 56.6856 33.9805 57.1956 34.4805C57.7056 34.9805 58.5156 34.9805 59.0156 34.4805C60.0256 33.4805 61.5456 31.9805 61.6456 31.8805V31.7805ZM30.9956 48.7805C21.0856 48.7805 12.9856 40.7805 12.9856 30.9805C12.9856 21.1805 21.0856 13.1805 30.9956 13.1805C40.9056 13.1805 49.0056 21.1805 49.0056 30.9805C49.0056 40.7805 40.9156 48.7805 30.9956 48.7805Z" fill="#001452"/>
</g>
</g>
</svg>
