<svg width="60" height="60" viewBox="0 0 60 60" fill="none" xmlns="http://www.w3.org/2000/svg">
<g id="Group 459">
<g id="Group 461">
<path id="Vector" d="M31.3249 50.5996C29.9049 50.5996 28.7949 51.6996 28.7949 53.0996C28.7949 54.4996 29.9049 55.5996 31.3249 55.5996C32.7449 55.5996 33.8549 54.4996 33.8549 53.0996C33.8549 51.6996 32.6449 50.5996 31.3249 50.5996ZM31.3249 54.3996C30.6149 54.3996 30.0049 53.7996 30.0049 53.0996C30.0049 52.3996 30.6149 51.7996 31.3249 51.7996C32.0349 51.7996 32.6349 52.3996 32.6349 53.0996C32.5349 53.7996 31.9249 54.3996 31.3249 54.3996Z" fill="#001452"/>
<path id="Vector_2" d="M55.2947 49.3988H58.4147C58.8247 49.3988 59.1247 49.6988 59.0247 49.9988V58.0988C59.0247 58.3988 58.7147 58.6988 58.4147 58.6988H45.7747C45.4647 58.6988 45.1647 58.3988 45.1647 58.0988V55.5988H39.5047V58.6988C39.5047 58.9988 39.1947 59.2988 38.8947 59.2988H1.16469C0.854687 59.2988 0.554688 58.9988 0.554688 58.6988C0.554688 52.4988 5.00469 47.2988 10.8747 45.9988C8.14469 44.5988 6.32469 41.7988 6.32469 38.5988C6.32469 33.9988 10.0647 30.2988 14.7247 30.2988C19.3847 30.2988 23.1247 33.9988 23.1247 38.5988C23.1247 41.7988 21.3047 44.5988 18.6747 45.9988C20.4947 46.3988 22.2147 47.1988 23.7347 48.2988C24.3447 47.4988 25.3547 46.8988 26.4647 46.8988H36.3747C38.1947 46.8988 39.6147 48.2988 39.6147 50.0988V54.3988H45.2747V48.0988C45.2747 47.7988 45.5847 47.4988 45.8847 47.4988H49.0247C49.1247 47.4988 49.3247 47.5988 49.4247 47.6988L51.1447 49.3988H54.0747V34.3988C54.0747 34.0988 54.3747 33.7988 54.6847 33.7988C54.9947 33.7988 55.2947 34.0988 55.2947 34.3988V49.3988Z" fill="#DBDAFD"/>
<path id="Vector_3" d="M53.7841 8.49922C53.9841 11.8992 52.1641 14.8992 49.2341 16.3992H49.2241C55.0941 17.6992 59.5441 22.8992 59.4441 29.1992C59.4441 29.4992 59.1341 29.7992 58.8341 29.7992H21.1041C20.7941 29.7992 20.4941 29.4992 20.4941 29.1992V20.4992C20.4941 18.6992 21.9141 17.2992 23.7341 17.2992H33.6441C34.7541 17.2992 35.7641 17.7992 36.3741 18.6992C37.8941 17.5992 39.6141 16.7992 41.4341 16.3992C38.8041 14.9992 36.9841 12.1992 36.9841 8.99922C36.9841 4.39922 40.9241 0.699219 45.3841 0.699219C49.8441 0.699219 53.4841 4.09922 53.7841 8.49922Z" fill="#DBDAFD"/>
<path id="Vector_4" d="M28.7937 21C27.3737 21 26.2637 22.1 26.2637 23.5C26.2637 24.9 27.3737 26 28.7937 26C30.2137 26 31.3237 24.9 31.3237 23.5C31.3237 22.1 30.1137 21 28.7937 21ZM28.7937 24.7C28.0837 24.7 27.4837 24.1 27.4837 23.4C27.4837 22.7 28.0937 22.1 28.7937 22.1C29.4937 22.1 30.1137 22.7 30.1137 23.4C30.1137 24.1 29.4037 24.7 28.7937 24.7Z" fill="#001452"/>
<path id="Vector_5" d="M7.24426 16.2996H1.58426C1.17426 16.2996 0.974261 15.9996 1.07426 15.6996V7.59961C1.07426 7.29961 1.38426 6.99961 1.68426 6.99961H8.96426L10.6843 5.29961C10.7843 5.19961 10.8843 5.09961 11.0843 5.09961H14.2243C14.5343 5.09961 14.8343 5.39961 14.8343 5.69961V9.49961H31.2243C31.5343 9.49961 31.8343 9.79961 31.8343 10.0996C31.8343 10.3996 31.5243 10.6996 31.2243 10.6996H14.7343V15.6996C14.7343 15.9996 14.4243 16.2996 14.1243 16.2996H8.46426V27.4996C8.46426 27.7996 8.16426 28.0996 7.85426 28.0996C7.54426 28.0996 7.24426 27.7996 7.24426 27.4996V16.2996Z" fill="#DBDAFD"/>
</g>
<g id="Group 460">
<path id="Vector_6" d="M31.3249 50.5996C29.9049 50.5996 28.7949 51.6996 28.7949 53.0996C28.7949 54.4996 29.9049 55.5996 31.3249 55.5996C32.7449 55.5996 33.8549 54.4996 33.8549 53.0996C33.8549 51.6996 32.6449 50.5996 31.3249 50.5996ZM31.3249 54.3996C30.6149 54.3996 30.0049 53.7996 30.0049 53.0996C30.0049 52.3996 30.6149 51.7996 31.3249 51.7996C32.0349 51.7996 32.6349 52.3996 32.6349 53.0996C32.5349 53.7996 31.9249 54.3996 31.3249 54.3996Z" fill="#001452" stroke="#001452"/>
<path id="Vector_7" d="M58.4347 49.3988H55.2947V34.3988C55.2947 34.0988 54.9947 33.7988 54.6847 33.7988C54.3747 33.7988 54.0747 34.0988 54.0747 34.3988V49.3988H51.1447L49.4247 47.6988C49.3247 47.5988 49.1247 47.4988 49.0247 47.4988H45.8847C45.5847 47.4988 45.2747 47.7988 45.2747 48.0988V54.3988H39.6147V50.0988C39.6147 48.2988 38.1947 46.8988 36.3747 46.8988H26.4647C25.3547 46.8988 24.3447 47.4988 23.7347 48.2988C22.2147 47.1988 20.4947 46.3988 18.6747 45.9988C21.3047 44.5988 23.1247 41.7988 23.1247 38.5988C23.1247 33.9988 19.3847 30.2988 14.7247 30.2988C10.0647 30.2988 6.32469 33.9988 6.32469 38.5988C6.32469 41.7988 8.14469 44.5988 10.8747 45.9988C5.00469 47.2988 0.554688 52.4988 0.554688 58.6988C0.554688 58.9988 0.854687 59.2988 1.16469 59.2988H38.8947C39.1947 59.2988 39.5047 58.9988 39.5047 58.6988V55.5988H45.1647V58.0988C45.1647 58.3988 45.4647 58.6988 45.7747 58.6988H58.4147C58.7147 58.6988 59.0247 58.3988 59.0247 58.0988V49.9988C59.1247 49.6988 58.8247 49.3988 58.4147 49.3988H58.4347ZM14.6347 31.4988C18.2747 31.4988 21.3147 34.1988 21.7147 37.7988C19.4847 37.4988 17.6647 36.0988 16.5547 34.1988C16.4547 33.9988 16.2547 33.8988 16.0447 33.8988C15.8347 33.8988 15.6447 33.9988 15.5347 34.1988C14.0147 37.0988 10.6747 38.4988 7.64469 37.6988C7.94469 34.1988 10.9847 31.4988 14.6247 31.4988H14.6347ZM7.45469 38.9988C10.7947 39.6988 14.1347 38.2988 15.9547 35.6988C17.2747 37.5988 19.3947 38.7988 21.7247 39.0988C21.5247 42.7988 18.3847 45.6988 14.6447 45.6988C10.8047 45.6988 7.66469 42.6988 7.46469 38.9988H7.45469ZM13.7247 46.8988L10.7947 55.2988C10.6947 55.5988 10.8947 55.9988 11.1947 56.0988C11.4947 56.1988 11.9047 55.9988 12.0047 55.6988L14.6347 48.1988L17.2647 55.6988C17.3647 55.9988 17.7747 56.1988 18.0747 56.0988C18.3747 55.9988 18.5847 55.5988 18.4747 55.2988L15.5447 46.8988H15.8447C18.5747 46.8988 21.1047 47.7988 23.1247 49.3988C23.1247 49.5988 23.0247 49.7988 23.0247 49.9988V57.9988H1.78469C2.08469 51.8988 7.34469 46.8988 13.7247 46.8988ZM38.2047 58.0988H24.3447V50.0988C24.3447 48.9988 25.2547 48.0988 26.3647 48.0988H36.2747C37.3847 48.0988 38.2947 48.9988 38.2947 50.0988V58.0988H38.1947H38.2047ZM57.8247 57.4988H46.4947V48.6988H48.7247L50.4447 50.3988C50.5447 50.4988 50.7447 50.5988 50.8447 50.5988H57.8247V57.4988Z" fill="#001452" stroke="#001452"/>
<path id="Vector_8" d="M49.2341 16.3992C52.1641 14.8992 53.9841 11.8992 53.7841 8.49922C53.4841 4.09922 49.8441 0.699219 45.3841 0.699219C40.9241 0.699219 36.9841 4.39922 36.9841 8.99922C36.9841 12.1992 38.8041 14.9992 41.4341 16.3992C39.6141 16.7992 37.8941 17.5992 36.3741 18.6992C35.7641 17.7992 34.7541 17.2992 33.6441 17.2992H23.7341C21.9141 17.2992 20.4941 18.6992 20.4941 20.4992V29.1992C20.4941 29.4992 20.7941 29.7992 21.1041 29.7992H58.8341C59.1341 29.7992 59.4441 29.4992 59.4441 29.1992C59.5441 22.8992 55.0941 17.6992 49.2241 16.3992H49.2341ZM45.3941 1.89922C49.0341 1.89922 52.0741 4.59922 52.4741 8.09922C49.3341 8.79922 46.1041 7.39922 44.5841 4.59922C44.4841 4.39922 44.2841 4.29922 44.0741 4.29922C43.8641 4.29922 43.6741 4.39922 43.5641 4.59922C42.4541 6.59922 40.6341 7.89922 38.4041 8.19922C38.7041 4.59922 41.7441 1.89922 45.3841 1.89922H45.3941ZM38.3141 9.39922C40.6441 9.09922 42.6641 7.89922 44.0841 5.99922C46.0041 8.69922 49.3441 9.99922 52.5841 9.29922C52.3841 12.9992 49.2441 15.9992 45.4041 15.9992C41.6641 15.9992 38.5241 13.0992 38.3241 9.39922H38.3141ZM21.8241 20.3992C21.8241 19.2992 22.7341 18.3992 23.8441 18.3992H33.7541C34.8641 18.3992 35.7741 19.2992 35.7741 20.3992V28.3992H21.8141V20.3992H21.8241ZM36.9941 28.4992V20.4992C36.9941 20.2992 36.9941 20.0992 36.8941 19.8992C38.9141 18.1992 41.4441 17.3992 44.1741 17.3992H44.4741L41.5441 25.7992C41.4441 26.0992 41.6441 26.4992 41.9441 26.5992C42.2441 26.6992 42.6541 26.4992 42.7541 26.1992L45.3841 18.6992L48.0141 26.1992C48.1141 26.4992 48.3141 26.5992 48.6241 26.5992H48.8241C49.1241 26.4992 49.3341 26.0992 49.2241 25.7992L46.2941 17.3992C52.6641 17.3992 57.9241 22.3992 58.2341 28.5992L36.9941 28.4992Z" fill="#001452" stroke="#001452"/>
<path id="Vector_9" d="M28.7937 21C27.3737 21 26.2637 22.1 26.2637 23.5C26.2637 24.9 27.3737 26 28.7937 26C30.2137 26 31.3237 24.9 31.3237 23.5C31.3237 22.1 30.1137 21 28.7937 21ZM28.7937 24.7C28.0837 24.7 27.4837 24.1 27.4837 23.4C27.4837 22.7 28.0937 22.1 28.7937 22.1C29.4937 22.1 30.1137 22.7 30.1137 23.4C30.1137 24.1 29.4037 24.7 28.7937 24.7Z" fill="#001452" stroke="#001452"/>
<path id="Vector_10" d="M1.58426 16.2996H7.24426V27.4996C7.24426 27.7996 7.54426 28.0996 7.85426 28.0996C8.16426 28.0996 8.46426 27.7996 8.46426 27.4996V16.2996H14.1243C14.4243 16.2996 14.7343 15.9996 14.7343 15.6996V10.6996H31.2243C31.5243 10.6996 31.8343 10.3996 31.8343 10.0996C31.8343 9.79961 31.5343 9.49961 31.2243 9.49961H14.8343V5.69961C14.8343 5.39961 14.5343 5.09961 14.2243 5.09961H11.0843C10.8843 5.09961 10.7843 5.19961 10.6843 5.29961L8.96426 6.99961H1.68426C1.38426 6.99961 1.07426 7.29961 1.07426 7.59961V15.6996C0.974261 15.9996 1.17426 16.2996 1.58426 16.2996ZM2.19426 8.09961H9.17426C9.37426 8.09961 9.47426 7.99961 9.57426 7.89961L11.2943 6.19961H13.5243V14.9996H2.19426V8.09961Z" fill="#001452" stroke="#001452"/>
</g>
</g>
</svg>
