<svg width="54" height="50" viewBox="0 0 54 50" fill="none" xmlns="http://www.w3.org/2000/svg">
<g id="Group 22">
<path id="Vector" d="M44.1734 28.4091C44.0571 28.4091 43.9466 28.3858 43.8463 28.3437L41 30V37L38 42.5L35 46L28.5 48.5L21.5 47L16 42.5L12.9686 35V30L10.081 28.3159C9.61522 28.3159 9.24262 27.9433 9.24262 27.4776V24.3105C9.24262 24.3105 9.24262 24.1242 9.05633 24.1242C7.00705 23.379 2.25646 21.0503 1.13867 15.0888C1.13867 14.623 1.32497 14.2504 1.69757 14.0641C1.69757 14.0641 8.68373 11.8286 11.385 4.37665C11.5713 4.00405 11.9439 3.7246 12.3165 3.81775C12.3165 3.81775 21.1657 5.30813 26.4752 1.20958C26.7546 0.930138 27.2204 0.930138 27.4998 1.20958C32.8093 5.30813 41.5653 3.81775 41.6584 3.81775C42.031 3.81775 42.4968 4.00405 42.5899 4.37665C45.2912 11.9217 52.1842 14.0641 52.2774 14.0641C52.7431 14.1573 52.9294 14.623 52.8363 15.0888C51.7185 21.0503 46.9679 23.379 44.9186 24.1242C44.8255 24.1242 44.7323 24.2174 44.7323 24.3105V27.4776C44.7323 27.9433 44.3597 28.3159 43.894 28.3159L44.1734 28.4091Z" fill="#DBDAFD"/>
<path id="Vector_2" d="M44.1734 28.409C43.7077 28.409 43.3351 28.0365 43.3351 27.5707V24.4037C43.3351 23.5653 43.894 22.8201 44.6392 22.5407C46.3159 21.9818 50.135 20.1188 51.2528 15.5545C49.2966 14.7162 44.0803 12.108 41.4721 5.68073C39.2366 5.96018 32.1572 6.51907 27.2204 2.97941C22.1903 6.42592 15.2041 5.96018 12.9686 5.68073C10.2673 12.108 4.95778 14.7162 3.00165 15.4614C4.21258 20.0257 8.03169 21.8886 9.61522 22.4475C10.3604 22.727 10.9193 23.4722 10.9193 24.3105V27.4776C10.9193 27.9433 10.5467 28.3159 10.081 28.3159C9.61522 28.3159 9.24262 27.9433 9.24262 27.4776V24.3105C9.24262 24.3105 9.24262 24.1242 9.05633 24.1242C7.00705 23.379 2.25646 21.0503 1.13867 15.0888C1.13867 14.623 1.32497 14.2504 1.69757 14.0641C1.69757 14.0641 8.68373 11.8286 11.385 4.37665C11.5713 4.00405 11.9439 3.7246 12.3165 3.81775C12.3165 3.81775 21.1657 5.30813 26.4752 1.20958C26.7546 0.930138 27.2204 0.930138 27.4998 1.20958C32.8093 5.30813 41.5653 3.81775 41.6584 3.81775C42.031 3.81775 42.4968 4.00405 42.5899 4.37665C45.2912 11.9217 52.1842 14.0641 52.2774 14.0641C52.7431 14.1573 52.9294 14.623 52.8363 15.0888C51.7185 21.0503 46.9679 23.379 44.9186 24.1242C44.8255 24.1242 44.7323 24.2174 44.7323 24.3105V27.4776C44.7323 27.9433 44.3597 28.3159 43.894 28.3159L44.1734 28.409Z" fill="#001452" stroke="#001452"/>
<path id="Vector_3" d="M27.119 31.9591C26.3738 31.9591 9.23438 31.9591 9.23438 27.6743C9.23438 27.2085 9.60697 26.8359 10.0727 26.8359C10.5385 26.8359 10.9111 27.2085 10.9111 27.6743C11.2836 28.6058 16.9657 30.2824 27.0258 30.2824C37.0859 30.2824 42.8611 28.6058 43.2337 27.6743C43.2337 27.2085 43.6063 26.8359 44.072 26.8359C44.5378 26.8359 44.9104 27.2085 44.9104 27.7674C44.9104 32.0523 27.771 32.0523 27.0258 32.0523L27.119 31.9591Z" fill="#001452" stroke="#001452"/>
<path id="Vector_4" d="M10.0727 24.5913C9.60697 24.5913 9.23438 24.2187 9.23438 23.6598C9.23438 19.375 26.3738 19.375 27.119 19.375C27.8641 19.375 45.0035 19.375 45.0035 23.6598C45.0035 24.1256 44.6309 24.4982 44.1652 24.4982C43.6995 24.4982 43.3269 24.1256 43.3269 23.6598C42.9543 22.7284 37.179 21.0517 27.2121 21.0517C17.2452 21.0517 11.3768 22.7284 11.0042 23.6598C11.0042 24.1256 10.6316 24.4982 10.1659 24.4982L10.0727 24.5913Z" fill="#001452" stroke="#001452"/>
<path id="Vector_5" d="M27.1239 48.9979C18.8337 48.9979 12.127 42.2911 12.127 34.0009V29.5297C12.127 29.064 12.4995 28.6914 12.9653 28.6914C13.431 28.6914 13.8036 29.064 13.8036 29.5297V34.0009C13.8036 41.2665 19.7652 47.228 27.0308 47.228C34.2964 47.228 40.2579 41.2665 40.2579 34.0009V29.5297C40.2579 29.064 40.6305 28.6914 41.0962 28.6914C41.562 28.6914 41.9346 29.064 41.9346 29.5297V34.0009C41.9346 42.2911 35.2279 48.9979 26.9376 48.9979H27.1239Z" fill="#001452" stroke="#001452"/>
<path id="Vector_6" d="M27.1346 17.0401C27.1346 17.0401 26.8552 17.0401 26.762 16.947C25.8305 16.4812 22.8498 14.6182 22.5703 9.7745C22.5703 9.4019 22.7566 9.12246 23.0361 8.93616L26.762 6.79374C26.762 6.79374 27.3209 6.60744 27.6004 6.79374L31.3263 8.93616C31.3263 8.93616 31.792 9.4019 31.792 9.7745C31.5126 14.5251 28.5318 16.4812 27.6004 16.947C27.5072 16.947 27.3209 17.0401 27.2278 17.0401H27.1346ZM24.3401 10.2402C24.7127 13.1279 26.2031 14.5251 27.1346 15.1771C28.0661 14.5251 29.6496 13.1279 29.9291 10.2402L27.1346 8.56356L24.3401 10.2402Z" fill="#001452" stroke="#001452"/>
</g>
</svg>
