<svg width="40" height="54" viewBox="0 0 40 54" fill="none" xmlns="http://www.w3.org/2000/svg">
<g id="18, report, record, health, healthcare">
<g id="Group">
<path id="Vector" d="M38.2297 53.3417H1.88969C1.27969 53.3417 0.679688 52.8417 0.679688 52.1317V7.72172C0.679688 7.11172 1.17969 6.51172 1.88969 6.51172H8.84969C9.45969 6.51172 10.0597 7.01172 10.0597 7.72172V11.2517H29.9397V7.72172C29.9397 7.11172 30.4397 6.51172 31.1497 6.51172H38.1097C38.7197 6.51172 39.3197 7.01172 39.3197 7.72172V52.1317C39.3197 52.7417 38.8197 53.3417 38.2097 53.3417H38.2297Z" fill="#DBDAFD"/>
<path id="Vector_2" d="M38.2297 53.3417H1.88969C1.27969 53.3417 0.679688 52.8417 0.679688 52.1317V7.72172C0.679688 7.11172 1.17969 6.51172 1.88969 6.51172H8.84969C9.45969 6.51172 10.0597 7.01172 10.0597 7.72172V11.2517H29.9397V7.72172C29.9397 7.11172 30.4397 6.51172 31.1497 6.51172H38.1097C38.7197 6.51172 39.3197 7.01172 39.3197 7.72172V52.1317C39.3197 52.7417 38.8197 53.3417 38.2097 53.3417H38.2297ZM3.10969 50.9217H37.0197V8.83172H32.3797V12.3617C32.3797 12.9717 31.8797 13.5717 31.1697 13.5717H8.95969C8.34969 13.5717 7.74969 13.0717 7.74969 12.3617V8.83172H3.09969V50.9217H3.10969Z" fill="#001452"/>
<path id="Vector_3" d="M31.16 13.5702H8.96C8.35 13.5702 7.75 13.0702 7.75 12.3602V5.40016C7.75 4.79016 8.25 4.19016 8.96 4.19016H15.12C15.83 2.17016 17.85 0.660156 20.07 0.660156C22.29 0.660156 24.31 2.07016 25.02 4.19016H31.18C31.79 4.19016 32.39 4.69016 32.39 5.40016V12.3602C32.39 13.0702 31.78 13.5702 31.18 13.5702H31.16ZM10.17 11.2502H30.05V6.61016H24.2C23.59 6.61016 23.09 6.21016 23.09 5.60016C22.89 4.19016 21.68 3.08016 20.16 3.08016C18.64 3.08016 17.43 4.19016 17.23 5.60016C17.13 6.21016 16.62 6.61016 16.12 6.61016H10.27V11.2502H10.17Z" fill="#001452"/>
<path id="Vector_4" d="M33.479 25.2784H6.91898C6.30898 25.2784 5.70898 24.7784 5.70898 24.0684V17.1084C5.70898 16.4984 6.20898 15.8984 6.91898 15.8984H33.479C34.089 15.8984 34.689 16.3984 34.689 17.1084V24.0684C34.689 24.6784 34.189 25.2784 33.479 25.2784ZM8.12898 22.8584H32.369V18.2184H8.12898V22.8584Z" fill="#001452"/>
<path id="Vector_5" d="M18.3399 39.3106H11.3799C10.7699 39.3106 10.1699 38.8106 10.1699 38.1006C10.1699 37.3906 10.6699 36.8906 11.3799 36.8906H18.3399C18.9499 36.8906 19.5499 37.3906 19.5499 38.1006C19.5499 38.8106 18.9399 39.3106 18.3399 39.3106Z" fill="#001452"/>
<path id="Vector_6" d="M13.5997 34.5606H6.63969C6.02969 34.5606 5.42969 34.0606 5.42969 33.3506C5.42969 32.7406 5.92969 32.1406 6.63969 32.1406H13.5997C14.2097 32.1406 14.8097 32.6406 14.8097 33.3506C14.8097 34.0606 14.3097 34.5606 13.5997 34.5606Z" fill="#001452"/>
<path id="Vector_7" d="M33.4799 34.5606H17.1299C16.5199 34.5606 15.9199 34.0606 15.9199 33.3506C15.9199 32.7406 16.4199 32.1406 17.1299 32.1406H33.4799C34.0899 32.1406 34.6899 32.6406 34.6899 33.3506C34.6899 34.0606 34.1899 34.5606 33.4799 34.5606Z" fill="#001452"/>
<path id="Vector_8" d="M13.5997 29.92H6.63969C6.02969 29.92 5.42969 29.42 5.42969 28.71C5.42969 28 5.92969 27.5 6.63969 27.5H13.5997C14.2097 27.5 14.8097 28 14.8097 28.71C14.8097 29.42 14.3097 29.92 13.5997 29.92Z" fill="#001452"/>
<path id="Vector_9" d="M33.4799 29.92H17.1299C16.5199 29.92 15.9199 29.42 15.9199 28.71C15.9199 28 16.4199 27.5 17.1299 27.5H33.4799C34.0899 27.5 34.6899 28 34.6899 28.71C34.6899 29.42 34.1899 29.92 33.4799 29.92Z" fill="#001452"/>
<path id="Vector_10" d="M6.63969 39.3083C6.33969 39.3083 6.02969 39.2083 5.82969 39.0083C5.62969 38.8083 5.42969 38.3983 5.42969 38.0983C5.42969 37.7983 5.52969 37.4883 5.72969 37.2883C5.92969 37.0883 6.22969 36.9883 6.53969 36.9883C6.84969 36.9883 7.14969 37.0883 7.34969 37.2883C7.54969 37.4883 7.64969 37.7883 7.64969 38.0983C7.64969 38.4083 7.54969 38.7083 7.34969 38.9083C7.24969 39.1083 6.94969 39.3083 6.63969 39.3083Z" fill="#001452"/>
<path id="Vector_11" d="M18.3399 43.9512H11.3799C10.7699 43.9512 10.1699 43.4512 10.1699 42.7412C10.1699 42.1312 10.6699 41.5312 11.3799 41.5312H18.3399C18.9499 41.5312 19.5499 42.0312 19.5499 42.7412C19.4499 43.4512 18.9399 43.9512 18.3399 43.9512Z" fill="#001452"/>
<path id="Vector_12" d="M6.63969 43.9489C6.33969 43.9489 6.02969 43.8489 5.82969 43.6489C5.62969 43.4489 5.42969 43.0389 5.42969 42.7389C5.42969 42.4389 5.52969 42.1289 5.72969 41.9289C5.92969 41.7289 6.22969 41.6289 6.53969 41.6289C6.84969 41.6289 7.14969 41.7289 7.34969 41.9289C7.54969 42.1289 7.64969 42.4289 7.64969 42.7389C7.64969 43.0489 7.54969 43.3489 7.34969 43.5489C7.24969 43.8489 6.94969 43.9489 6.63969 43.9489Z" fill="#001452"/>
<path id="Vector_13" d="M18.3399 48.5919H11.3799C10.7699 48.5919 10.1699 48.0919 10.1699 47.3819C10.1699 46.7719 10.6699 46.1719 11.3799 46.1719H18.3399C18.9499 46.1719 19.5499 46.6719 19.5499 47.3819C19.4499 48.0919 18.9399 48.5919 18.3399 48.5919Z" fill="#001452"/>
<path id="Vector_14" d="M6.6393 48.5911C6.3393 48.5911 6.0293 48.4911 5.8293 48.2911C5.6293 48.0911 5.5293 47.7911 5.5293 47.4811C5.5293 47.1711 5.6293 46.8711 5.8293 46.6711C6.0293 46.4711 6.3293 46.3711 6.6393 46.3711C6.9493 46.3711 7.2493 46.4711 7.4493 46.6711C7.6493 46.8711 7.7493 47.1711 7.7493 47.4811C7.7493 47.7911 7.6493 48.0911 7.4493 48.2911C7.2493 48.4911 6.9493 48.5911 6.6393 48.5911Z" fill="#001452"/>
<path id="Vector_15" d="M33.4795 48.5912H22.9795C22.3695 48.5912 21.7695 48.0912 21.7695 47.3812V37.9912C21.7695 37.3812 22.2695 36.7812 22.9795 36.7812H33.4795C34.0895 36.7812 34.6895 37.2812 34.6895 37.9912V47.3812C34.6895 48.0912 34.1895 48.5912 33.4795 48.5912ZM24.1895 46.2712H32.3695V39.3112H24.1895V46.2712Z" fill="#001452"/>
</g>
</g>
</svg>
