<svg width="62" height="55" viewBox="0 0 62 55" fill="none" xmlns="http://www.w3.org/2000/svg">
<g id="281 - talent, Human, improvement, management, people">
<path id="Vector" d="M58.7604 17.1805L61.2804 27.1705C61.4804 27.9705 60.8804 28.7805 60.2704 28.6805H55.2204V38.7705C55.2204 39.4705 54.6204 40.0805 53.9104 40.0805H47.5504V52.7005C47.5504 53.4005 46.9504 54.0105 46.2404 54.0105H15.9604C15.2604 54.0105 14.6504 53.4105 14.6504 52.7005V40.1805H8.29038C7.59038 40.1805 6.98038 39.5805 6.98038 38.8705V28.7805H1.93038C1.12038 28.7805 0.520381 27.9805 0.720381 27.1705L3.24038 17.1805C3.34038 12.5405 5.26038 8.20047 8.69038 4.97047C14.8504 -0.789528 24.0404 -1.48953 31.0004 2.55047C38.2704 -1.58953 47.3504 -0.579528 53.3104 4.97047C56.7404 8.20047 58.7604 12.5405 58.7604 17.1805Z" fill="#DBDAFD"/>
<path id="Vector_2" d="M61.2804 27.1705L58.7604 17.1805C58.7604 12.5405 56.7404 8.20047 53.3104 4.97047C47.3504 -0.579528 38.2704 -1.58953 31.0004 2.55047C24.0404 -1.48953 14.8504 -0.789528 8.69038 4.97047C5.26038 8.20047 3.34038 12.5405 3.24038 17.1805L0.720381 27.1705C0.520381 27.9805 1.12038 28.7805 1.93038 28.7805H6.98038V38.8705C6.98038 39.5805 7.59038 40.1805 8.29038 40.1805H14.6504V52.7005C14.6504 53.4105 15.2604 54.0105 15.9604 54.0105H46.2404C46.9504 54.0105 47.5504 53.4005 47.5504 52.7005V40.0805H53.9104C54.6204 40.0805 55.2204 39.4705 55.2204 38.7705V28.6805H60.2704C60.8804 28.7805 61.4804 27.9705 61.2804 27.1705ZM53.7104 26.2605C53.0004 26.2605 52.4004 26.8705 52.4004 27.5705V37.6605H46.1404C45.4304 37.6605 44.8304 38.2705 44.8304 38.9705V51.5905H39.7804V44.0205C39.7804 43.3105 39.1704 42.7105 38.4704 42.7105C37.7704 42.7105 37.1604 43.3205 37.1604 44.0205V51.5905H16.9704V40.0805H23.3304C25.4504 40.0805 27.1704 38.3605 27.1704 36.2405V34.9305C27.1704 34.2205 26.5604 33.6205 25.8604 33.6205C25.1604 33.6205 24.5504 34.2305 24.5504 34.9305V36.2405C24.5504 36.9505 23.9404 37.5505 23.2404 37.5505H9.31038V27.4605C9.31038 26.8505 8.91038 26.3505 8.30038 26.2505C8.10038 26.2505 8.40038 26.2505 3.35038 26.2505L5.47038 17.7705V17.4705C5.47038 9.30047 12.5404 2.73047 21.1104 2.73047C23.6304 2.73047 26.0604 3.34047 28.3804 4.35047C28.0804 4.65047 27.6704 4.96047 27.3704 5.26047C26.8704 5.76047 26.8704 6.57047 27.2704 7.08047C27.7704 7.58047 28.5804 7.58047 29.0904 7.18047C29.5904 6.68047 30.2004 6.27047 30.7104 5.87047C31.7204 6.58047 32.6304 7.38047 33.5404 8.39047C34.0404 8.89047 34.7504 9.00047 35.3604 8.49047C35.8604 7.99047 35.9704 7.28047 35.4604 6.67047C34.7504 5.86047 33.9504 5.16047 33.1404 4.45047C35.3604 3.34047 37.8804 2.84047 40.4104 2.84047C49.1904 2.64047 56.2604 9.20047 56.2604 17.3705V17.6705L58.3804 26.1505H53.7404V26.2505L53.7104 26.2605Z" fill="#001452"/>
<path id="Vector_3" d="M39.981 17.9903C41.191 15.7703 41.291 14.1603 40.281 13.1503C39.981 12.8503 39.471 12.4403 38.561 12.4403C37.651 12.4403 36.541 12.8403 35.431 13.4503C34.821 11.4303 33.821 9.82031 32.201 9.82031C30.581 9.82031 29.581 11.4403 28.971 13.4503C27.861 12.8403 26.751 12.4403 25.841 12.4403C24.931 12.4403 24.431 12.8403 24.121 13.1503C23.111 14.1603 23.211 15.7703 24.421 17.9903C22.401 18.6003 20.791 19.6103 20.791 21.2203C20.791 22.8303 22.401 23.8403 24.421 24.4503C23.211 26.6703 23.111 28.2903 24.121 29.2903C24.421 29.5903 24.931 30.0003 25.841 30.0003C26.751 30.0003 27.861 29.6003 28.971 28.9903C29.581 31.0103 30.581 32.6203 32.201 32.6203C33.821 32.6203 34.821 31.0003 35.431 28.9903C36.541 29.6003 37.651 30.0003 38.561 30.0003C39.471 30.0003 39.971 29.6003 40.281 29.2903C41.291 28.2803 41.191 26.6703 39.981 24.4503C42.001 23.8403 43.611 22.8303 43.611 21.2203C43.611 19.6103 41.991 18.6003 39.981 17.9903ZM33.921 21.8303C33.621 22.1303 33.311 22.4403 33.011 22.7403H31.701C31.301 22.4403 31.091 22.1303 30.791 21.8303V20.5203C31.091 20.2203 31.401 19.9103 31.701 19.6103H33.011C33.411 19.9103 33.621 20.2203 33.921 20.5203V21.8303ZM38.361 15.0703C38.361 15.4703 38.061 16.1803 37.351 17.4903C36.951 17.3903 36.541 17.3903 36.141 17.2903C36.141 16.8903 36.041 16.4803 35.941 16.0803C37.051 15.3703 37.961 15.0703 38.361 15.0703ZM32.301 12.4503C32.501 12.7503 32.911 13.4603 33.311 14.8703C33.011 15.0703 32.701 15.3703 32.301 15.5803C32.001 15.3803 31.691 15.0803 31.291 14.8703C31.591 13.4603 32.001 12.7503 32.301 12.4503ZM26.141 15.0703C26.641 15.1703 27.451 15.4703 28.561 16.0803C28.461 16.4803 28.461 16.8903 28.361 17.2903C27.961 17.2903 27.551 17.3903 27.151 17.4903C26.341 16.1803 26.141 15.3703 26.141 15.0703ZM25.941 20.2203C26.141 20.5203 26.441 20.8303 26.651 21.2303C26.351 21.5303 26.151 21.8403 25.941 22.2403C24.531 21.9403 23.821 21.5303 23.521 21.2303C23.821 20.9303 24.531 20.5203 25.941 20.2203ZM26.141 27.2903C26.141 26.8903 26.441 26.1803 27.151 24.8703C27.551 24.9703 27.961 24.9703 28.361 25.0703C28.361 25.4703 28.461 25.8803 28.561 26.2803C27.451 26.9903 26.541 27.2903 26.141 27.2903ZM32.301 29.9103C32.101 29.6103 31.691 28.9003 31.291 27.4903C31.591 27.2903 31.901 26.9903 32.301 26.7803C32.601 26.9803 32.911 27.2803 33.311 27.4903C32.911 28.9003 32.501 29.6103 32.301 29.9103ZM38.361 27.2903C37.861 27.1903 37.051 26.8903 35.941 26.2803C36.041 25.8803 36.041 25.4703 36.141 25.0703C36.541 25.0703 36.951 24.9703 37.351 24.8703C38.161 26.1803 38.361 26.9903 38.361 27.2903ZM38.561 22.1403C38.361 21.8403 38.061 21.5303 37.851 21.1303C38.151 20.8303 38.351 20.5203 38.561 20.1203C39.971 20.4203 40.681 20.8303 40.981 21.1303C40.681 21.4303 39.971 21.8403 38.561 22.1403Z" fill="#001452"/>
</g>
</svg>
