<svg width="50" height="50" viewBox="0 0 50 50" fill="none" xmlns="http://www.w3.org/2000/svg">
<g id="381 - Business, copyright, digital, law, records">
<g id="Group">
<path id="Vector" d="M45.7585 10.9813H48.92C49.5024 10.9813 50.0016 11.4805 50.0016 12.0628V48.5032C50.0016 49.0856 49.5024 49.5848 48.92 49.5848H1.08156C0.499184 49.5848 0 49.0856 0 48.5032V12.0628C0 11.4805 0.499184 10.9813 1.08156 10.9813H4.15986V7.81978C4.15986 7.2374 4.65905 6.73821 5.24143 6.73821H14.5595V1.49679C14.5595 0.914406 15.0587 0.415222 15.6411 0.415222H18.137C19.385 0.415222 20.5497 1.2472 21.0489 2.32876H28.9527C29.4518 1.164 30.5334 0.415222 31.8646 0.415222H34.3605C34.9429 0.415222 35.442 0.914406 35.442 1.49679V6.73821H44.6769C45.2593 6.73821 45.7585 7.2374 45.7585 7.81978V10.9813Z" fill="#DBDAFD"/>
<path id="Vector_2" d="M48.92 10.9813H45.7585V7.81978C45.7585 7.2374 45.2593 6.73821 44.6769 6.73821H35.442V1.49679C35.442 0.914406 34.9429 0.415222 34.3605 0.415222H31.8646C30.5334 0.415222 29.4518 1.164 28.9527 2.32876H21.0489C20.5497 1.24719 19.385 0.415222 18.137 0.415222H15.6411C15.0587 0.415222 14.5595 0.914406 14.5595 1.49679V6.73821H5.24143C4.65905 6.73821 4.15986 7.2374 4.15986 7.81978V10.9813H1.08156C0.499184 10.9813 0 11.4805 0 12.0628V48.5032C0 49.0856 0.499184 49.5848 1.08156 49.5848H48.92C49.5024 49.5848 50.0016 49.0856 50.0016 48.5032V12.0628C50.0016 11.4805 49.5024 10.9813 48.92 10.9813ZM43.7618 8.90134V43.2618H26.0407V40.1003H26.8727C27.4551 40.1003 27.9543 39.6011 27.9543 39.0188V10.1493H28.9527C29.3686 11.0645 30.2838 11.8132 31.4486 11.9796C31.8646 12.0628 31.9478 11.9796 34.3605 11.9796C34.9429 11.9796 35.442 11.4805 35.442 10.8981V8.90134H43.7618ZM25.8744 24.5424H24.2104V13.8932H25.8744V24.5424ZM24.2104 26.6224H25.8744V28.2863H24.2104V26.6224ZM25.8744 10.1493V11.8132H24.2104V10.1493H25.8744ZM25.8744 30.3662V38.0204H24.2104V30.283H25.8744V30.3662ZM31.8646 2.66155H33.2789V9.98291H31.8646C31.199 9.98291 30.6998 9.48373 30.6998 8.81815V3.90951C30.6998 3.16073 31.2822 2.66155 31.8646 2.66155ZM28.6199 8.06937H26.0407V4.49189H28.6199V8.06937ZM23.9608 8.06937H21.3817V4.49189H23.9608V8.06937ZM16.7227 2.66155H18.137C18.8026 2.66155 19.3018 3.16073 19.3018 3.82631V8.73495C19.3018 9.40053 18.8026 9.89971 18.137 9.89971H16.7227V2.66155ZM6.32299 8.90134H14.6427V10.9813C14.6427 11.5637 15.1419 12.0628 15.7243 12.0628C18.3034 12.0628 18.3866 12.0628 18.8858 11.9796C19.8841 11.7301 20.7161 11.1477 21.1321 10.1493H22.1305V39.102C22.1305 39.6843 22.6297 40.1835 23.212 40.1835H24.044V43.345H6.32299V8.90134ZM2.16313 13.0612H4.24306V44.2602C4.24306 44.8426 4.74224 45.3418 5.32463 45.3418H24.044V47.4217H2.16313V13.0612ZM47.9216 47.4217H26.0407V45.3418H44.7601C45.3425 45.3418 45.8417 44.8426 45.8417 44.2602V13.0612H47.9216V47.4217Z" fill="#001452"/>
<path id="Vector_3" d="M30.2012 21.3809C30.2012 21.9633 30.7004 22.4625 31.2827 22.4625H40.684C41.2664 22.4625 41.7656 21.9633 41.7656 21.3809C41.7656 20.7986 41.2664 20.2994 40.684 20.2994H31.2827C30.7004 20.3826 30.2012 20.7986 30.2012 21.3809Z" fill="#001452"/>
<path id="Vector_4" d="M40.6008 23.4609H31.2827C30.7004 23.4609 30.2012 23.9601 30.2012 24.5424C30.2012 25.1248 30.7004 25.624 31.2827 25.624H40.684C41.2664 25.624 41.7656 25.1248 41.7656 24.5424C41.7656 23.9601 41.1832 23.4609 40.6008 23.4609Z" fill="#001452"/>
<path id="Vector_5" d="M40.6008 26.6224H31.2827C30.7004 26.6224 30.2012 27.1216 30.2012 27.7039C30.2012 28.2863 30.7004 28.7855 31.2827 28.7855H40.684C41.2664 28.7855 41.7656 28.2863 41.7656 27.7039C41.7656 27.1216 41.1832 26.6224 40.6008 26.6224Z" fill="#001452"/>
<path id="Vector_6" d="M40.6008 29.7007H31.2827C30.7004 29.7007 30.2012 30.1999 30.2012 30.7822C30.2012 31.3646 30.7004 31.8638 31.2827 31.8638H40.684C41.2664 31.8638 41.7656 31.3646 41.7656 30.7822C41.7656 30.1999 41.1832 29.7007 40.6008 29.7007Z" fill="#001452"/>
<path id="Vector_7" d="M40.6008 32.8622H31.2827C30.7004 32.8622 30.2012 33.3614 30.2012 33.9437C30.2012 34.5261 30.7004 35.0253 31.2827 35.0253H40.684C41.2664 35.0253 41.7656 34.5261 41.7656 33.9437C41.7656 33.3614 41.1832 32.8622 40.6008 32.8622Z" fill="#001452"/>
<path id="Vector_8" d="M40.6008 35.9405H31.2827C30.7004 35.9405 30.2012 36.4397 30.2012 37.0221C30.2012 37.6044 30.7004 38.1036 31.2827 38.1036H40.684C41.2664 38.1036 41.7656 37.6044 41.7656 37.0221C41.6824 36.4397 41.1832 35.9405 40.6008 35.9405Z" fill="#001452"/>
<path id="Vector_9" d="M40.6001 39.1019H37.189C36.6066 39.1019 36.1074 39.6011 36.1074 40.1835C36.1074 40.7659 36.6066 41.2651 37.189 41.2651H40.6001C41.1825 41.2651 41.6816 40.7659 41.6816 40.1835C41.6816 39.5179 41.1825 39.1019 40.6001 39.1019Z" fill="#001452"/>
<path id="Vector_10" d="M9.40188 22.4625H18.8032C19.3856 22.4625 19.8847 21.9633 19.8847 21.3809C19.8847 20.7986 19.3856 20.2994 18.8032 20.2994H9.40188C8.8195 20.2994 8.32031 20.7986 8.32031 21.3809C8.32031 21.9633 8.8195 22.4625 9.40188 22.4625Z" fill="#001452"/>
<path id="Vector_11" d="M9.40188 25.5408H18.8032C19.3856 25.5408 19.8847 25.0416 19.8847 24.4592C19.8847 23.8768 19.3856 23.3776 18.8032 23.3776H9.40188C8.8195 23.3776 8.32031 23.8768 8.32031 24.4592C8.32031 25.0416 8.8195 25.5408 9.40188 25.5408Z" fill="#001452"/>
<path id="Vector_12" d="M9.40188 28.7023H18.8032C19.3856 28.7023 19.8847 28.2031 19.8847 27.6208C19.8847 27.0384 19.3856 26.5392 18.8032 26.5392H9.40188C8.8195 26.5392 8.32031 27.0384 8.32031 27.6208C8.32031 28.2031 8.8195 28.7023 9.40188 28.7023Z" fill="#001452"/>
<path id="Vector_13" d="M9.40188 31.7806H18.8032C19.3856 31.7806 19.8847 31.2814 19.8847 30.6991C19.8847 30.1167 19.3024 29.7007 18.8032 29.7007H9.40188C8.8195 29.7007 8.32031 30.1999 8.32031 30.7822C8.32031 31.3646 8.8195 31.7806 9.40188 31.7806Z" fill="#001452"/>
<path id="Vector_14" d="M9.40188 34.9421H18.8032C19.3856 34.9421 19.8847 34.4429 19.8847 33.8606C19.8847 33.2782 19.3856 32.779 18.8032 32.779H9.40188C8.8195 32.779 8.32031 33.2782 8.32031 33.8606C8.32031 34.4429 8.8195 34.9421 9.40188 34.9421Z" fill="#001452"/>
<path id="Vector_15" d="M9.40188 38.0204H18.8032C19.3856 38.0204 19.8847 37.5212 19.8847 36.9388C19.8847 36.3564 19.3856 35.8572 18.8032 35.8572H9.40188C8.8195 35.8572 8.32031 36.3564 8.32031 36.9388C8.40351 37.5212 8.8195 38.0204 9.40188 38.0204Z" fill="#001452"/>
<path id="Vector_16" d="M18.8012 39.1019H15.3902C14.8078 39.1019 14.3086 39.6011 14.3086 40.1835C14.3086 40.7659 14.8078 41.2651 15.3902 41.2651H18.8012C19.3836 41.2651 19.8828 40.7659 19.8828 40.1835C19.7996 39.5179 19.3004 39.1019 18.8012 39.1019Z" fill="#001452"/>
</g>
</g>
</svg>
