<svg width="16" height="34" viewBox="0 0 16 34" fill="none" xmlns="http://www.w3.org/2000/svg">
<path fill-rule="evenodd" clip-rule="evenodd" d="M3.5 4.7139C3.5 3.53928 3.9316 2.54169 4.8058 1.72229C5.67144 0.910836 6.73822 0.5 7.98594 0.5C9.23366 0.5 10.3004 0.910836 11.1832 1.73818C12.0574 2.55531 12.5 3.55346 12.5 4.7139C12.5 5.87207 12.0574 6.86001 11.1832 7.67998C10.3004 8.49087 9.23366 8.9 7.98594 8.9C6.72049 8.9 5.65433 8.49938 4.78868 7.70211C3.9316 6.89973 3.5 5.90215 3.5 4.7139Z" fill="white"/>
<path fill-rule="evenodd" clip-rule="evenodd" d="M12.4144 26.997C12.4144 27.9208 12.5606 28.532 12.8495 28.8234C13.1379 29.1148 13.7482 29.2596 14.6715 29.2596H15.5V33.5H0.5V29.2596H1.46466C2.38805 29.2596 2.99833 29.1148 3.28667 28.8234C3.575 28.532 3.71947 27.9208 3.71947 26.997V17.2254C3.71947 16.2826 3.575 15.6715 3.28667 15.3901C2.99833 15.1093 2.38805 14.9645 1.46466 14.9645H0.5V10.7H12.4144V26.997Z" fill="white"/>
</svg>
